<svg width="31" height="31" viewBox="0 0 31 31" fill="none" xmlns="http://www.w3.org/2000/svg">
<path d="M13 28H18C24.25 28 26.75 25.5 26.75 19.25V11.75C26.75 5.5 24.25 3 18 3H13C6.75 3 4.25 5.5 4.25 11.75V19.25C4.25 25.5 6.75 28 13 28Z" stroke="#393A44" stroke-width="2" stroke-linecap="round" stroke-linejoin="round"/>
<path d="M21.125 9.9751V11.2251C21.125 12.2501 20.2875 13.1001 19.25 13.1001H11.75C10.725 13.1001 9.875 12.2626 9.875 11.2251V9.9751C9.875 8.9501 10.7125 8.1001 11.75 8.1001H19.25C20.2875 8.1001 21.125 8.9376 21.125 9.9751Z" stroke="#393A44" stroke-width="2" stroke-linecap="round" stroke-linejoin="round"/>
<path d="M10.6701 18H10.6846" stroke="#393A44" stroke-width="2" stroke-linecap="round" stroke-linejoin="round"/>
<path d="M15.4941 18H15.5086" stroke="#393A44" stroke-width="2" stroke-linecap="round" stroke-linejoin="round"/>
<path d="M20.3176 18H20.3321" stroke="#393A44" stroke-width="2" stroke-linecap="round" stroke-linejoin="round"/>
<path d="M10.6701 22.375H10.6846" stroke="#393A44" stroke-width="2" stroke-linecap="round" stroke-linejoin="round"/>
<path d="M15.4944 22.375H15.5088" stroke="#393A44" stroke-width="2" stroke-linecap="round" stroke-linejoin="round"/>
<path d="M20.3176 22.375H20.3321" stroke="#393A44" stroke-width="2" stroke-linecap="round" stroke-linejoin="round"/>
</svg>
