<svg width="57" height="57" viewBox="0 0 57 57" fill="none" xmlns="http://www.w3.org/2000/svg">
<rect x="1" y="1" width="55" height="55" rx="27.5" fill="#F8F9FA"/>
<rect x="1" y="1" width="55" height="55" rx="27.5" stroke="#7B7B7E"/>
<path d="M38.1602 26.94L37.1802 31.12C36.3402 34.73 34.6802 36.19 31.5602 35.89C31.0602 35.85 30.5202 35.76 29.9402 35.62L28.2602 35.22C24.0902 34.23 22.8002 32.17 23.7802 27.99L24.7602 23.8C24.9602 22.95 25.2002 22.21 25.5002 21.6C26.6702 19.18 28.6602 18.53 32.0002 19.32L33.6702 19.71C37.8602 20.69 39.1402 22.76 38.1602 26.94Z" stroke="#7B7B7E" stroke-width="1.5" stroke-linecap="round" stroke-linejoin="round"/>
<path d="M31.5599 35.8901C30.9399 36.3101 30.1599 36.6601 29.2099 36.9701L27.6299 37.4901C23.6599 38.7701 21.5699 37.7001 20.2799 33.7301L18.9999 29.7801C17.7199 25.8101 18.7799 23.7101 22.7499 22.4301L24.3299 21.9101C24.7399 21.7801 25.1299 21.6701 25.4999 21.6001C25.1999 22.2101 24.9599 22.9501 24.7599 23.8001L23.7799 27.9901C22.7999 32.1701 24.0899 34.2301 28.2599 35.2201L29.9399 35.6201C30.5199 35.7601 31.0599 35.8501 31.5599 35.8901Z" stroke="#7B7B7E" stroke-width="1.5" stroke-linecap="round" stroke-linejoin="round"/>
<path d="M29.1401 25.03L33.9901 26.26" stroke="#7B7B7E" stroke-width="1.5" stroke-linecap="round" stroke-linejoin="round"/>
<path d="M28.1602 28.8999L31.0602 29.6399" stroke="#7B7B7E" stroke-width="1.5" stroke-linecap="round" stroke-linejoin="round"/>
</svg>
