<svg width="30" height="31" viewBox="0 0 30 31" fill="none" xmlns="http://www.w3.org/2000/svg">
<path d="M27.0872 9.18726C26.2872 6.47476 24.0247 4.21226 21.3122 3.41226C19.2497 2.81226 17.8247 2.86226 16.8372 3.59976C15.6497 4.48726 15.5122 6.08726 15.5122 7.22476V10.3373C15.5122 13.4123 16.9122 14.9748 19.6622 14.9748H23.2497C24.3747 14.9748 25.9872 14.8373 26.8747 13.6498C27.6372 12.6748 27.6997 11.2498 27.0872 9.18726Z" fill="white"/>
<path d="M23.6373 17.2004C23.3123 16.8254 22.8372 16.6129 22.3497 16.6129H17.8748C15.6748 16.6129 13.8872 14.8254 13.8872 12.6254V8.15043C13.8872 7.66293 13.6748 7.18793 13.2998 6.86293C12.9373 6.53793 12.4373 6.38793 11.9623 6.45043C9.02475 6.82543 6.32475 8.43793 4.56225 10.8629C2.78725 13.3004 2.13725 16.2754 2.69975 19.2504C3.51225 23.5504 6.94975 26.9879 11.2623 27.8004C11.9498 27.9379 12.6372 28.0004 13.3247 28.0004C15.5872 28.0004 17.7748 27.3004 19.6373 25.9379C22.0623 24.1754 23.6748 21.4754 24.0498 18.5379C24.1123 18.0504 23.9623 17.5629 23.6373 17.2004Z" fill="white"/>
</svg>
