<svg width="30" height="30" viewBox="0 0 30 30" fill="none" xmlns="http://www.w3.org/2000/svg">
<path d="M15.8471 24.9462C16.1905 25.0261 16.2219 25.4759 15.8874 25.5874L13.9124 26.2374C8.94994 27.8374 6.33744 26.4999 4.72494 21.5374L3.12494 16.5999C1.52494 11.6374 2.84994 9.0124 7.81244 7.4124L8.72144 7.11137C9.1243 6.97795 9.51286 7.38068 9.39217 7.78753C9.29426 8.11756 9.20193 8.46751 9.11244 8.8374L7.88744 14.0749C6.51244 19.9624 8.52494 23.2124 14.4124 24.6124L15.8471 24.9462Z" fill="#FFFEFF"/>
<path d="M21.4622 4.01263L19.3747 3.52513C15.1997 2.53763 12.7122 3.35013 11.2497 6.37513C10.8747 7.13763 10.5747 8.06263 10.3247 9.12513L9.09974 14.3626C7.87474 19.5876 9.48724 22.1626 14.6997 23.4001L16.7997 23.9001C17.5247 24.0751 18.1997 24.1876 18.8247 24.2376C22.7247 24.6126 24.7997 22.7876 25.8497 18.2751L27.0747 13.0501C28.2997 7.82513 26.6997 5.23763 21.4622 4.01263ZM19.1122 16.6626C18.9997 17.0876 18.6247 17.3626 18.1997 17.3626C18.1247 17.3626 18.0497 17.3501 17.9622 17.3376L14.3247 16.4126C13.8247 16.2876 13.5247 15.7751 13.6497 15.2751C13.7747 14.7751 14.2872 14.4751 14.7872 14.6001L18.4247 15.5251C18.9372 15.6501 19.2372 16.1626 19.1122 16.6626ZM22.7747 12.4376C22.6622 12.8626 22.2872 13.1376 21.8622 13.1376C21.7872 13.1376 21.7122 13.1251 21.6247 13.1126L15.5622 11.5751C15.0622 11.4501 14.7622 10.9376 14.8872 10.4376C15.0122 9.93763 15.5247 9.63763 16.0247 9.76263L22.0872 11.3001C22.5997 11.4126 22.8997 11.9251 22.7747 12.4376Z" fill="#FFFEFF"/>
</svg>
