<svg width="30" height="30" viewBox="0 0 30 30" fill="none" xmlns="http://www.w3.org/2000/svg">
<path d="M21.0376 19.5502C21.8751 19.0002 22.9751 19.6002 22.9751 20.6002V22.2127C22.9751 23.8002 21.7376 25.5002 20.2501 26.0002L16.2626 27.3252C15.5626 27.5627 14.4251 27.5627 13.7376 27.3252L9.75015 26.0002C8.25015 25.5002 7.02515 23.8002 7.02515 22.2127V20.5877C7.02515 19.6002 8.12515 19.0002 8.95015 19.5377L11.5251 21.2127C12.5126 21.8752 13.7626 22.2002 15.0126 22.2002C16.2626 22.2002 17.5126 21.8752 18.5001 21.2127L21.0376 19.5502Z" fill="white"/>
<path d="M24.975 8.07446L17.4875 3.16196C16.1375 2.27446 13.9125 2.27446 12.5625 3.16196L5.03752 8.07446C2.62502 9.63696 2.62502 13.1745 5.03752 14.7495L7.03752 16.0495L12.5625 19.6495C13.9125 20.537 16.1375 20.537 17.4875 19.6495L22.975 16.0495L24.6875 14.9245V18.7495C24.6875 19.262 25.1125 19.687 25.625 19.687C26.1375 19.687 26.5625 19.262 26.5625 18.7495V12.5995C27.0625 10.987 26.55 9.11196 24.975 8.07446Z" fill="white"/>
</svg>
