<svg width="30" height="31" viewBox="0 0 30 31" fill="none" xmlns="http://www.w3.org/2000/svg">
<path d="M21 3H17.75C13.75 3 11.25 5.5 11.25 9.5V14.5625H19.0625C19.575 14.5625 20 14.9875 20 15.5C20 16.0125 19.575 16.4375 19.0625 16.4375H11.25V21.5C11.25 25.5 13.75 28 17.75 28H20.9875C24.9875 28 27.4875 25.5 27.4875 21.5V9.5C27.5 5.5 25 3 21 3Z" fill="white"/>
<path d="M5.69993 14.5623L8.28743 11.9748C8.47493 11.7873 8.56243 11.5498 8.56243 11.3123C8.56243 11.0748 8.47493 10.8248 8.28743 10.6498C7.92493 10.2873 7.32493 10.2873 6.96243 10.6498L2.77493 14.8373C2.41243 15.1998 2.41243 15.7998 2.77493 16.1623L6.96243 20.3498C7.32493 20.7123 7.92493 20.7123 8.28743 20.3498C8.64993 19.9873 8.64993 19.3873 8.28743 19.0248L5.69993 16.4373H11.2499V14.5623H5.69993Z" fill="white"/>
</svg>
