<svg width="24" height="25" viewBox="0 0 24 25" fill="none" xmlns="http://www.w3.org/2000/svg">
<path d="M20.6751 4.27554L14.2126 0.538037C12.9751 -0.174463 11.0376 -0.174463 9.8001 0.538037L3.2751 4.30054C0.687598 6.05054 0.537598 6.31304 0.537598 9.10054V15.888C0.537598 18.6755 0.687598 18.9505 3.3251 20.7255L9.7876 24.463C10.4126 24.8255 11.2126 25.0005 12.0001 25.0005C12.7876 25.0005 13.5876 24.8255 14.2001 24.463L20.7251 20.7005C23.3126 18.9505 23.4626 18.688 23.4626 15.9005V9.10054C23.4626 6.31304 23.3126 6.05054 20.6751 4.27554ZM12.0001 16.563C9.7626 16.563 7.9376 14.738 7.9376 12.5005C7.9376 10.263 9.7626 8.43804 12.0001 8.43804C14.2376 8.43804 16.0626 10.263 16.0626 12.5005C16.0626 14.738 14.2376 16.563 12.0001 16.563Z" fill="white"/>
</svg>
