<svg width="33" height="25" viewBox="0 0 33 25" fill="none" xmlns="http://www.w3.org/2000/svg">
<path d="M4.125 8.375C5.64378 8.375 6.875 7.14378 6.875 5.625C6.875 4.10622 5.64378 2.875 4.125 2.875C2.60622 2.875 1.375 4.10622 1.375 5.625C1.375 7.14378 2.60622 8.375 4.125 8.375Z" stroke="#242740" stroke-width="2" stroke-miterlimit="10" stroke-linecap="round" stroke-linejoin="round"/>
<path d="M28.875 8.375C30.3938 8.375 31.625 7.14378 31.625 5.625C31.625 4.10622 30.3938 2.875 28.875 2.875C27.3562 2.875 26.125 4.10622 26.125 5.625C26.125 7.14378 27.3562 8.375 28.875 8.375Z" stroke="#242740" stroke-width="2" stroke-miterlimit="10" stroke-linecap="round" stroke-linejoin="round"/>
<path d="M26.125 5.625H20.625" stroke="#242740" stroke-width="2" stroke-miterlimit="10" stroke-linecap="round" stroke-linejoin="round"/>
<path d="M12.375 5.625H6.875" stroke="#242740" stroke-width="2" stroke-miterlimit="10" stroke-linecap="round" stroke-linejoin="round"/>
<path d="M10.3125 18.6875V21.4375C10.3125 22.2763 9.80375 23.005 9.08875 23.3075C8.8275 23.4312 8.5525 23.5 8.25 23.5H5.5C4.35875 23.5 3.4375 22.5787 3.4375 21.4375V18.6875C3.4375 17.5463 4.35875 16.625 5.5 16.625H8.25C9.39125 16.625 10.3125 17.5463 10.3125 18.6875Z" stroke="#242740" stroke-width="2" stroke-miterlimit="10" stroke-linecap="round" stroke-linejoin="round"/>
<path d="M29.5625 18.6875V21.4375C29.5625 22.5787 28.6412 23.5 27.5 23.5H24.75C24.4475 23.5 24.1725 23.4312 23.9112 23.3075C23.1962 23.005 22.6875 22.2763 22.6875 21.4375V18.6875C22.6875 17.5463 23.6088 16.625 24.75 16.625H27.5C28.6412 16.625 29.5625 17.5463 29.5625 18.6875Z" stroke="#242740" stroke-width="2" stroke-miterlimit="10" stroke-linecap="round" stroke-linejoin="round"/>
<path d="M20.625 3.5625V7.6875C20.625 8.815 19.69 9.75 18.5625 9.75H14.4375C13.31 9.75 12.375 8.815 12.375 7.6875V3.5625C12.375 2.435 13.31 1.5 14.4375 1.5H18.5625C19.69 1.5 20.625 2.435 20.625 3.5625Z" stroke="#242740" stroke-width="2" stroke-miterlimit="10" stroke-linecap="round" stroke-linejoin="round"/>
<path d="M20.625 6.62891C23.8837 8.27891 26.125 11.8264 26.125 15.9377C26.125 16.1714 26.1112 16.3914 26.0837 16.6252" stroke="#242740" stroke-width="2" stroke-miterlimit="10" stroke-linecap="round" stroke-linejoin="round"/>
<path d="M6.91625 16.6252C6.88875 16.3914 6.875 16.1714 6.875 15.9377C6.875 11.8264 9.11625 8.27891 12.375 6.62891" stroke="#242740" stroke-width="2" stroke-miterlimit="10" stroke-linecap="round" stroke-linejoin="round"/>
</svg>
