<svg width="31" height="31" viewBox="0 0 31 31" fill="none" xmlns="http://www.w3.org/2000/svg">
<path d="M15.232 30.1H14.879C13.9254 29.9336 13.069 29.4154 12.479 28.648C11.586 27.725 10.674 26.822 9.75502 25.925C9.50786 25.6743 9.2284 25.4578 8.92402 25.281C8.72992 25.1584 8.50997 25.0827 8.28156 25.0598C8.05316 25.0369 7.82256 25.0675 7.608 25.1491C7.39343 25.2306 7.20079 25.361 7.04528 25.5299C6.88978 25.6987 6.77569 25.9014 6.71202 26.122C6.61283 26.4392 6.54976 26.7666 6.52402 27.098C6.45614 27.7712 6.16007 28.401 5.68496 28.8829C5.20986 29.3647 4.58427 29.6696 3.91202 29.747C3.31771 29.7806 2.72518 29.655 2.19567 29.383C1.66616 29.1111 1.21887 28.7026 0.900023 28.2C0.57841 27.7835 0.375166 27.288 0.311735 26.7657C0.248304 26.2434 0.327039 25.7136 0.539631 25.2323C0.752224 24.751 1.09079 24.336 1.51961 24.0311C1.94843 23.7262 2.4516 23.5427 2.97602 23.5C3.33587 23.4695 3.69019 23.3922 4.03002 23.27C4.22848 23.2019 4.40959 23.0912 4.56058 22.9456C4.71158 22.7999 4.82878 22.6229 4.90392 22.4271C4.97907 22.2312 5.01032 22.0212 4.99548 21.812C4.98063 21.6027 4.92006 21.3993 4.81802 21.216C4.63951 20.8794 4.41053 20.5722 4.13902 20.305C3.07302 19.224 1.97802 18.17 0.926023 17.074C0.608933 16.7565 0.357481 16.3796 0.186023 15.965C-0.0104949 15.4735 -0.0501541 14.9333 0.072485 14.4183C0.195124 13.9034 0.474055 13.4391 0.871023 13.089C1.95402 12 3.04902 10.915 4.13402 9.82397C4.3233 9.63978 4.49566 9.43898 4.64902 9.22397C4.82897 9.00266 4.9462 8.7371 4.98847 8.45502C5.03074 8.17294 4.99649 7.88468 4.88931 7.62035C4.78213 7.35603 4.60594 7.12532 4.37915 6.95234C4.15236 6.77936 3.88328 6.67044 3.60002 6.63697C3.33202 6.58097 3.05702 6.56297 2.78602 6.51897C2.40301 6.46925 2.03388 6.34312 1.70052 6.14808C1.36716 5.95303 1.07635 5.69304 0.845346 5.38351C0.614341 5.07398 0.447839 4.72122 0.355712 4.34614C0.263584 3.97106 0.247708 3.5813 0.309023 3.19997C0.393864 2.6138 0.63187 2.06039 0.999009 1.59563C1.36615 1.13087 1.84942 0.771208 2.40002 0.552968C3.01092 0.257889 3.7076 0.192509 4.36273 0.368776C5.01786 0.545044 5.58767 0.951187 5.96802 1.51297C6.34116 2.09167 6.55565 2.75826 6.59002 3.44597C6.59529 3.67999 6.65184 3.91001 6.75569 4.1198C6.85954 4.32959 7.00816 4.51403 7.19106 4.66012C7.37396 4.80621 7.58669 4.91039 7.81424 4.96531C8.04179 5.02023 8.27862 5.02455 8.50802 4.97797C8.98422 4.84867 9.41193 4.5823 9.73802 4.21197C10.838 3.11197 11.929 1.99497 13.052 0.911968C13.3694 0.595979 13.7468 0.346745 14.162 0.178968C14.6547 -0.0131305 15.1946 -0.0490008 15.7084 0.0762246C16.2222 0.20145 16.685 0.481708 17.034 0.878968C18.119 1.95697 19.195 3.04297 20.28 4.11897C20.4711 4.31553 20.6811 4.49273 20.907 4.64797C21.1196 4.81336 21.3712 4.92105 21.6376 4.96062C21.904 5.0002 22.1762 4.97031 22.4276 4.87385C22.6791 4.77739 22.9014 4.61763 23.0729 4.41005C23.2445 4.20246 23.3596 3.95408 23.407 3.68897C23.491 3.36897 23.507 3.03097 23.572 2.70597C23.6256 2.3331 23.7527 1.97458 23.9459 1.65122C24.1392 1.32785 24.3947 1.04609 24.6977 0.82226C25.0007 0.598434 25.3451 0.437009 25.711 0.347351C26.0768 0.257693 26.4569 0.241587 26.829 0.299968C27.425 0.386287 27.9876 0.628819 28.4595 1.00293C28.9315 1.37703 29.296 1.86938 29.516 2.42997C29.7986 3.03576 29.8568 3.72223 29.6802 4.36694C29.5037 5.01165 29.1038 5.57269 28.552 5.94997C27.9629 6.32425 27.287 6.53989 26.59 6.57597C26.2949 6.58456 26.0081 6.6755 25.762 6.83852C25.5158 7.00154 25.3202 7.23014 25.1971 7.4985C25.0741 7.76687 25.0285 8.06429 25.0656 8.35718C25.1027 8.65007 25.221 8.92675 25.407 9.15597C25.5593 9.37122 25.731 9.57206 25.92 9.75597C26.9 10.744 27.875 11.737 28.874 12.706C29.503 13.2287 29.9382 13.9474 30.11 14.747V15.335C29.9987 15.9938 29.6811 16.6002 29.203 17.067C28.089 18.167 26.992 19.289 25.872 20.384C25.6157 20.6388 25.3212 20.852 24.999 21.016C24.8231 21.1106 24.6295 21.1678 24.4304 21.1841C24.2312 21.2003 24.0309 21.1752 23.842 21.1103C23.653 21.0454 23.4795 20.9421 23.3324 20.807C23.1853 20.6718 23.0677 20.5077 22.987 20.325C22.84 19.9739 22.7447 19.6034 22.704 19.225C22.6598 18.6548 22.456 18.1086 22.1159 17.6488C21.7758 17.189 21.3132 16.8342 20.781 16.625C20.281 16.4764 19.7535 16.4451 19.2394 16.5337C18.7254 16.6223 18.2387 16.8284 17.8173 17.1358C17.3959 17.4432 17.0512 17.8437 16.8099 18.3061C16.5685 18.7686 16.4372 19.2805 16.426 19.802C16.4332 20.5162 16.6992 21.2036 17.1748 21.7366C17.6504 22.2696 18.3032 22.6119 19.012 22.7C19.391 22.7352 19.7649 22.812 20.127 22.929C20.3401 22.9984 20.535 23.1147 20.6972 23.2693C20.8595 23.4239 20.985 23.6129 21.0646 23.8224C21.1443 24.0319 21.1759 24.2565 21.1573 24.4799C21.1387 24.7032 21.0702 24.9195 20.957 25.113C20.8052 25.3975 20.6125 25.6583 20.385 25.887C19.294 26.998 18.185 28.094 17.085 29.194C16.7074 29.5956 16.2209 29.8784 15.685 30.008L15.233 30.108" fill="#9BE3FF"/>
</svg>
