<svg width="40" height="40" viewBox="0 0 40 40" fill="none" xmlns="http://www.w3.org/2000/svg">
<path d="M20.235 39.9941H19.766C18.5014 39.7716 17.3661 39.0834 16.584 38.0651C15.398 36.8391 14.184 35.6391 12.966 34.4481C12.6388 34.1156 12.2689 33.8281 11.866 33.5931C11.6082 33.4294 11.3159 33.3279 11.0121 33.2968C10.7083 33.2657 10.4014 33.3058 10.1158 33.4139C9.83021 33.522 9.57372 33.6952 9.36667 33.9196C9.15962 34.1441 9.00771 34.4137 8.92299 34.7071C8.79121 35.1297 8.70768 35.5658 8.67398 36.0071C8.58403 36.9017 8.19081 37.7386 7.55961 38.3789C6.92841 39.0192 6.0972 39.4244 5.20398 39.5271C4.41293 39.5744 3.62363 39.4091 2.91799 39.0485C2.21234 38.6878 1.61605 38.1449 1.19098 37.4761C0.764099 36.923 0.494406 36.2649 0.410354 35.5713C0.326301 34.8777 0.431005 34.1742 0.713421 33.5352C0.995837 32.8961 1.4455 32.3451 2.01496 31.9403C2.58443 31.5354 3.2526 31.2918 3.94898 31.2351C4.42693 31.1948 4.89757 31.0922 5.34898 30.9301C5.614 30.841 5.85609 30.6946 6.058 30.5012C6.2599 30.3078 6.41663 30.0722 6.51701 29.8113C6.6174 29.5503 6.65896 29.2705 6.63873 28.9916C6.6185 28.7128 6.53698 28.4418 6.39998 28.1981C6.16344 27.7512 5.85993 27.3432 5.49998 26.9881C4.08998 25.5451 2.63498 24.1441 1.23798 22.6881C0.816786 22.2664 0.482763 21.7659 0.254985 21.2151C-0.00623511 20.5622 -0.059001 19.8444 0.103927 19.1603C0.266856 18.4761 0.637495 17.8592 1.16498 17.3941C2.59998 15.9431 4.05098 14.5071 5.49298 13.0581C5.74486 12.8125 5.97412 12.5448 6.17798 12.2581C6.41632 11.9644 6.57155 11.6121 6.62752 11.238C6.68349 10.8639 6.63815 10.4816 6.49622 10.131C6.35429 9.78033 6.12096 9.47416 5.82053 9.24431C5.52009 9.01447 5.16354 8.86936 4.78798 8.8241C4.43198 8.7501 4.06598 8.7241 3.70698 8.6671C3.19826 8.60206 2.70776 8.43559 2.26453 8.17755C1.82131 7.91951 1.43438 7.57514 1.12666 7.16485C0.818937 6.75455 0.596686 6.28668 0.473067 5.78893C0.349449 5.29118 0.326978 4.77369 0.406985 4.2671C0.518329 3.48671 0.834023 2.74963 1.32206 2.13058C1.8101 1.51153 2.45314 1.03252 3.18598 0.742102C3.99762 0.350174 4.9232 0.263426 5.79352 0.497717C6.66385 0.732007 7.42079 1.27169 7.92598 2.0181C8.42196 2.78682 8.70715 3.67241 8.75299 4.5861C8.76098 4.89655 8.83673 5.2015 8.97494 5.47961C9.11315 5.75771 9.31047 6.00225 9.55309 6.1961C9.79571 6.38995 10.0778 6.52843 10.3795 6.60184C10.6813 6.67526 10.9954 6.68183 11.3 6.6211C11.9329 6.45069 12.5018 6.09809 12.936 5.6071C14.4 4.1441 15.846 2.6611 17.336 1.2271C17.7578 0.803991 18.2605 0.470037 18.814 0.245102C19.4686 -0.00980982 20.1858 -0.0572079 20.8682 0.109337C21.5507 0.275882 22.1654 0.648309 22.629 1.1761C24.07 2.6081 25.499 4.0501 26.941 5.4761C27.1949 5.73627 27.474 5.97075 27.774 6.1761C28.056 6.39717 28.3904 6.54152 28.7446 6.59513C29.0989 6.64875 29.461 6.6098 29.7958 6.48207C30.1306 6.35434 30.4266 6.14218 30.6551 5.8662C30.8837 5.59022 31.0369 5.25982 31.1 4.9071C31.212 4.4821 31.23 4.0331 31.32 3.6011C31.3914 3.1065 31.5602 2.63098 31.8166 2.20206C32.0731 1.77314 32.412 1.39934 32.8139 1.1023C33.2157 0.805248 33.6725 0.590856 34.1578 0.471526C34.6431 0.352196 35.1472 0.330299 35.641 0.407102C36.4327 0.521833 37.18 0.844101 37.8068 1.34116C38.4337 1.83822 38.9178 2.49235 39.21 3.2371C39.5838 4.04109 39.6603 4.95161 39.426 5.80672C39.1916 6.66183 38.6615 7.40608 37.93 7.9071C37.1476 8.40442 36.2498 8.69103 35.324 8.7391C34.9315 8.74939 34.5497 8.8695 34.2221 9.0858C33.8944 9.30211 33.6339 9.60594 33.4702 9.96281C33.3065 10.3197 33.2462 10.7153 33.296 11.1048C33.3458 11.4942 33.5037 11.8619 33.752 12.1661C33.9543 12.4531 34.1826 12.7209 34.434 12.9661C35.734 14.2791 37.034 15.5981 38.358 16.8851C39.1942 17.5804 39.7725 18.5366 40 19.6001V20.3811C39.8519 21.256 39.43 22.0613 38.795 22.6811C37.315 24.1451 35.858 25.6331 34.369 27.0881C34.0287 27.4267 33.6377 27.7101 33.21 27.9281C32.9763 28.054 32.7192 28.1302 32.4546 28.1519C32.1901 28.1737 31.924 28.1404 31.6729 28.0543C31.4219 27.9681 31.1913 27.831 30.9958 27.6515C30.8004 27.472 30.6441 27.2539 30.537 27.0111C30.3424 26.546 30.2161 26.0553 30.162 25.5541C30.1033 24.7964 29.8326 24.0706 29.3808 23.4596C28.9289 22.8486 28.3142 22.3771 27.607 22.0991C25.034 21.0871 21.873 23.3271 21.821 26.3201C21.8336 27.2667 22.1886 28.1767 22.8202 28.8819C23.4519 29.5871 24.3175 30.0397 25.257 30.1561C25.7601 30.2016 26.2568 30.3022 26.738 30.4561C27.0212 30.5479 27.2802 30.7021 27.4958 30.9074C27.7114 31.1127 27.8782 31.3638 27.9838 31.6422C28.0894 31.9205 28.1311 32.2191 28.1058 32.5157C28.0806 32.8124 27.9891 33.0996 27.838 33.3561C27.6363 33.7341 27.3803 34.0805 27.078 34.3841C25.628 35.8601 24.158 37.3161 22.694 38.7771C22.1917 39.3109 21.5446 39.6865 20.832 39.8581C20.632 39.9021 20.432 39.9441 20.232 39.9871" fill="#1492E6"/>
</svg>
