<svg width="30" height="30" viewBox="0 0 30 30" fill="none" xmlns="http://www.w3.org/2000/svg">
<path d="M13.4371 3.06265C14.3121 2.32515 15.7246 2.32515 16.5746 3.06265L18.5496 4.75015C18.9246 5.06265 19.6371 5.32515 20.1371 5.32515H22.2621C23.5871 5.32515 24.6746 6.41265 24.6746 7.73765V9.86265C24.6746 10.3626 24.9371 11.0626 25.2496 11.4376L26.9371 13.4126C27.6746 14.2876 27.6746 15.7001 26.9371 16.5501L25.2496 18.5251C24.9371 18.9001 24.6746 19.6001 24.6746 20.1001V22.2251C24.6746 23.5501 23.5871 24.6376 22.2621 24.6376H20.1371C19.6371 24.6376 18.9371 24.9001 18.5621 25.2126L16.5871 26.9001C15.7121 27.6376 14.2996 27.6376 13.4496 26.9001L11.4746 25.2126C11.0996 24.9001 10.3871 24.6376 9.89961 24.6376H7.71211C6.38711 24.6376 5.29961 23.5501 5.29961 22.2251V20.0876C5.29961 19.6001 5.04961 18.8876 4.73711 18.5251L3.04961 16.5376C2.32461 15.6751 2.32461 14.2751 3.04961 13.4126L4.73711 11.4251C5.04961 11.0501 5.29961 10.3501 5.29961 9.86265V7.75015C5.29961 6.42515 6.38711 5.33765 7.71211 5.33765H9.87461C10.3746 5.33765 11.0746 5.07515 11.4496 4.76265L13.4371 3.06265Z" stroke="#292D32" stroke-width="2" stroke-linecap="round" stroke-linejoin="round"/>
<path d="M15 10.1626V16.2001" stroke="#292D32" stroke-width="2" stroke-linecap="round" stroke-linejoin="round"/>
<path d="M14.9932 20H15.0044" stroke="#292D32" stroke-width="3" stroke-linecap="round" stroke-linejoin="round"/>
</svg>
