<svg width="1084" height="16" viewBox="0 0 1084 16" fill="none" xmlns="http://www.w3.org/2000/svg">
<rect x="1" y="1" width="73" height="14" rx="7" stroke="#EDEDED"/>
<rect x="4" y="2.98535" width="67" height="10" rx="5" fill="#EDEDED"/>
<rect x="4" y="2.98535" width="67" height="10" rx="5" fill="#9BE3FF"/>
<rect x="78" y="1" width="34" height="14" rx="7" stroke="#EDEDED"/>
<rect x="80" y="2.98535" width="30" height="10" rx="5" fill="#EDEDED"/>
<rect x="80" y="2.98535" width="30" height="10" rx="5" fill="#9BE3FF"/>
<rect x="116" y="1" width="14" height="14" rx="7" stroke="#EDEDED"/>
<rect x="118" y="3" width="10" height="10" rx="5" fill="#EDEDED"/>
<rect x="118" y="3" width="10" height="10" rx="5" fill="#FF672E"/>
<rect x="134" y="1" width="14" height="14" rx="7" stroke="#EDEDED"/>
<rect x="136" y="3" width="10" height="10" rx="5" fill="#EDEDED"/>
<rect x="136" y="3" width="10" height="10" rx="5" fill="#FF672E"/>
<rect x="152" y="1" width="14" height="14" rx="7" stroke="#EDEDED"/>
<rect x="154" y="3" width="10" height="10" rx="5" fill="#EDEDED"/>
<rect x="154" y="3" width="10" height="10" rx="5" fill="#FF672E"/>
<rect x="170" y="1" width="73" height="14" rx="7" stroke="#EDEDED"/>
<rect x="173" y="2.98535" width="67" height="10" rx="5" fill="#EDEDED"/>
<rect x="173" y="2.98535" width="67" height="10" rx="5" fill="#9BE3FF"/>
<rect x="247" y="1" width="14" height="14" rx="7" stroke="#EDEDED"/>
<rect x="249" y="3" width="10" height="10" rx="5" fill="#EDEDED"/>
<rect x="249" y="3" width="10" height="10" rx="5" fill="#FF672E"/>
<rect x="265" y="1" width="122" height="14" rx="7" stroke="#EDEDED"/>
<rect x="267" y="3" width="118" height="10" rx="5" fill="#EDEDED"/>
<rect x="267" y="3" width="118" height="10" rx="5" fill="#9BE3FF"/>
<rect x="391" y="1" width="14" height="14" rx="7" stroke="#EDEDED"/>
<rect x="393" y="3" width="10" height="10" rx="5" fill="#EDEDED"/>
<rect x="393" y="3" width="10" height="10" rx="5" fill="#FF672E"/>
<rect x="409" y="1" width="14" height="14" rx="7" stroke="#EDEDED"/>
<rect x="411" y="3" width="10" height="10" rx="5" fill="#EDEDED"/>
<rect x="411" y="3" width="10" height="10" rx="5" fill="#FF672E"/>
<rect x="427" y="3" width="657" height="10" rx="5" fill="#EDEDED"/>
<rect x="429" y="3" width="324.5" height="10" rx="5" fill="#EDEDED"/>
<rect x="757.5" y="3" width="324.5" height="10" rx="5" fill="#EDEDED"/>
</svg>
