<svg width="50" height="97" viewBox="0 0 50 97" fill="none" xmlns="http://www.w3.org/2000/svg">
<mask id="mask0_1_49328" style="mask-type:luminance" maskUnits="userSpaceOnUse" x="0" y="0" width="50" height="97">
<path d="M24.239 96.3272C17.8209 96.2508 11.6899 93.6546 7.1688 89.0985C2.6477 84.5424 0.0988394 78.3917 0.072 71.9732C-0.024 56.2158 -0.024 40.4575 0.072 24.6982C0.0888523 18.5663 2.41045 12.6649 6.57603 8.16516C10.7416 3.6654 16.4466 0.896205 22.5589 0.407154C28.6018 -0.106558 34.6211 1.6339 39.4574 5.29329C44.2936 8.95269 47.6048 14.2722 48.753 20.2272C49.0539 21.8793 49.1992 23.5559 49.187 25.2352C49.232 32.9142 49.208 40.5942 49.208 48.2732C49.208 56.0322 49.222 63.7922 49.208 71.5512C49.2463 74.8175 48.6307 78.0586 47.3977 81.0835C46.1646 84.1084 44.339 86.8561 42.0282 89.165C39.7173 91.4738 36.9679 93.297 33.9419 94.5273C30.9158 95.7577 27.6743 96.3703 24.4079 96.3292L24.239 96.3272ZM11.695 30.6672C8.54305 31.0612 7.29495 31.9542 7.09495 33.8862C6.89495 35.8182 7.88697 37.0072 10.495 37.9672V40.0412C8.29497 40.6212 7.23099 41.6642 7.08799 43.3222C6.92899 45.1892 7.78802 46.1972 10.519 47.3662V49.3592C8.10502 50.1112 7.09596 51.1852 7.07896 52.9762C7.06196 54.7672 7.99897 55.7962 10.495 56.6962V58.7702C8.23897 59.3772 7.13295 60.4582 7.09495 62.1702C7.03695 64.5032 8.48505 65.5702 10.523 66.0022V68.0852C8.10105 68.8512 7.10001 69.9172 7.08201 71.7052C7.06401 73.5252 8.05906 74.6052 10.5071 75.4052V77.4822C8.23206 78.1262 7.18301 79.1822 7.08701 80.8822C6.98101 82.7262 7.88701 83.7572 10.53 84.8132V86.8132L8.947 87.3862C18.139 96.8862 33.207 95.3612 40.227 87.3332L38.739 86.8332V84.7332C40.985 84.1252 42.0549 83.0622 42.1679 81.3662C42.2899 79.5032 41.36 78.4262 38.718 77.4062V75.3392C40.95 74.8252 42.08 73.6882 42.171 71.9532C42.271 70.0622 41.214 68.8612 38.734 68.0922V66.0212C41.052 65.3592 42.105 64.2772 42.172 62.5372C42.242 60.7032 41.301 59.6372 38.758 58.6982V56.6232C41.049 56.0282 42.134 54.8872 42.172 53.1022C42.212 51.2522 41.191 50.1262 38.742 49.3602V47.2992C41.085 46.5992 42.1129 45.5312 42.173 43.7912C42.235 41.9802 41.327 40.9622 38.763 39.9672V37.8832C41.044 37.3122 42.2069 36.1522 42.1419 34.3582C42.1024 33.6077 41.8722 32.8798 41.473 32.2432C40.586 30.8602 39.095 30.6632 37.573 30.7902C37.528 29.8312 37.4911 29.0622 37.4501 28.1782L35.021 30.2622L35.808 34.5772C35.157 34.5772 34.801 34.5872 34.446 34.5772C34.091 34.5672 33.758 34.5272 33.446 34.5012C32.546 29.1342 29.6381 26.1292 25.1061 25.8442C23.1702 25.7161 21.2501 26.2655 19.675 27.3982C18.527 28.1992 17.583 29.2584 16.9188 30.4907C16.2547 31.7229 15.889 33.0938 15.8511 34.4932H13.5949C13.5725 34.1885 13.5749 33.8825 13.602 33.5782C13.802 32.4852 14.035 31.3972 14.261 30.2782C13.49 29.6262 12.692 28.9562 11.693 28.1142L11.695 30.6672ZM14.51 15.1622C13.5846 15.9798 12.857 16.997 12.3823 18.137C11.9076 19.277 11.6982 20.51 11.7698 21.7428C11.8413 22.9756 12.192 24.176 12.7954 25.2534C13.3988 26.3308 14.2392 27.2571 15.253 27.9622C16.2664 27.2582 17.1068 26.3335 17.7108 25.2576C18.3148 24.1817 18.6667 22.9827 18.74 21.751C18.8132 20.5193 18.606 19.287 18.1338 18.1471C17.6616 17.0071 16.9368 15.9892 16.014 15.1702C15.8156 14.9581 15.547 14.8252 15.258 14.7962C14.9736 14.8239 14.7089 14.954 14.513 15.1622H14.51ZM33.41 15.0722C32.4516 15.8674 31.6902 16.8737 31.1856 18.0123C30.6811 19.1509 30.4471 20.3908 30.5018 21.635C30.5565 22.8792 30.8985 24.0938 31.5011 25.1837C32.1036 26.2736 32.9504 27.2092 33.975 27.9172C38.392 25.2492 38.7 18.0052 34.497 15.0172C34.358 14.9378 34.1989 14.9003 34.039 14.9092C33.8192 14.901 33.6019 14.9577 33.414 15.0722H33.41ZM24.615 62.3652C23.7071 62.3762 22.8159 62.1209 22.0516 61.6307C21.2873 61.1405 20.6836 60.437 20.315 59.6072C20.0348 59.1181 19.6233 58.7173 19.1271 58.4502C18.3375 58.0691 17.6683 57.4775 17.1935 56.7405C16.7186 56.0034 16.4566 55.1496 16.436 54.2732C17.536 54.1972 18.511 53.7062 19.124 55.2732C19.798 57.0052 22.076 56.9032 23.124 55.1832C22.0207 54.7726 21.1006 53.9808 20.5303 52.951C19.9599 51.9211 19.7768 50.7212 20.014 49.5682H29.114C29.714 51.9222 28.755 53.7502 25.824 55.3592C26.4688 55.8086 27.166 56.178 27.9 56.4592C28.334 56.5878 28.8006 56.5465 29.2052 56.3435C29.6097 56.1404 29.9218 55.791 30.078 55.3662C30.556 53.8012 31.6059 54.1332 32.8089 54.2362C32.7894 55.1205 32.5259 55.9821 32.0475 56.7261C31.5691 57.4701 30.8945 58.0674 30.098 58.4522C29.6041 58.7238 29.1955 59.1275 28.9179 59.6182C28.5479 60.4439 27.9445 61.1434 27.1819 61.6304C26.4192 62.1175 25.5308 62.3708 24.626 62.3592L24.615 62.3652ZM22.598 58.7652C23.834 60.4862 25.546 60.4652 26.62 58.7442L24.615 57.4442C23.929 57.8992 23.303 58.3062 22.602 58.7652H22.598ZM26.395 51.9242H22.836C23.006 52.2492 23.2616 52.5214 23.5753 52.7114C23.889 52.9014 24.2487 53.0019 24.6155 53.0019C24.9822 53.0019 25.342 52.9014 25.6557 52.7114C25.9694 52.5214 26.2251 52.2492 26.395 51.9242ZM14.1629 43.7332C16.4149 43.7332 18.6646 43.7332 20.912 43.7332C20.9497 44.1518 20.9025 44.5738 20.7733 44.9738C20.6441 45.3737 20.4354 45.7435 20.1599 46.061C19.8844 46.3784 19.5476 46.637 19.1698 46.8213C18.792 47.0055 18.3808 47.1116 17.961 47.1332C17.838 47.1442 17.717 47.1492 17.597 47.1492C17.1462 47.1539 16.6988 47.069 16.2811 46.8993C15.8634 46.7295 15.4836 46.4784 15.1638 46.1605C14.844 45.8426 14.5907 45.4643 14.4186 45.0476C14.2464 44.6308 14.1588 44.184 14.161 43.7332H14.1629ZM28.242 43.7262H35.082C35.0912 44.1767 35.0095 44.6245 34.8418 45.0428C34.6741 45.4611 34.4238 45.8412 34.1059 46.1606C33.788 46.48 33.4089 46.7321 32.9914 46.9018C32.5739 47.0714 32.1266 47.1552 31.676 47.1482H31.659C31.2068 47.1591 30.757 47.0781 30.337 46.91C29.917 46.7419 29.5357 46.4902 29.2159 46.1701C28.8962 45.8501 28.6448 45.4685 28.477 45.0483C28.3093 44.6282 28.2286 44.1784 28.24 43.7262H28.242Z" fill="white"/>
</mask>
<g mask="url(#mask0_1_49328)">
<path d="M49.6069 112C68.3846 112 83.6069 96.7777 83.6069 78C83.6069 59.2223 68.3846 44 49.6069 44C30.8293 44 15.6069 59.2223 15.6069 78C15.6069 96.7777 30.8293 112 49.6069 112Z" fill="#A07EFF"/>
<path d="M6.10352e-05 104C18.7777 104 34.0001 88.7777 34.0001 70C34.0001 51.2223 18.7777 36 6.10352e-05 36C-18.7776 36 -33.9999 51.2223 -33.9999 70C-33.9999 88.7777 -18.7776 104 6.10352e-05 104Z" fill="#AB19FF"/>
<path d="M45.6069 62C64.3846 62 79.6069 46.7777 79.6069 28C79.6069 9.22232 64.3846 -6 45.6069 -6C26.8293 -6 11.6069 9.22232 11.6069 28C11.6069 46.7777 26.8293 62 45.6069 62Z" fill="#F5414D"/>
<path d="M11.6069 44C25.4141 44 36.6069 32.8071 36.6069 19C36.6069 5.19288 25.4141 -6 11.6069 -6C-2.20018 -6 -13.3931 5.19288 -13.3931 19C-13.3931 32.8071 -2.20018 44 11.6069 44Z" fill="#1492E6"/>
</g>
</svg>
