<svg width="113" height="156" viewBox="0 0 113 156" fill="none" xmlns="http://www.w3.org/2000/svg">
<mask id="mask0_187_8629" style="mask-type:luminance" maskUnits="userSpaceOnUse" x="-1" y="0" width="79" height="153">
<path d="M38.3655 152C28.2064 151.879 18.5019 147.77 11.3456 140.558C4.18934 133.346 0.154867 123.61 0.112547 113.45C-0.0401198 88.5081 -0.0401198 63.5644 0.112547 38.6191C0.231547 18.3401 15.4325 2.08409 35.7045 0.168085C55.2615 -1.68191 73.3156 11.9311 77.1665 31.5411C77.6427 34.1558 77.8727 36.8094 77.8535 39.4671C77.9245 51.6221 77.8856 63.7791 77.8856 75.9341C77.8856 88.2151 77.9065 100.498 77.8795 112.78C77.9399 117.95 76.9658 123.079 75.0145 127.867C73.0631 132.654 70.1739 137.003 66.5169 140.657C62.86 144.312 58.509 147.198 53.7201 149.146C48.9312 151.094 43.8011 152.064 38.6315 152H38.3655ZM18.5135 48.0681C13.5245 48.6921 11.5545 50.1051 11.2325 53.1681C10.9105 56.2311 12.4865 58.1091 16.6165 59.6271V62.9001C13.1315 63.8171 11.4495 65.4691 11.2225 68.0941C10.9705 71.0491 12.3225 72.6441 16.6525 74.4941V77.6491C12.8315 78.8391 11.2355 80.5401 11.2075 83.3741C11.1795 86.2081 12.6635 87.8371 16.6155 89.2621V92.5441C13.0435 93.5061 11.2935 95.2171 11.2265 97.9321C11.1335 101.625 13.4265 103.32 16.6525 103.998V107.298C12.8195 108.51 11.2355 110.198 11.2065 113.028C11.1785 115.909 12.7535 117.617 16.6275 118.889V122.177C13.0275 123.197 11.3665 124.871 11.2135 127.556C11.0455 130.475 12.4745 132.108 16.6625 133.779V136.949C15.8105 137.257 15.0345 137.537 14.1565 137.856C28.7065 152.89 52.5565 150.479 63.6695 137.772L61.3145 136.984V133.653C64.8705 132.691 66.5625 131.007 66.7415 128.324C66.9355 125.375 65.4625 123.67 61.2815 122.056V118.775C64.8145 117.962 66.6036 116.162 66.7476 113.416C66.9025 110.423 65.2335 108.522 61.3065 107.304V104.026C64.9745 102.979 66.6435 101.265 66.7486 98.5111C66.8596 95.6111 65.3695 93.9281 61.3485 92.4341V89.1521C64.9735 88.2101 66.6926 86.4041 66.7486 83.5791C66.8116 80.6501 65.1955 78.8681 61.3195 77.6561V74.3871C65.0275 73.2791 66.6555 71.5871 66.7505 68.8341C66.8505 65.9681 65.4115 64.3561 61.3505 62.7811V59.4811C64.9615 58.5811 66.8025 56.7411 66.6985 53.9011C66.6361 52.7132 66.2716 51.5608 65.6395 50.5531C64.2395 48.3631 61.8755 48.0531 59.4635 48.2531C59.3925 46.7341 59.3335 45.5181 59.2635 44.1191L55.4185 47.4191L56.6645 54.2501C55.6335 54.2501 55.0705 54.2661 54.5095 54.2441C53.9635 54.2241 53.4195 54.1641 52.9195 54.1241C51.4875 45.6291 46.8915 40.8721 39.7195 40.4241C36.6542 40.2207 33.6137 41.0905 31.1195 42.8841C29.3025 44.152 27.8082 45.8285 26.7569 47.7789C25.7056 49.7293 25.1267 51.8992 25.0665 54.1141H21.5245C21.4889 53.6316 21.4926 53.147 21.5355 52.6651C21.8575 50.9361 22.2205 49.2131 22.5785 47.4411C21.3575 46.4101 20.0955 45.3481 18.5145 44.0151L18.5135 48.0681ZM22.9695 23.5241C21.5053 24.8181 20.3541 26.4279 19.603 28.232C18.8519 30.036 18.5205 31.9871 18.6338 33.9379C18.747 35.8888 19.302 37.7884 20.2568 39.4934C21.2117 41.1984 22.5414 42.6642 24.1455 43.7801C25.7502 42.6664 27.081 41.2028 28.0375 39.4997C28.9941 37.7967 29.5514 35.8987 29.6674 33.9488C29.7835 31.999 29.4552 30.0483 28.7074 28.2438C27.9596 26.4394 26.8118 24.8283 25.3505 23.5321C25.0357 23.1954 24.6092 22.9846 24.1505 22.9391C23.6989 22.9842 23.2791 23.1922 22.9695 23.5241ZM52.8875 23.3821C46.3495 28.3821 46.8515 39.2821 53.7825 43.7141C60.7745 39.4901 61.2615 28.0251 54.6085 23.2921C54.3884 23.1666 54.1366 23.1072 53.8835 23.1211C53.5334 23.1079 53.1862 23.1987 52.8875 23.3821ZM38.9675 98.2421C37.5315 98.2584 36.1221 97.8536 34.9136 97.0776C33.7051 96.3017 32.7504 95.1887 32.1675 93.8761C31.724 93.1017 31.0724 92.4671 30.2865 92.0441C29.0367 91.4408 27.9776 90.5043 27.2259 89.3377C26.4743 88.171 26.0592 86.8195 26.0265 85.4321C27.7715 85.3111 29.3105 84.5321 30.2805 87.0201C31.3475 89.7621 34.9535 89.6001 36.6145 86.8781C32.8325 85.1601 31.1495 82.2451 31.6915 77.9901H46.0915C47.0345 81.7151 45.5235 84.6101 40.8845 87.1571C41.9052 87.8691 43.0086 88.4544 44.1705 88.9001C44.8576 89.1039 45.5966 89.0384 46.2371 88.7168C46.8776 88.3953 47.3715 87.8419 47.6185 87.1691C48.3745 84.6921 50.0375 85.2171 51.9405 85.3801C51.9104 86.7799 51.4936 88.1442 50.7363 89.3219C49.979 90.4996 48.9107 91.4448 47.6495 92.0531C46.8678 92.4835 46.2214 93.1231 45.7825 93.9001C45.1968 95.2072 44.2415 96.3145 43.0343 97.0854C41.8271 97.8564 40.4208 98.2574 38.9885 98.2391L38.9675 98.2421ZM35.7745 92.5421C37.7305 95.2661 40.4405 95.2271 42.1405 92.5091C41.0555 91.8041 39.9685 91.1001 38.9665 90.4501C37.8745 91.1661 36.8845 91.8171 35.7745 92.5441V92.5421ZM41.7745 81.7141H36.1405C37.7645 84.0001 40.3355 83.9781 41.7745 81.7141ZM22.4135 68.7501C25.9775 68.7501 29.5385 68.7501 33.0965 68.7501C33.1564 69.4129 33.0818 70.081 32.8773 70.7143C32.6728 71.3476 32.3427 71.9332 31.9065 72.4359C31.4704 72.9386 30.9373 73.3481 30.3392 73.6399C29.741 73.9317 29.0902 74.0998 28.4255 74.1341C28.2309 74.1514 28.0392 74.1601 27.8505 74.1601C27.1366 74.1679 26.4283 74.0335 25.7669 73.7648C25.1055 73.496 24.5042 73.0983 23.9981 72.5947C23.492 72.0911 23.0913 71.4918 22.8192 70.8317C22.5472 70.1716 22.4093 69.464 22.4135 68.7501ZM44.6995 68.7381H55.5255C55.54 69.4512 55.4106 70.1599 55.1451 70.8219C54.8797 71.4839 54.4835 72.0856 53.9803 72.5911C53.4772 73.0966 52.8773 73.4955 52.2165 73.7641C51.5558 74.0326 50.8477 74.1652 50.1345 74.1541H50.1075C49.3921 74.1708 48.6807 74.0421 48.0165 73.7758C47.3523 73.5094 46.749 73.1109 46.2434 72.6045C45.7377 72.0981 45.3402 71.4943 45.0748 70.8297C44.8094 70.1651 44.6818 69.4535 44.6995 68.7381Z" fill="white"/>
</mask>
<g mask="url(#mask0_187_8629)">
<path d="M78.5192 176.807C108.242 176.807 132.337 152.712 132.337 122.989C132.337 93.266 108.242 69.1709 78.5192 69.1709C48.7963 69.1709 24.7012 93.266 24.7012 122.989C24.7012 152.712 48.7963 176.807 78.5192 176.807Z" fill="#1BEE68"/>
<path d="M-6.95641 162.561C22.7664 162.561 46.8616 138.466 46.8616 108.743C46.8616 79.0199 22.7664 54.9248 -6.95641 54.9248C-36.6793 54.9248 -60.7744 79.0199 -60.7744 108.743C-60.7744 138.466 -36.6793 162.561 -6.95641 162.561Z" fill="#005AFD"/>
<path d="M72.1871 97.6629C101.91 97.6629 126.005 73.5677 126.005 43.8449C126.005 14.122 101.91 -9.97314 72.1871 -9.97314C42.4643 -9.97314 18.3691 14.122 18.3691 43.8449C18.3691 73.5677 42.4643 97.6629 72.1871 97.6629Z" fill="#5FD2FE"/>
<path d="M18.3699 69.1709C40.2249 69.1709 57.9418 51.4539 57.9418 29.5989C57.9418 7.74384 40.2249 -9.97314 18.3699 -9.97314C-3.48516 -9.97314 -21.2021 7.74384 -21.2021 29.5989C-21.2021 51.4539 -3.48516 69.1709 18.3699 69.1709Z" fill="#B9FE5F"/>
</g>
<path d="M78 146C91.8071 146 103 134.807 103 121C103 107.193 91.8071 96 78 96C64.1929 96 53 107.193 53 121C53 134.807 64.1929 146 78 146Z" fill="#FFD900"/>
<path d="M78 151C94.5685 151 108 137.569 108 121C108 104.431 94.5685 91 78 91C61.4315 91 48 104.431 48 121C48 137.569 61.4315 151 78 151Z" stroke="white" stroke-width="10"/>
<path d="M88.74 120.5C88.74 123.1 87.94 125.39 86.34 127.37L88.44 129.59L84.99 132.65L82.74 130.28C81.18 131.04 79.54 131.42 77.82 131.42C74.78 131.42 72.2 130.37 70.08 128.27C67.96 126.17 66.9 123.58 66.9 120.5C66.9 117.42 67.96 114.83 70.08 112.73C72.2 110.63 74.78 109.58 77.82 109.58C80.86 109.58 83.44 110.63 85.56 112.73C87.68 114.83 88.74 117.42 88.74 120.5ZM77.82 126.74C78.26 126.74 78.75 126.69 79.29 126.59L76.26 123.38L79.71 120.32L83.07 123.89C83.65 122.85 83.94 121.72 83.94 120.5C83.94 118.66 83.35 117.16 82.17 116C81.01 114.84 79.56 114.26 77.82 114.26C76.08 114.26 74.62 114.84 73.44 116C72.28 117.16 71.7 118.66 71.7 120.5C71.7 122.34 72.28 123.84 73.44 125C74.62 126.16 76.08 126.74 77.82 126.74Z" fill="#0A0A0C"/>
</svg>
