<svg width="34" height="65" viewBox="0 0 34 65" fill="none" xmlns="http://www.w3.org/2000/svg">
<mask id="mask0_1_61713" style="mask-type:luminance" maskUnits="userSpaceOnUse" x="0" y="0" width="34" height="65">
<path d="M16.613 64.9973C12.2141 64.9457 8.01204 63.188 4.91336 60.1036C1.81468 57.0191 0.0677427 52.8551 0.0493475 48.5098C-0.0164492 37.8421 -0.0164492 27.1737 0.0493475 16.5047C0.0608977 12.3535 1.65208 8.35825 4.50709 5.31193C7.36209 2.26561 11.2722 0.390869 15.4615 0.0597832C19.6032 -0.287999 23.7287 0.890286 27.0433 3.36768C30.358 5.84508 32.6274 9.44636 33.4144 13.4779C33.6206 14.5963 33.7202 15.7314 33.7118 16.8683C33.7427 22.0669 33.7262 27.2663 33.7262 32.4649C33.7262 37.7177 33.7358 42.9712 33.7262 48.2241C33.7525 50.4354 33.3306 52.6295 32.4855 54.6774C31.6404 56.7253 30.3891 58.5855 28.8053 60.1485C27.2215 61.7116 25.3371 62.9459 23.2631 63.7789C21.1891 64.6118 18.9674 65.0266 16.7287 64.9987L16.613 64.9973ZM8.01557 20.5457C5.85524 20.8124 4.99982 21.417 4.86275 22.725C4.72567 24.0329 5.40558 24.8379 7.19306 25.4878V26.8919C5.68522 27.2845 4.95599 27.9906 4.85798 29.1131C4.749 30.3771 5.33776 31.0595 7.20954 31.8509V33.2001C5.55503 33.7092 4.86344 34.4363 4.85179 35.6488C4.84013 36.8613 5.48235 37.558 7.19306 38.1673V39.5714C5.64684 39.9823 4.88879 40.7141 4.86275 41.8731C4.82299 43.4526 5.81549 44.1749 7.2123 44.4674V45.8776C5.55231 46.3962 4.86621 47.1178 4.85388 48.3283C4.84154 49.5604 5.52353 50.2916 7.20134 50.8332V52.2393C5.6421 52.6753 4.9231 53.3902 4.85731 54.5411C4.78466 55.7895 5.40561 56.4875 7.21707 57.2024V58.5564L6.13211 58.9443C12.4321 65.3758 22.7595 64.3434 27.5709 58.9084L26.551 58.5699V57.1482C28.0903 56.7366 28.8237 56.017 28.9011 54.8688C28.9847 53.6075 28.3474 52.8784 26.5366 52.1879V50.7885C28.0664 50.4405 28.8408 49.6708 28.9032 48.4962C28.9718 47.216 28.2473 46.4029 26.5476 45.8823V44.4803C28.1363 44.0321 28.858 43.2996 28.9039 42.1216C28.9519 40.88 28.307 40.1583 26.564 39.5226V38.1178C28.1342 37.715 28.8778 36.9426 28.9039 35.7341C28.9313 34.4817 28.2316 33.7194 26.5531 33.2008V31.8055C28.1589 31.3316 28.8634 30.6086 28.9046 29.4306C28.947 28.2046 28.3248 27.5154 26.5675 26.8418V25.4309C28.1308 25.0444 28.9279 24.259 28.8833 23.0445C28.8562 22.5365 28.6985 22.0437 28.4248 21.6127C27.8169 20.6764 26.795 20.543 25.7518 20.629C25.721 19.9797 25.6957 19.4591 25.6676 18.8607L24.0027 20.2715L24.5421 23.1928C24.0959 23.1928 23.852 23.1995 23.6087 23.1928C23.3653 23.186 23.1371 23.1589 22.9233 23.1413C22.3064 19.5079 20.3134 17.4735 17.2072 17.2806C15.8804 17.1939 14.5644 17.5658 13.4849 18.3326C12.6981 18.8749 12.051 19.592 11.5958 20.4262C11.1406 21.2605 10.89 22.1886 10.864 23.1359H9.31772C9.30232 22.9296 9.30398 22.7225 9.32258 22.5164C9.45965 21.7765 9.6193 21.0399 9.7742 20.2824C9.24577 19.841 8.69884 19.3874 8.01414 18.8173L8.01557 20.5457ZM9.94487 10.0489C9.31061 10.6024 8.81196 11.2911 8.4866 12.0629C8.16124 12.8346 8.01772 13.6693 8.06677 14.5039C8.11582 15.3385 8.35614 16.1512 8.76972 16.8806C9.1833 17.61 9.7593 18.2371 10.4541 18.7144C11.1487 18.2379 11.7247 17.6118 12.1386 16.8834C12.5526 16.155 12.7938 15.3433 12.844 14.5095C12.8942 13.6756 12.7522 12.8414 12.4285 12.0697C12.1049 11.2979 11.6082 10.6088 10.9757 10.0543C10.8397 9.91074 10.6556 9.82078 10.4576 9.80109C10.2626 9.81988 10.0812 9.90793 9.94697 10.0489H9.94487ZM22.8986 9.98794C22.2417 10.5263 21.7199 11.2076 21.3741 11.9784C21.0283 12.7492 20.8679 13.5887 20.9054 14.431C20.9429 15.2733 21.1773 16.0956 21.5903 16.8334C22.0032 17.5713 22.5836 18.2047 23.2858 18.684C26.3131 16.8777 26.5243 11.9736 23.6436 9.95071C23.5483 9.89701 23.4393 9.87162 23.3297 9.87759C23.1791 9.87207 23.0301 9.91044 22.9014 9.98794H22.8986ZM16.8706 42.0052C16.2484 42.0127 15.6376 41.8398 15.1138 41.5079C14.5899 41.1761 14.1762 40.6998 13.9235 40.138C13.7315 39.8069 13.4495 39.5356 13.1093 39.3547C12.5682 39.0967 12.1095 38.6962 11.7841 38.1973C11.4586 37.6983 11.279 37.1203 11.2649 36.5269C12.0189 36.4755 12.6871 36.143 13.1072 37.2039C13.5692 38.3765 15.1305 38.3074 15.8488 37.143C15.0926 36.865 14.462 36.329 14.0711 35.6318C13.6801 34.9346 13.5546 34.1223 13.7172 33.3416H19.9542C20.3654 34.9353 19.7081 36.1728 17.6993 37.2621C18.1412 37.5664 18.6191 37.8164 19.1221 38.0068C19.4196 38.0939 19.7394 38.0659 20.0167 37.9285C20.294 37.791 20.5078 37.5545 20.6149 37.2669C20.9425 36.2074 21.6621 36.4321 22.4866 36.5019C22.4732 37.1005 22.2926 37.6839 21.9647 38.1876C21.6368 38.6912 21.1745 39.0956 20.6286 39.3561C20.2901 39.54 20.01 39.8133 19.8198 40.1454C19.5662 40.7045 19.1526 41.178 18.6299 41.5077C18.1073 41.8375 17.4983 42.009 16.8782 42.0011L16.8706 42.0052ZM15.4882 39.568C16.3354 40.7331 17.5087 40.7189 18.2448 39.5538L16.8706 38.6737C16.4005 38.9817 15.9715 39.2572 15.491 39.568H15.4882ZM18.0906 34.9366H15.6514C15.7678 35.1567 15.9431 35.341 16.1581 35.4696C16.3731 35.5982 16.6196 35.6662 16.871 35.6662C17.1223 35.6662 17.369 35.5982 17.584 35.4696C17.799 35.341 17.9742 35.1567 18.0906 34.9366ZM9.70702 29.3914C11.2505 29.3914 12.7924 29.3914 14.3327 29.3914C14.3585 29.6748 14.3262 29.9604 14.2376 30.2312C14.1491 30.502 14.0061 30.7524 13.8172 30.9673C13.6284 31.1822 13.3976 31.3573 13.1386 31.482C12.8797 31.6067 12.5979 31.6785 12.3102 31.6931C12.2259 31.7006 12.1429 31.704 12.0607 31.704C11.7517 31.7072 11.4451 31.6497 11.1588 31.5348C10.8725 31.4199 10.6121 31.2499 10.393 31.0347C10.1738 30.8195 10.0002 30.5633 9.88221 30.2812C9.76421 29.9991 9.70421 29.6966 9.70568 29.3914H9.70702ZM19.3566 29.3866H24.0446C24.0509 29.6916 23.9948 29.9948 23.8799 30.278C23.765 30.5611 23.5935 30.8185 23.3756 31.0348C23.1577 31.251 22.8978 31.4216 22.6117 31.5365C22.3256 31.6514 22.019 31.7081 21.7101 31.7033H21.6985C21.3886 31.7107 21.0803 31.6559 20.7924 31.5421C20.5046 31.4282 20.2432 31.2578 20.024 31.0412C19.8049 30.8245 19.6326 30.5661 19.5176 30.2817C19.4026 29.9973 19.3473 29.6928 19.3551 29.3866H19.3566Z" fill="white"/>
</mask>
<g mask="url(#mask0_1_61713)">
<path d="M34.6858 75.6076C47.5557 75.6076 57.9887 65.3021 57.9887 52.5897C57.9887 39.8772 47.5557 29.5718 34.6858 29.5718C21.8159 29.5718 11.3828 39.8772 11.3828 52.5897C11.3828 65.3021 21.8159 75.6076 34.6858 75.6076Z" fill="#C4C4C4"/>
<path d="M0.416246 70.4076C13.2861 70.4076 23.7192 60.1022 23.7192 47.3897C23.7192 34.6773 13.2861 24.3718 0.416246 24.3718C-12.4536 24.3718 -22.8867 34.6773 -22.8867 47.3897C-22.8867 60.1022 -12.4536 70.4076 0.416246 70.4076Z" fill="#7B7B7E"/>
<path d="M31.9436 41.758C44.8135 41.758 55.2466 31.4525 55.2466 18.7401C55.2466 6.02763 44.8135 -4.27783 31.9436 -4.27783C19.0737 -4.27783 8.64062 6.02763 8.64062 18.7401C8.64062 31.4525 19.0737 41.758 31.9436 41.758Z" fill="#9FA1B2"/>
<path d="M8.64039 29.572C18.1035 29.572 25.7749 21.9945 25.7749 12.6471C25.7749 3.29971 18.1035 -4.27783 8.64039 -4.27783C-0.822749 -4.27783 -8.49414 3.29971 -8.49414 12.6471C-8.49414 21.9945 -0.822749 29.572 8.64039 29.572Z" fill="#D2D3D9"/>
</g>
</svg>
