<svg width="34" height="66" viewBox="0 0 34 66" fill="none" xmlns="http://www.w3.org/2000/svg">
<mask id="mask0_238_8844" style="mask-type:luminance" maskUnits="userSpaceOnUse" x="0" y="0" width="34" height="66">
<path d="M16.613 65.4973C12.2141 65.4457 8.01204 63.688 4.91336 60.6036C1.81468 57.5191 0.0677427 53.3551 0.0493475 49.0098C-0.0164492 38.3421 -0.0164492 27.6737 0.0493475 17.0047C0.0608977 12.8535 1.65208 8.85825 4.50709 5.81193C7.36209 2.76561 11.2722 0.890869 15.4615 0.559783C19.6032 0.212001 23.7287 1.39029 27.0433 3.86768C30.358 6.34508 32.6274 9.94636 33.4144 13.9779C33.6206 15.0963 33.7202 16.2314 33.7118 17.3683C33.7427 22.5669 33.7262 27.7663 33.7262 32.9649C33.7262 38.2177 33.7358 43.4712 33.7262 48.7241C33.7525 50.9354 33.3306 53.1295 32.4855 55.1774C31.6404 57.2253 30.3891 59.0855 28.8053 60.6485C27.2215 62.2116 25.3371 63.4459 23.2631 64.2789C21.1891 65.1118 18.9674 65.5266 16.7287 65.4987L16.613 65.4973ZM8.01557 21.0457C5.85524 21.3124 4.99982 21.917 4.86275 23.225C4.72567 24.5329 5.40558 25.3379 7.19306 25.9878V27.3919C5.68522 27.7845 4.95599 28.4906 4.85798 29.6131C4.749 30.8771 5.33776 31.5595 7.20954 32.3509V33.7001C5.55503 34.2092 4.86344 34.9363 4.85179 36.1488C4.84013 37.3613 5.48235 38.058 7.19306 38.6673V40.0714C5.64684 40.4823 4.88879 41.2141 4.86275 42.3731C4.82299 43.9526 5.81549 44.6749 7.2123 44.9674V46.3776C5.55231 46.8962 4.86621 47.6178 4.85388 48.8283C4.84154 50.0604 5.52353 50.7916 7.20134 51.3332V52.7393C5.6421 53.1753 4.9231 53.8902 4.85731 55.0411C4.78466 56.2895 5.40561 56.9875 7.21707 57.7024V59.0564L6.13211 59.4443C12.4321 65.8758 22.7595 64.8434 27.5709 59.4084L26.551 59.0699V57.6482C28.0903 57.2366 28.8237 56.517 28.9011 55.3688C28.9847 54.1075 28.3474 53.3784 26.5366 52.6879V51.2885C28.0664 50.9405 28.8408 50.1708 28.9032 48.9962C28.9718 47.716 28.2473 46.9029 26.5475 46.3823V44.9803C28.1363 44.5321 28.858 43.7996 28.9039 42.6216C28.9519 41.38 28.307 40.6583 26.564 40.0226V38.6178C28.1342 38.215 28.8778 37.4426 28.9039 36.2341C28.9313 34.9817 28.2316 34.2194 26.5531 33.7008V32.3055C28.1589 31.8316 28.8634 31.1086 28.9046 29.9306C28.947 28.7046 28.3248 28.0154 26.5675 27.3418V25.9309C28.1308 25.5444 28.9279 24.759 28.8833 23.5445C28.8562 23.0365 28.6985 22.5437 28.4248 22.1127C27.8169 21.1764 26.795 21.043 25.7518 21.129C25.721 20.4797 25.6957 19.9591 25.6676 19.3607L24.0027 20.7715L24.5421 23.6928C24.0959 23.6928 23.852 23.6995 23.6087 23.6928C23.3653 23.686 23.1371 23.6589 22.9233 23.6413C22.3064 20.0079 20.3134 17.9735 17.2072 17.7806C15.8804 17.6939 14.5644 18.0658 13.4849 18.8326C12.6981 19.3749 12.051 20.092 11.5958 20.9262C11.1406 21.7605 10.89 22.6886 10.864 23.6359H9.31772C9.30232 23.4296 9.30398 23.2225 9.32258 23.0164C9.45965 22.2765 9.6193 21.5399 9.7742 20.7824C9.24577 20.341 8.69884 19.8874 8.01414 19.3173L8.01557 21.0457ZM9.94487 10.5489C9.31062 11.1024 8.81196 11.7911 8.4866 12.5629C8.16124 13.3346 8.01772 14.1693 8.06677 15.0039C8.11582 15.8385 8.35614 16.6512 8.76972 17.3806C9.1833 18.11 9.7593 18.7371 10.4541 19.2144C11.1487 18.7379 11.7247 18.1118 12.1386 17.3834C12.5526 16.655 12.7938 15.8433 12.844 15.0095C12.8942 14.1756 12.7522 13.3414 12.4285 12.5697C12.1049 11.7979 11.6082 11.1088 10.9757 10.5543C10.8397 10.4107 10.6556 10.3208 10.4576 10.3011C10.2626 10.3199 10.0812 10.4079 9.94697 10.5489H9.94487ZM22.8986 10.4879C22.2417 11.0263 21.7199 11.7076 21.3741 12.4784C21.0283 13.2492 20.8679 14.0887 20.9054 14.931C20.9429 15.7733 21.1773 16.5956 21.5902 17.3334C22.0032 18.0713 22.5836 18.7047 23.2858 19.184C26.3131 17.3777 26.5243 12.4736 23.6436 10.4507C23.5483 10.397 23.4393 10.3716 23.3297 10.3776C23.1791 10.3721 23.0301 10.4104 22.9014 10.4879H22.8986ZM16.8706 42.5052C16.2484 42.5127 15.6376 42.3398 15.1138 42.0079C14.5899 41.6761 14.1762 41.1998 13.9236 40.638C13.7315 40.3069 13.4495 40.0356 13.1093 39.8547C12.5682 39.5967 12.1095 39.1962 11.7841 38.6973C11.4586 38.1983 11.279 37.6203 11.2649 37.0269C12.0189 36.9755 12.6871 36.643 13.1072 37.7039C13.5692 38.8765 15.1305 38.8074 15.8488 37.643C15.0926 37.365 14.462 36.829 14.0711 36.1318C13.6801 35.4346 13.5546 34.6223 13.7172 33.8416H19.9542C20.3654 35.4353 19.7081 36.6728 17.6993 37.7621C18.1412 38.0664 18.6191 38.3164 19.1221 38.5068C19.4196 38.5939 19.7394 38.5659 20.0167 38.4285C20.294 38.291 20.5078 38.0545 20.6149 37.7669C20.9425 36.7074 21.6621 36.9321 22.4866 37.0019C22.4732 37.6005 22.2926 38.1839 21.9647 38.6876C21.6368 39.1912 21.1745 39.5956 20.6286 39.8561C20.2901 40.04 20.01 40.3133 19.8198 40.6454C19.5662 41.2045 19.1526 41.678 18.6299 42.0077C18.1073 42.3375 17.4983 42.509 16.8782 42.5011L16.8706 42.5052ZM15.4882 40.068C16.3354 41.2331 17.5087 41.2189 18.2448 40.0538L16.8706 39.1737C16.4005 39.4817 15.9715 39.7572 15.491 40.068H15.4882ZM18.0906 35.4366H15.6514C15.7678 35.6567 15.9431 35.841 16.1581 35.9696C16.3731 36.0982 16.6196 36.1662 16.871 36.1662C17.1223 36.1662 17.369 36.0982 17.584 35.9696C17.799 35.841 17.9742 35.6567 18.0906 35.4366ZM9.70702 29.8914C11.2505 29.8914 12.7924 29.8914 14.3327 29.8914C14.3585 30.1748 14.3262 30.4604 14.2376 30.7312C14.1491 31.002 14.0061 31.2524 13.8172 31.4673C13.6284 31.6822 13.3976 31.8573 13.1386 31.982C12.8797 32.1067 12.5979 32.1785 12.3102 32.1931C12.2259 32.2006 12.1429 32.204 12.0607 32.204C11.7517 32.2072 11.4451 32.1497 11.1588 32.0348C10.8725 31.9199 10.6121 31.7499 10.393 31.5347C10.1738 31.3195 10.0002 31.0633 9.88221 30.7812C9.76421 30.4991 9.70421 30.1966 9.70568 29.8914H9.70702ZM19.3566 29.8866H24.0446C24.0509 30.1916 23.9948 30.4948 23.8799 30.778C23.765 31.0611 23.5935 31.3185 23.3756 31.5348C23.1577 31.751 22.8978 31.9216 22.6117 32.0365C22.3256 32.1514 22.019 32.2081 21.7101 32.2033H21.6985C21.3886 32.2107 21.0803 32.1559 20.7924 32.0421C20.5046 31.9282 20.2432 31.7578 20.024 31.5412C19.8049 31.3245 19.6326 31.0661 19.5176 30.7817C19.4026 30.4973 19.3473 30.1928 19.3551 29.8866H19.3566Z" fill="white"/>
</mask>
<g mask="url(#mask0_238_8844)">
<path d="M34.6853 76.1076C47.5552 76.1076 57.9883 65.8021 57.9883 53.0897C57.9883 40.3772 47.5552 30.0718 34.6853 30.0718C21.8154 30.0718 11.3823 40.3772 11.3823 53.0897C11.3823 65.8021 21.8154 76.1076 34.6853 76.1076Z" fill="#6C6F89"/>
<path d="M0.416246 70.9074C13.2861 70.9074 23.7192 60.6019 23.7192 47.8895C23.7192 35.177 13.2861 24.8716 0.416246 24.8716C-12.4536 24.8716 -22.8867 35.177 -22.8867 47.8895C-22.8867 60.6019 -12.4536 70.9074 0.416246 70.9074Z" fill="#A07EFF"/>
<path d="M31.9436 42.258C44.8135 42.258 55.2466 31.9525 55.2466 19.2401C55.2466 6.52763 44.8135 -3.77783 31.9436 -3.77783C19.0737 -3.77783 8.64062 6.52763 8.64062 19.2401C8.64062 31.9525 19.0737 42.258 31.9436 42.258Z" fill="#222329"/>
<path d="M8.64088 30.072C18.104 30.072 25.7754 22.4945 25.7754 13.1471C25.7754 3.79971 18.104 -3.77783 8.64088 -3.77783C-0.822261 -3.77783 -8.49365 3.79971 -8.49365 13.1471C-8.49365 22.4945 -0.822261 30.072 8.64088 30.072Z" fill="#9FA1B2"/>
</g>
</svg>
