<svg width="30" height="30" viewBox="0 0 30 30" fill="none" xmlns="http://www.w3.org/2000/svg">
<path d="M27.0875 8.68726C26.2875 5.97476 24.025 3.71226 21.3125 2.91226C19.25 2.31226 17.825 2.36226 16.8375 3.09976C15.65 3.98726 15.5125 5.58726 15.5125 6.72476V9.83726C15.5125 12.9123 16.9125 14.4748 19.6625 14.4748H23.25C24.375 14.4748 25.9875 14.3373 26.875 13.1498C27.6375 12.1748 27.7 10.7498 27.0875 8.68726Z" fill="#9FA1B2"/>
<path d="M23.6374 16.7004C23.3124 16.3254 22.8374 16.1129 22.3499 16.1129H17.8749C15.6749 16.1129 13.8874 14.3254 13.8874 12.1254V7.65043C13.8874 7.16293 13.6749 6.68793 13.2999 6.36293C12.9374 6.03793 12.4374 5.88793 11.9624 5.95043C9.02487 6.32543 6.32487 7.93793 4.56237 10.3629C2.78737 12.8004 2.13737 15.7754 2.69987 18.7504C3.51237 23.0504 6.94987 26.4879 11.2624 27.3004C11.9499 27.4379 12.6374 27.5004 13.3249 27.5004C15.5874 27.5004 17.7749 26.8004 19.6374 25.4379C22.0624 23.6754 23.6749 20.9754 24.0499 18.0379C24.1124 17.5504 23.9624 17.0629 23.6374 16.7004Z" fill="#9FA1B2"/>
</svg>
