<svg width="30" height="30" viewBox="0 0 30 30" fill="none" xmlns="http://www.w3.org/2000/svg">
<path d="M15.8473 24.9462C16.1907 25.0261 16.2222 25.4759 15.8877 25.5874L13.9127 26.2374C8.95018 27.8374 6.33768 26.4999 4.72518 21.5374L3.12518 16.5999C1.52518 11.6374 2.85018 9.0124 7.81268 7.4124L8.72168 7.11137C9.12454 6.97795 9.5131 7.38068 9.39241 7.78753C9.29451 8.11756 9.20217 8.46751 9.11268 8.8374L7.88768 14.0749C6.51268 19.9624 8.52518 23.2124 14.4127 24.6124L15.8473 24.9462Z" fill="#9FA1B2"/>
<path d="M21.4625 4.01263L19.375 3.52513C15.2 2.53763 12.7125 3.35013 11.25 6.37513C10.875 7.13763 10.575 8.06263 10.325 9.12513L9.09998 14.3626C7.87498 19.5876 9.48748 22.1626 14.7 23.4001L16.8 23.9001C17.525 24.0751 18.2 24.1876 18.825 24.2376C22.725 24.6126 24.8 22.7876 25.85 18.2751L27.075 13.0501C28.3 7.82513 26.7 5.23763 21.4625 4.01263ZM19.1125 16.6626C19 17.0876 18.625 17.3626 18.2 17.3626C18.125 17.3626 18.05 17.3501 17.9625 17.3376L14.325 16.4126C13.825 16.2876 13.525 15.7751 13.65 15.2751C13.775 14.7751 14.2875 14.4751 14.7875 14.6001L18.425 15.5251C18.9375 15.6501 19.2375 16.1626 19.1125 16.6626ZM22.775 12.4376C22.6625 12.8626 22.2875 13.1376 21.8625 13.1376C21.7875 13.1376 21.7125 13.1251 21.625 13.1126L15.5625 11.5751C15.0625 11.4501 14.7625 10.9376 14.8875 10.4376C15.0125 9.93763 15.525 9.63763 16.025 9.76263L22.0875 11.3001C22.6 11.4126 22.9 11.9251 22.775 12.4376Z" fill="#9FA1B2"/>
</svg>
