<svg width="30" height="31" viewBox="0 0 30 31" fill="none" xmlns="http://www.w3.org/2000/svg">
<path d="M20 3H10C6.55 3 3.75 5.8 3.75 9.25V21.75C3.75 25.2 6.55 28 10 28H20C23.45 28 26.25 25.2 26.25 21.75V9.25C26.25 5.8 23.45 3 20 3ZM11.075 23.7875C10.8375 24.025 10.525 24.15 10.2 24.15C9.8625 24.15 9.55 24.025 9.3125 23.7875C9.075 23.55 8.9375 23.2375 8.9375 22.9C8.9375 22.575 9.075 22.25 9.3125 22.0125C9.425 21.9 9.5625 21.8125 9.7125 21.75C10.025 21.625 10.3625 21.625 10.675 21.75C10.75 21.775 10.825 21.8125 10.8875 21.8625C10.9625 21.9 11.025 21.9625 11.075 22.0125C11.3125 22.25 11.45 22.575 11.45 22.9C11.45 23.2375 11.3125 23.55 11.075 23.7875ZM8.9375 17.9C8.9375 17.7375 8.975 17.575 9.0375 17.425C9.1 17.2625 9.1875 17.1375 9.3125 17.0125C9.6 16.725 10.0375 16.5875 10.4375 16.675C10.5125 16.6875 10.6 16.7125 10.675 16.75C10.75 16.775 10.825 16.8125 10.8875 16.8625C10.9625 16.9 11.025 16.9625 11.075 17.0125C11.1875 17.1375 11.2875 17.2625 11.35 17.425C11.4125 17.575 11.4375 17.7375 11.4375 17.9C11.4375 18.2375 11.3125 18.55 11.075 18.7875C10.8375 19.025 10.525 19.15 10.2 19.15C10.025 19.15 9.8625 19.1125 9.7125 19.05C9.5625 18.9875 9.425 18.9 9.3125 18.7875C9.075 18.55 8.9375 18.2375 8.9375 17.9ZM16.075 23.7875C15.9625 23.9 15.825 23.9875 15.675 24.05C15.525 24.1125 15.3625 24.15 15.1875 24.15C14.8625 24.15 14.55 24.025 14.3125 23.7875C14.075 23.55 13.9375 23.2375 13.9375 22.9C13.9375 22.8125 13.95 22.7375 13.9625 22.65C13.9875 22.575 14.0125 22.5 14.0375 22.425C14.075 22.35 14.1125 22.275 14.15 22.2C14.2 22.1375 14.25 22.075 14.3125 22.0125C14.425 21.9 14.5625 21.8125 14.7125 21.75C15.175 21.5625 15.725 21.6625 16.075 22.0125C16.3125 22.25 16.4375 22.575 16.4375 22.9C16.4375 23.2375 16.3125 23.55 16.075 23.7875ZM16.075 18.7875C15.8375 19.025 15.525 19.15 15.1875 19.15C14.8625 19.15 14.55 19.025 14.3125 18.7875C14.075 18.55 13.9375 18.2375 13.9375 17.9C13.9375 17.575 14.075 17.25 14.3125 17.0125C14.775 16.55 15.6125 16.55 16.075 17.0125C16.1875 17.1375 16.2875 17.2625 16.35 17.425C16.4125 17.575 16.4375 17.7375 16.4375 17.9C16.4375 18.2375 16.3125 18.55 16.075 18.7875ZM11.25 13.575C9.9625 13.575 8.9 12.525 8.9 11.225V9.975C8.9 8.6875 9.95 7.625 11.25 7.625H18.75C20.0375 7.625 21.1 8.675 21.1 9.975V11.225C21.1 12.5125 20.05 13.575 18.75 13.575H11.25ZM21.075 23.7875C20.8375 24.025 20.525 24.15 20.1875 24.15C20.025 24.15 19.8625 24.1125 19.7125 24.05C19.5625 23.9875 19.425 23.9 19.3125 23.7875C19.075 23.55 18.95 23.2375 18.95 22.9C18.95 22.575 19.075 22.25 19.3125 22.0125C19.65 21.6625 20.2125 21.5625 20.675 21.75C20.825 21.8125 20.9625 21.9 21.075 22.0125C21.3125 22.25 21.4375 22.575 21.4375 22.9C21.4375 23.2375 21.3125 23.55 21.075 23.7875ZM21.35 18.375C21.2875 18.525 21.2 18.6625 21.075 18.7875C20.8375 19.025 20.525 19.15 20.1875 19.15C19.8625 19.15 19.55 19.025 19.3125 18.7875C19.075 18.55 18.9375 18.2375 18.9375 17.9C18.9375 17.575 19.075 17.25 19.3125 17.0125C19.775 16.55 20.6125 16.55 21.075 17.0125C21.3125 17.25 21.45 17.575 21.45 17.9C21.45 18.0625 21.4125 18.225 21.35 18.375Z" fill="#9FA1B2"/>
</svg>
