<svg width="40" height="40" viewBox="0 0 40 40" fill="none" xmlns="http://www.w3.org/2000/svg">
<path d="M20 35C28.2843 35 35 28.2843 35 20C35 11.7157 28.2843 5 20 5C11.7157 5 5 11.7157 5 20C5 28.2843 11.7157 35 20 35Z" fill="#FEFE5F"/>
<path d="M20 37.5C29.665 37.5 37.5 29.665 37.5 20C37.5 10.335 29.665 2.5 20 2.5C10.335 2.5 2.5 10.335 2.5 20C2.5 29.665 10.335 37.5 20 37.5Z" stroke="white" stroke-width="5"/>
<path d="M18.9205 20.5L18.3805 16V12.4H21.6205V16L21.0805 20.5H18.9205ZM21.2065 24.748C20.8705 25.084 20.4685 25.252 20.0005 25.252C19.5325 25.252 19.1305 25.084 18.7945 24.748C18.4585 24.412 18.2905 24.01 18.2905 23.542C18.2905 23.074 18.4585 22.672 18.7945 22.336C19.1305 22 19.5325 21.832 20.0005 21.832C20.4685 21.832 20.8705 22 21.2065 22.336C21.5425 22.672 21.7105 23.074 21.7105 23.542C21.7105 24.01 21.5425 24.412 21.2065 24.748Z" fill="#0A0A0C"/>
</svg>
