<svg width="224" height="244" viewBox="0 0 224 244" fill="none" xmlns="http://www.w3.org/2000/svg">
<path d="M32.8116 210.274C10.3509 206.3 0.831713 185.35 10.8039 167.979C13.7186 162.993 17.1381 158.32 21.0083 154.033C27.4341 146.795 33.9584 139.648 40.4101 132.439C41.128 131.637 41.699 130.974 42.9475 131.427C53.7264 135.344 63.2537 140.926 69.2837 151.161C72.3771 156.409 72.3362 156.435 68.38 160.768C66.7199 162.586 64.9236 164.295 63.4194 166.236C62.2797 167.707 61.3217 167.659 59.7983 166.89C56.2386 165.095 52.5847 163.486 48.9485 161.846C48.3352 161.569 47.5238 160.596 46.9838 161.572C46.2832 162.841 47.7906 162.854 48.3811 163.132C59.2109 168.222 70.0627 173.267 80.9363 178.267C82.7205 179.047 84.232 180.34 85.2782 181.983C86.8013 184.336 88.4842 186.586 90.1203 188.864C90.4462 189.318 90.7126 189.995 91.4876 189.727C92.1497 189.498 91.9705 188.906 91.9273 188.423C91.5889 184.61 93.2929 181.56 95.4167 178.597C98.2868 174.593 101.022 170.493 104.925 167.366C105.858 166.484 107.047 165.921 108.321 165.758C110.086 165.658 111.3 167.214 111.072 169.244C110.804 171.274 110.109 173.223 109.034 174.965C107.847 176.842 107.205 179.012 107.18 181.232C107.245 188.154 112.112 192.049 118.829 190.508C121.676 189.976 124.395 188.906 126.841 187.355C129.41 185.591 130.124 183.832 129.42 180.805C129.055 179.235 128.578 177.694 128.174 176.131C127.851 174.885 128.002 173.757 129.149 172.962C129.649 172.625 130.243 172.455 130.846 172.475C131.449 172.496 132.031 172.706 132.507 173.075C134.356 174.324 135.77 176.117 136.551 178.206C138.739 183.412 139.304 189.158 138.172 194.691C137.206 199.734 134.101 202.577 128.89 203.501C105.148 207.648 81.1313 210.025 57.0372 210.613C48.1283 210.853 39.2138 211.552 32.8102 210.277" fill="#F7F8F9"/>
<path d="M174.824 105.177C179.079 100.895 184.984 99.8425 189.628 103.19C197.035 108.528 202.344 115.387 202.871 125.048C203.152 130.224 201.318 134.906 199.674 139.629C194.927 153.264 190.198 166.907 185.321 180.496C181.628 190.819 176.545 200.591 170.212 209.541C166.435 214.879 161.147 217.097 154.645 215.751C148.177 214.412 144.513 210.299 142.642 203.991C140.404 196.444 139.868 189.182 143.526 181.903C144.625 179.716 144.797 177.167 144.94 174.686C145.243 169.428 143.488 167.653 138.383 168.203C138.435 166.162 139.216 165.017 141.346 164.209C151.332 160.422 158.244 153.422 162.035 143.395C162.333 142.609 162.658 141.833 163.026 140.911C164.509 141.903 163.591 142.946 163.244 143.773C160.125 151.115 156.946 158.43 153.784 165.755C153.696 165.9 153.622 166.053 153.564 166.213C153.442 166.808 152.678 167.55 153.583 167.969C154.489 168.389 154.64 167.471 154.901 166.861C156.237 163.741 157.58 160.623 158.927 157.508C161.014 152.678 163.105 147.85 165.232 142.936C167.533 144.403 169.71 145.881 172.296 146.528C172.829 146.661 173.509 147.153 173.825 146.342C174.156 145.492 173.282 145.399 172.8 145.228C169.739 144.179 166.946 142.471 164.617 140.226C163.612 139.26 163.531 138.323 163.744 137.046C165.087 129.63 163.94 121.977 160.48 115.28C160.152 114.745 159.998 114.122 160.039 113.495C160.08 112.869 160.313 112.27 160.708 111.782C161.588 110.397 162.737 109.202 164.087 108.268C165.437 107.334 166.96 106.68 168.567 106.345C170.174 106.009 171.831 105.999 173.442 106.316C175.053 106.632 176.584 107.267 177.945 108.185C178.658 108.588 179.22 109.212 179.546 109.964C179.872 110.715 179.944 111.553 179.751 112.349C179.607 113.199 179.177 113.974 178.533 114.548C177.889 115.121 177.069 115.459 176.208 115.504C173.088 115.847 169.968 116.198 166.849 116.555C166.211 116.629 165.191 116.497 165.259 117.378C165.342 118.473 166.41 117.975 167.093 118.02C167.348 118.016 167.602 117.977 167.847 117.905C169.991 117.446 171.394 117.428 170.99 120.511C170.615 123.372 172.59 125.431 174.87 126.939C175.855 127.575 176.646 128.472 177.153 129.53C178.033 131.294 179.471 132.719 181.243 133.582C183.016 134.445 185.025 134.698 186.956 134.301C189.912 133.64 191.753 131.215 191.434 128.405C191.222 127.094 190.547 125.903 189.53 125.049C188.513 124.195 187.223 123.736 185.895 123.754C185.296 123.743 184.485 123.685 184.366 124.334C184.168 125.408 185.196 125.129 185.776 125.248C188.988 125.91 190.329 127.309 189.918 129.619C189.506 131.928 187.369 133.216 184.405 132.917C182.663 132.72 181.039 131.936 179.803 130.692C178.566 129.449 177.79 127.821 177.603 126.078C177.379 124.419 177.74 122.734 178.626 121.314C179.512 119.894 180.867 118.828 182.455 118.3C184.551 117.577 186.785 117.342 188.985 117.613C189.657 117.675 190.632 117.94 190.739 117.144C190.881 116.079 189.753 116.209 189.046 116.116C183.096 115.333 178.304 117.665 176.609 122.234C176.273 123.374 176.017 124.536 175.844 125.712C175.048 125.305 174.344 124.738 173.775 124.049C173.206 123.359 172.785 122.56 172.536 121.701C171.696 118.849 172.662 117.367 175.601 117.113C178.335 116.878 180.331 115.726 181.113 113.023C181.226 112.527 181.496 112.081 181.883 111.751C182.27 111.421 182.754 111.225 183.261 111.193C184.6 110.998 185.955 110.917 187.301 110.769C187.787 110.715 188.468 110.774 188.526 110.134C188.605 109.241 187.798 109.362 187.253 109.329C185.37 109.217 183.479 110.053 181.751 109.888C180.248 109.747 179.865 107.141 178.073 106.533C177.035 106.181 176.043 105.691 174.818 105.174" fill="#F7F8F9"/>
<path d="M63.4363 168.392C68.6885 162.652 73.835 157.025 78.9827 151.402C80.8736 149.336 82.776 147.281 84.6676 145.215C85.0818 144.763 85.546 144.164 84.9977 143.663C84.3823 143.1 83.9374 143.813 83.5602 144.223C80.1091 147.955 76.6725 151.703 73.1196 155.564C67.4717 141.804 56.3344 134.726 42.7969 129.768C46.1705 126.051 49.3057 122.461 52.5908 119.015C56.0027 115.569 59.8374 112.569 64.0035 110.087C64.5775 109.671 65.2582 109.426 65.966 109.382C66.6738 109.338 67.3795 109.497 68.0006 109.839C72.7712 112.062 77.5909 114.177 82.418 116.276C83.0277 116.541 83.9949 117.284 84.4202 116.37C84.8455 115.455 83.7199 115.234 83.0697 114.943C78.1397 112.749 73.2005 110.57 67.8373 108.196C72.194 105.823 76.4657 104.612 80.7909 103.546C81.2841 103.425 81.7893 103.348 82.2889 103.253C86.6644 102.428 86.6644 102.428 88.8135 106.277C89.0208 106.648 89.2273 107.02 89.4328 107.392C89.6923 107.861 90.0325 108.326 90.6145 108.032C91.2235 107.724 90.9813 107.144 90.7538 106.701C90.0678 105.364 89.3402 104.049 88.4944 102.479C94.2469 102 100.039 102.383 105.678 103.615C105.834 104.566 105.054 104.823 104.606 105.257C89.8083 119.598 89.5783 141.912 104.181 156.482C105.408 157.706 105.303 158.841 105.274 160.302C105.209 163.589 104.298 166.143 101.613 168.447C97.876 171.652 95.2631 175.939 92.6749 180.127C91.9253 181.34 91.3006 181.577 90.0461 180.982C81.5341 176.954 72.999 172.973 64.4742 168.973C64.191 168.837 63.9257 168.667 63.4363 168.392Z" fill="#F7F8F9"/>
<path d="M113.933 98.3321C117.02 91.0729 120.029 83.7789 123.241 76.5749C124.254 74.3036 124.255 72.9568 121.682 71.9074C119.524 70.9238 117.442 69.7792 115.455 68.4835C112.812 66.9056 111.997 64.1456 113.382 61.7512C114.838 59.2344 117.668 58.5658 120.418 60.1655C122.886 61.4829 125.272 62.9488 127.562 64.5551C130.735 66.9588 133.656 66.6028 136.667 64.4618L136.97 64.8721C136.555 65.5903 136.127 66.3016 135.726 67.0273C135.411 67.5955 135.336 68.2636 135.976 68.5523C136.586 68.8271 136.777 68.1544 136.975 67.7123C137.203 67.1246 137.572 66.6026 138.051 66.1929C138.53 65.7831 139.104 65.4985 139.719 65.3643C140.325 65.2278 141.326 65.282 141.087 64.3367C140.889 63.5502 139.973 63.7991 139.334 63.8946C138.843 63.9991 138.361 64.1393 137.891 64.314L137.535 63.7706C138.635 62.1515 139.434 60.3476 139.895 58.4451C140.255 58.5809 140.599 58.7549 140.921 58.9641C143.28 60.9895 145.821 61.5922 148.625 59.9109C149.131 59.6082 149.527 59.4218 149.792 60.1117C150 60.6588 150.269 61.2453 149.29 61.3635C148.954 61.4215 148.635 61.5509 148.353 61.7429C147.956 61.9923 147.333 62.1484 147.543 62.8185C147.753 63.4886 148.303 63.4311 148.778 63.1661C150.368 62.2775 150.823 63.1921 151.21 64.5337C152.693 69.6653 154.838 74.6267 155.672 79.9196C156.774 86.9135 151.103 91.3312 144.488 88.7418C143.245 88.2001 142.063 87.5284 140.961 86.7379C139.159 85.4627 137.494 84.0042 135.993 82.3857C135.596 81.9826 135.196 81.2696 134.551 81.6024C133.701 82.0426 134.225 82.781 134.465 83.3808C136.009 87.2452 137.56 91.1067 139.118 94.9651C139.394 95.6531 139.65 96.3488 140.06 97.4207C133.746 95.648 127.731 95.0662 121.673 96.4646C119.129 97.0511 116.647 97.9154 114.136 98.6534L113.932 98.3325M146.07 67.4817C147.811 67.8369 147.833 67.8568 146.923 69.0734C146.59 69.5197 145.836 69.8601 146.619 70.4477C147.209 70.8895 147.734 70.4328 148.182 70.0418C149.508 68.8827 149.44 66.8122 147.848 66.3091C147.169 66.1529 146.54 65.8263 146.021 65.3601C145.502 64.8939 145.11 64.3034 144.882 63.6441C144.86 63.5408 144.814 63.4439 144.749 63.3604C144.685 63.277 144.602 63.2091 144.507 63.1619C144.413 63.1147 144.309 63.0892 144.203 63.0875C144.098 63.0858 143.993 63.1078 143.897 63.1519C143.674 63.2543 143.499 63.4368 143.405 63.663C143.165 64.4621 145.173 67.3006 146.072 67.4829M119.283 64.1392C118.781 64.1015 118.027 64.0028 117.272 64.0015C116.803 64.0011 116.133 63.8909 116.049 64.5736C115.936 65.4584 116.659 65.3972 117.248 65.4255C119.621 65.5571 121.897 66.4147 123.767 67.8824C124.232 68.2331 124.726 68.7877 125.214 68.0211C125.554 67.4859 125.079 67.1151 124.683 66.7805C123.106 65.5017 121.26 64.5976 119.284 64.1363M144.745 74.0166C145.166 74.0484 145.589 74.0561 146.012 74.0395C146.815 73.9668 148.032 74.1182 147.931 72.9849C147.825 71.8016 146.676 72.5262 146.04 72.5646C144.232 72.6725 143.126 71.9096 142.658 70.2006C142.506 69.6419 142.565 68.8359 141.673 69.1484C140.962 69.3978 141.158 70.1003 141.278 70.6971C141.662 72.6116 142.985 73.5303 144.745 74.0166ZM137.074 70.2284C136.806 70.1614 136.527 70.1483 136.254 70.1898C135.981 70.2313 135.719 70.3266 135.482 70.4702C135.246 70.6139 135.041 70.803 134.879 71.0265C134.716 71.2501 134.6 71.5036 134.536 71.7725C134.455 72.0368 134.432 72.3152 134.468 72.5892C134.503 72.8632 134.597 73.1264 134.743 73.3612C134.888 73.5959 135.083 73.7968 135.312 73.9503C135.542 74.1038 135.802 74.2064 136.075 74.2512C136.319 74.3207 136.575 74.3383 136.826 74.3027C137.077 74.2671 137.318 74.1792 137.533 74.0446C137.749 73.9101 137.933 73.7319 138.075 73.5216C138.217 73.3112 138.313 73.0735 138.358 72.8236C138.455 72.5697 138.499 72.2982 138.487 72.0265C138.475 71.7547 138.406 71.4884 138.285 71.2445C138.165 71.0006 137.995 70.7843 137.787 70.6093C137.578 70.4344 137.336 70.3045 137.075 70.2279" fill="#F7F8F9"/>
<path d="M190.034 101.374C187.113 100.319 184.422 99.4862 181.593 99.9874C179.882 100.29 180.468 99.2685 180.62 98.5326C181.751 93.1201 182.909 87.7141 184.06 82.3065C184.52 80.1432 184.974 77.9793 185.44 75.8172C185.791 74.2117 186.382 72.7881 188.418 73.0888C190.272 73.3627 190.534 74.7385 190.497 76.3266C190.324 84.559 190.187 92.7884 190.031 101.374" fill="#F7F8F9"/>
<path d="M140.34 186.493C139.769 182.481 138.521 178.594 136.649 174.999C135.938 173.701 136.698 171.86 137.92 170.693C138.928 169.73 140.168 169.077 141.611 169.68C143.288 170.383 143.496 171.915 143.518 173.487C143.581 178.062 141.936 182.247 140.341 186.489" fill="#F7F8F9"/>
<path d="M136.667 64.46L137.532 63.7683L137.889 64.3111L136.971 64.8676L136.667 64.46Z" fill="#F7F8F9"/>
<path d="M114.139 98.6523C114.009 98.7372 113.78 98.9134 113.763 98.8978C113.523 98.6309 113.667 98.4577 113.936 98.3331L114.139 98.6523Z" fill="#F7F8F9"/>
<path d="M64.2518 108.261C60.3566 106.517 56.9562 104.999 53.5612 103.469C52.9172 103.182 51.7863 103.084 52.3276 102.02C52.7347 101.22 53.5594 101.859 54.1149 102.1C57.3816 103.526 60.6254 105.003 63.8746 106.469C64.968 106.961 65.9781 107.38 67.2452 106.735C73.131 103.816 79.4724 101.926 85.9953 101.145C83.9702 97.4438 82.0281 93.8862 80.0782 90.333C78.279 87.0547 76.4501 83.7918 74.6897 80.4932C74.3797 79.9116 73.4486 79.1287 74.4499 78.5351C75.5293 77.8956 75.6399 79.164 75.9485 79.7138C79.542 86.1739 83.1367 92.6358 86.6162 99.1582C87.3764 100.582 88.1828 100.982 89.7979 100.871C95.1477 100.486 100.525 100.951 105.729 102.247C108.48 102.938 110.214 101.365 111.519 99.6156C112.742 97.9754 113.244 95.7975 114.067 93.8488C113.206 93.4403 112.637 93.947 112.024 94.0984C104.922 95.8565 98.7906 94.1669 94.1866 88.4571C89.7102 82.9067 89.3049 76.6691 92.4133 70.2856C93.0139 69.052 93.0741 68.3837 92.1282 67.2467C87.5671 61.7662 86.6921 55.5662 89.7178 49.1547C92.6055 43.0348 97.7241 39.8641 104.526 39.6381C105.704 39.5994 106.369 39.5528 106.517 38.1161C107.294 30.5746 111.326 25.4325 118.59 23.3601C125.977 21.2529 132.108 23.6791 136.844 29.6884C136.987 29.8127 137.149 29.915 137.323 29.9918C142.134 24.3427 148.084 21.8712 155.47 23.8223C159.703 24.9689 163.313 27.7379 165.519 31.5289C167.724 35.3199 168.346 39.8273 167.25 44.0739C166.977 45.1075 166.763 45.9173 167.62 46.8454C176.044 55.9634 171.955 72.7482 156.674 74.0604C156.402 74.1021 156.133 74.1601 155.868 74.2341C156.513 76.622 157.345 78.9548 157.34 81.4496C157.341 87.6215 152.797 91.7677 146.721 90.7784C144.594 90.4328 144.628 91.273 144.13 92.8351C142.752 97.1546 143.949 99.6599 148.166 101.582C152.044 103.35 154.952 106.676 157.378 110.2C158.566 111.926 159.059 111.588 160.125 110.138C161.323 108.42 162.921 107.019 164.781 106.056C166.641 105.094 168.707 104.598 170.801 104.612C172.478 104.598 173.488 103.614 174.805 103.105C179.255 101.386 179.407 97.5104 180.184 93.8531C181.493 87.6972 182.802 81.5413 184.111 75.3854C184.712 72.5897 186.1 71.3363 188.293 71.5336C190.809 71.7605 191.981 73.2795 191.935 76.3675C191.811 84.2613 191.691 92.1554 191.491 100.047C191.427 100.789 191.542 101.536 191.826 102.224C192.11 102.912 192.556 103.522 193.124 104.003C197.654 108.177 201.593 112.751 203.371 118.916C205.482 126.237 203.608 133.001 201.193 139.802C196.416 153.249 191.759 166.737 186.989 180.188C183.198 190.927 177.962 201.098 171.424 210.422C167.465 216.064 161.886 218.483 155.03 217.33C147.643 216.087 143.085 211.638 141.249 204.409C140.629 201.965 140.154 199.486 139.466 196.355C137.117 202.334 132.85 204.419 127.394 205.34C99.2636 209.978 70.8044 212.336 42.2942 212.391C35.2788 212.435 28.3496 211.61 21.8883 208.663C7.15542 201.942 1.23567 184.449 8.48021 169.352C11.6377 162.773 16.16 157.171 20.9757 151.788C30.3122 141.349 39.6696 130.93 49.0478 120.531C53.4049 115.631 58.5422 111.485 64.2518 108.261ZM137.533 63.769L136.667 64.4606C133.656 66.6016 130.731 66.9569 127.563 64.5539C125.272 62.9488 122.886 61.484 120.419 60.1675C117.666 58.568 114.839 59.2378 113.383 61.7532C111.998 64.1476 112.812 66.9098 115.456 68.4853C117.443 69.7807 119.525 70.925 121.683 71.9087C124.257 72.9551 124.256 74.305 123.242 76.5762C120.029 83.7793 117.022 91.0742 113.936 98.3353C113.666 98.4591 113.524 98.6324 113.763 98.8953C113.78 98.9131 114.009 98.7387 114.139 98.6534C116.649 97.9155 119.131 97.0525 121.676 96.4648C127.733 95.0669 133.752 95.6502 140.062 97.4214C139.651 96.3501 139.396 95.6545 139.12 94.9659C137.571 91.1038 136.02 87.2409 134.469 83.3774C134.229 82.7775 133.705 82.0391 134.555 81.599C135.199 81.2653 135.602 81.9787 135.997 82.3816C137.498 84 139.163 85.4588 140.965 86.7344C142.066 87.5261 143.247 88.1989 144.489 88.7416C151.105 91.3311 156.774 86.9132 155.673 79.9195C154.839 74.6228 152.695 69.6638 151.211 64.5334C150.824 63.1918 150.369 62.2772 148.779 63.1651C148.304 63.4303 147.756 63.4964 147.544 62.8182C147.331 62.14 147.958 61.9914 148.354 61.7419C148.636 61.5499 148.955 61.4206 149.291 61.3624C150.27 61.2443 150.001 60.6571 149.793 60.1107C149.529 59.4179 149.132 59.6041 148.627 59.9063C145.822 61.5876 143.285 60.9857 140.919 58.9578C140.596 58.7486 140.252 58.5746 139.892 58.4387C139.431 60.3411 138.632 62.145 137.532 63.7644M32.811 210.275C39.2144 211.55 48.129 210.851 57.038 210.61C81.1321 210.023 105.149 207.646 128.891 203.498C134.102 202.577 137.209 199.732 138.173 194.688C139.305 189.155 138.74 183.409 136.552 178.203C135.77 176.114 134.357 174.321 132.508 173.073C132.031 172.703 131.45 172.493 130.847 172.473C130.244 172.453 129.65 172.623 129.149 172.96C128.003 173.755 127.852 174.883 128.175 176.129C128.579 177.69 129.056 179.233 129.421 180.803C130.125 183.83 129.41 185.589 126.841 187.353C124.395 188.905 121.676 189.975 118.828 190.508C112.111 192.049 107.245 188.155 107.179 181.232C107.204 179.012 107.847 176.842 109.034 174.965C110.108 173.224 110.802 171.274 111.07 169.245C111.3 167.214 110.085 165.658 108.319 165.758C107.046 165.921 105.857 166.485 104.924 167.366C101.021 170.493 98.2848 174.593 95.4155 178.597C93.2918 181.559 91.5868 184.61 91.926 188.423C91.9693 188.905 92.1486 189.497 91.4872 189.726C90.7114 189.995 90.4465 189.318 90.1199 188.863C88.4829 186.586 86.7982 184.334 85.2777 181.983C84.2318 180.34 82.7202 179.047 80.9358 178.268C70.0558 173.283 59.2041 168.238 48.3807 163.131C47.7914 162.855 46.2834 162.841 46.9834 161.572C47.5234 160.595 48.3372 161.569 48.9481 161.845C52.5835 163.485 56.2382 165.095 59.7978 166.89C61.322 167.658 62.2821 167.707 63.419 166.235C64.9194 164.295 66.7194 162.586 68.3796 160.768C72.3357 156.436 72.3747 156.408 69.2833 151.16C63.2557 140.928 53.7254 135.346 42.947 131.427C41.7008 130.974 41.1276 131.636 40.4099 132.438C33.9555 139.648 27.4279 146.793 21.0081 154.032C17.1379 158.319 13.7185 162.992 10.8036 167.978C0.832178 185.349 10.3527 206.296 32.812 210.273M174.82 105.177C176.046 105.695 177.037 106.184 178.075 106.536C179.867 107.142 180.248 109.75 181.752 109.891C183.481 110.053 185.372 109.217 187.254 109.332C187.799 109.365 188.606 109.244 188.526 110.137C188.47 110.776 187.789 110.718 187.301 110.771C185.956 110.92 184.601 111 183.262 111.195C182.754 111.228 182.271 111.424 181.884 111.754C181.497 112.084 181.227 112.53 181.114 113.026C180.331 115.727 178.335 116.88 175.602 117.116C172.662 117.368 171.699 118.852 172.536 121.704C172.785 122.563 173.206 123.362 173.775 124.052C174.344 124.741 175.048 125.307 175.844 125.715C176.017 124.539 176.273 123.376 176.609 122.236C178.301 117.667 183.093 115.335 189.042 116.122C189.748 116.215 190.876 116.085 190.734 117.149C190.628 117.945 189.653 117.681 188.981 117.618C186.782 117.348 184.551 117.583 182.457 118.304C180.869 118.832 179.514 119.898 178.628 121.318C177.742 122.738 177.38 124.423 177.605 126.082C177.792 127.825 178.568 129.453 179.804 130.697C181.041 131.94 182.664 132.724 184.407 132.921C187.368 133.22 189.502 131.941 189.92 129.622C190.331 127.314 188.99 125.914 185.778 125.253C185.202 125.13 184.17 125.412 184.369 124.339C184.489 123.688 185.302 123.748 185.898 123.758C187.226 123.74 188.516 124.2 189.532 125.054C190.549 125.908 191.225 127.099 191.437 128.41C191.755 131.22 189.914 133.644 186.958 134.306C185.027 134.703 183.019 134.45 181.246 133.587C179.473 132.724 178.035 131.299 177.156 129.534C176.648 128.477 175.858 127.58 174.872 126.944C172.592 125.436 170.617 123.376 170.993 120.516C171.397 117.433 169.991 117.45 167.849 117.91C167.604 117.982 167.35 118.021 167.095 118.025C166.412 117.98 165.344 118.48 165.26 117.382C165.192 116.501 166.213 116.633 166.851 116.559C169.969 116.198 173.089 115.848 176.21 115.508C177.041 115.437 177.827 115.105 178.458 114.561C179.089 114.017 179.532 113.287 179.725 112.477C179.917 111.666 179.849 110.815 179.529 110.045C179.21 109.276 178.656 108.626 177.947 108.189C176.586 107.272 175.055 106.636 173.444 106.32C171.833 106.004 170.175 106.014 168.569 106.349C166.962 106.685 165.438 107.339 164.089 108.273C162.739 109.206 161.59 110.401 160.709 111.787C160.315 112.275 160.081 112.873 160.041 113.499C160 114.126 160.154 114.749 160.482 115.284C163.941 121.981 165.089 129.634 163.746 137.05C163.533 138.327 163.615 139.262 164.619 140.229C166.948 142.475 169.741 144.183 172.802 145.232C173.285 145.4 174.158 145.496 173.827 146.346C173.51 147.156 172.831 146.665 172.298 146.532C169.712 145.884 167.534 144.407 165.233 142.94C163.107 147.854 161.016 152.682 158.929 157.511C157.583 160.627 156.241 163.745 154.903 166.864C154.642 167.474 154.486 168.39 153.585 167.972C152.684 167.555 153.443 166.815 153.566 166.216C153.624 166.057 153.699 165.904 153.787 165.759C156.949 158.436 160.127 151.121 163.243 143.779C163.594 142.951 164.511 141.908 163.025 140.916C162.656 141.838 162.331 142.614 162.035 143.401C158.243 153.427 151.332 160.425 141.343 164.216C139.217 165.024 138.432 166.169 138.38 168.209C143.485 167.659 145.24 169.435 144.937 174.694C144.794 177.176 144.619 179.724 143.524 181.911C139.866 189.19 140.402 196.451 142.64 203.999C144.511 210.308 148.175 214.422 154.643 215.759C161.145 217.106 166.435 214.884 170.211 209.55C176.542 200.598 181.624 190.825 185.316 180.501C190.193 166.911 194.922 153.268 199.668 139.633C201.312 134.909 203.147 130.224 202.865 125.052C202.339 115.393 197.032 108.532 189.623 103.194C184.979 99.8464 179.073 100.901 174.819 105.181M162.079 138.125C165.947 119.366 154.1 101.75 134.936 97.7656C117.423 94.1252 99.3454 106.241 95.5727 124.147C94.6675 128.543 94.6392 133.075 95.4895 137.483C96.3397 141.891 98.0517 146.087 100.527 149.832C103.003 153.576 106.193 156.796 109.916 159.304C113.638 161.813 117.819 163.563 122.219 164.452C140.249 168.148 158.351 156.191 162.077 138.124M63.436 168.393C63.9254 168.668 64.1901 168.841 64.4737 168.974C72.9995 172.974 81.534 176.954 90.0458 180.983C91.3005 181.577 91.9243 181.341 92.6746 180.128C95.2622 175.943 97.8764 171.653 101.612 168.448C104.299 166.144 105.209 163.589 105.274 160.302C105.303 158.842 105.408 157.707 104.181 156.483C89.5775 141.915 89.8083 119.598 104.606 105.258C105.052 104.826 105.834 104.567 105.678 103.616C100.039 102.384 94.2482 102.002 88.4967 102.482C89.3398 104.05 90.0679 105.366 90.7562 106.704C90.9836 107.147 91.2259 107.726 90.6176 108.034C90.0349 108.328 89.6954 107.863 89.4352 107.394C89.2297 107.022 89.0233 106.65 88.816 106.28C86.6666 102.431 86.6667 102.431 82.2921 103.256C81.7917 103.35 81.2869 103.426 80.7933 103.548C76.4688 104.614 72.1964 105.825 67.8397 108.198C73.2029 110.572 78.1392 112.751 83.0693 114.945C83.7219 115.234 84.8486 115.45 84.4198 116.371C83.991 117.292 83.0301 116.543 82.4175 116.277C77.5912 114.179 72.7708 112.063 68.0001 109.84C67.379 109.498 66.6733 109.34 65.9655 109.384C65.2577 109.428 64.577 109.672 64.003 110.089C59.8375 112.57 56.003 115.568 52.5911 119.013C49.3066 122.46 46.1705 126.05 42.7978 129.767C56.3353 134.725 67.4725 141.803 73.1219 155.563C76.6755 151.699 80.1114 147.954 83.5625 144.222C83.9404 143.813 84.3862 143.099 85 143.662C85.5456 144.162 85.0813 144.761 84.6699 145.214C82.779 147.28 80.8765 149.336 78.985 151.401C73.8364 157.025 68.6919 162.65 63.4385 168.392M117.687 184.092C119.93 184.569 122.17 185.057 124.415 185.523C127.151 186.089 128.639 184.687 128.114 181.875C127.697 179.635 126.962 177.455 126.527 175.217C126.361 174.366 125.847 174.375 125.303 174.258C121.317 173.402 117.329 172.555 113.34 171.718C112.883 171.621 112.263 171.303 112.037 172.006C111.132 174.821 109.065 177.142 108.675 180.2C108.478 181.749 108.986 182.334 110.455 182.585C112.881 183.001 115.279 183.584 117.686 184.097M190.035 101.374C190.191 92.7888 190.329 84.5574 190.5 76.327C190.534 74.7382 190.271 73.3631 188.419 73.0893C186.382 72.7878 185.791 74.2114 185.443 75.819C184.975 77.98 184.523 80.145 184.063 82.3076C182.913 87.7153 181.754 93.1212 180.623 98.533C180.467 99.268 179.886 100.291 181.596 99.9878C184.427 99.4869 187.116 100.319 190.037 101.375M137.388 165.576C129.311 167.282 121.666 166.793 114.341 163.394C113.018 162.779 112.543 163.799 111.772 164.356C110.766 165.08 111.536 165.647 111.918 166.23C112.445 166.911 112.689 167.77 112.599 168.626C112.296 170.111 113.149 170.283 114.226 170.502C117.551 171.174 120.879 171.848 124.179 172.63C125.717 172.994 126.956 173.132 128.28 171.836C129.622 170.524 131.389 170.844 133.029 171.65C133.741 172.002 134.198 172.868 135.229 172.752C135.93 170.42 136.629 168.099 137.389 165.576M140.344 186.494C141.94 182.248 143.584 178.066 143.521 173.493C143.499 171.92 143.293 170.386 141.614 169.684C140.173 169.077 138.932 169.734 137.923 170.697C136.698 171.864 135.941 173.705 136.652 175.003C138.524 178.597 139.772 182.482 140.344 186.494ZM109.066 183.744C111.219 190.094 118.87 191.535 123.731 186.862L109.066 183.744Z" fill="#0A0A0C"/>
<path d="M136.958 119.576C138.954 119.136 140.833 118.868 142.763 119.646C147.146 121.412 148.949 126.256 146.527 130.333C142.107 137.762 137.612 145.145 133.107 152.522C132.725 153.148 132.419 154.546 131.377 153.82C130.443 153.171 131.558 152.332 131.947 151.682C136.306 144.415 140.72 137.188 145.071 129.917C147.161 126.422 145.958 122.669 142.37 120.993C141.507 120.632 140.564 120.504 139.636 120.62C137.854 120.735 136.533 121.203 136.874 123.485C137.052 124.749 137.039 126.032 136.835 127.292C136.548 129.111 135.313 129.954 133.511 129.517C131.688 129.077 130.969 127.733 131.666 126.019C132.173 124.669 132.947 123.434 133.942 122.39C135.491 120.885 135.415 119.16 135.428 117.279C135.442 115.157 134.303 114.148 132.479 113.742C131.651 113.483 130.756 113.544 129.97 113.913C129.185 114.283 128.567 114.933 128.238 115.737C127.393 117.613 126.244 119.46 127.693 121.7C128.289 122.621 128.264 123.984 128.386 125.16C128.457 125.673 128.36 126.195 128.111 126.648C127.861 127.102 127.472 127.463 127.002 127.678C126.554 127.933 126.038 128.042 125.525 127.989C125.013 127.936 124.53 127.724 124.144 127.383C123.699 127.048 123.375 126.578 123.22 126.044C123.065 125.51 123.086 124.939 123.281 124.418C123.537 123.431 123.905 122.477 124.38 121.575C125.54 119.618 124.384 118.773 122.837 118.159C120.647 117.291 118.496 117.361 116.57 118.87C115.574 119.61 114.818 120.627 114.396 121.794C113.975 122.96 113.905 124.226 114.197 125.431C115.58 133.19 116.947 140.954 118.297 148.722C118.385 149.222 118.471 149.724 118.555 150.227C118.578 150.308 118.584 150.393 118.574 150.477C118.563 150.56 118.535 150.641 118.492 150.714C118.449 150.786 118.392 150.849 118.323 150.899C118.255 150.949 118.177 150.984 118.095 151.003C117.996 151.042 117.89 151.059 117.784 151.051C117.678 151.044 117.574 151.013 117.482 150.961C117.389 150.909 117.309 150.837 117.248 150.75C117.186 150.664 117.145 150.564 117.127 150.459C117.022 150.049 116.955 149.628 116.882 149.21C115.536 141.444 114.24 133.674 112.821 125.926C112.191 122.493 112.998 119.644 115.823 117.6C118.569 115.611 121.552 115.613 124.423 117.377C126.178 118.457 126.132 117.001 126.492 116.088C127.811 112.747 130.006 111.544 133.267 112.455C135.555 113.092 136.963 114.444 136.833 117.017C136.832 117.871 136.874 118.724 136.959 119.574M135.166 123.053C134.438 124.185 133.71 125.201 133.109 126.287C132.998 126.447 132.928 126.631 132.905 126.825C132.882 127.018 132.907 127.213 132.977 127.395C133.048 127.576 133.162 127.737 133.309 127.864C133.456 127.991 133.632 128.08 133.822 128.123C134.004 128.193 134.201 128.216 134.394 128.19C134.587 128.164 134.771 128.09 134.927 127.974C135.084 127.858 135.209 127.705 135.291 127.528C135.373 127.351 135.408 127.156 135.394 126.961C135.427 125.711 135.701 124.43 135.166 123.054M126.104 121.247C125.439 122.96 124.966 123.961 124.674 125.012C124.615 125.174 124.595 125.347 124.616 125.518C124.637 125.689 124.699 125.852 124.797 125.994C124.895 126.136 125.025 126.252 125.177 126.333C125.329 126.414 125.498 126.458 125.67 126.46C125.839 126.49 126.014 126.481 126.179 126.431C126.343 126.382 126.494 126.294 126.619 126.175C126.743 126.056 126.837 125.909 126.894 125.746C126.951 125.584 126.968 125.41 126.945 125.239C126.801 124.099 126.478 122.98 126.101 121.251" fill="#0A0A0C"/>
<path d="M146.072 67.4825C145.173 67.2988 143.164 64.4608 143.404 63.6616C143.498 63.4343 143.674 63.251 143.898 63.1486C143.994 63.1046 144.099 63.0828 144.204 63.0848C144.31 63.0867 144.414 63.1124 144.509 63.1599C144.603 63.2075 144.686 63.2756 144.75 63.3593C144.815 63.443 144.86 63.5402 144.882 63.6437C145.11 64.303 145.502 64.8935 146.021 65.3597C146.54 65.8259 147.169 66.1525 147.849 66.3087C149.443 66.8086 149.51 68.8828 148.184 70.0417C147.736 70.4336 147.211 70.8872 146.622 70.4477C145.838 69.86 146.593 69.5208 146.925 69.0742C147.836 67.8547 147.813 67.8348 146.072 67.4825Z" fill="#0A0A0C"/>
<path d="M119.284 64.1387C121.261 64.6 123.107 65.5041 124.683 66.7828C125.08 67.1168 125.556 67.4878 125.215 68.0235C124.726 68.7901 124.232 68.2355 123.767 67.8847C121.897 66.4164 119.622 65.558 117.248 65.4257C116.66 65.3967 115.941 65.4572 116.05 64.5731C116.134 63.8904 116.804 64.0005 117.273 64.001C118.028 64.0022 118.782 64.101 119.284 64.1387Z" fill="#0A0A0C"/>
<path d="M144.746 74.0193C142.986 73.5329 141.662 72.6118 141.279 70.6997C141.158 70.1035 140.963 69.4012 141.674 69.1511C142.563 68.838 142.506 69.6459 142.658 70.2038C143.127 71.913 144.233 72.6759 146.041 72.5672C146.679 72.5293 147.826 71.8064 147.932 72.9875C148.034 74.121 146.816 73.9702 146.013 74.0422C145.59 74.0588 145.167 74.0511 144.746 74.0193Z" fill="#0A0A0C"/>
<path d="M136.97 64.8721L137.888 64.3156C138.358 64.1409 138.841 64.0007 139.331 63.8961C139.969 63.8063 140.886 63.5503 141.085 64.3391C141.323 65.2845 140.322 65.2295 139.717 65.3668C139.102 65.501 138.53 65.7852 138.052 66.194C137.573 66.6028 137.204 67.1236 136.976 67.71C136.778 68.1513 136.588 68.8252 135.976 68.5499C135.335 68.2632 135.41 67.5959 135.725 67.0268C136.128 66.3012 136.554 65.5903 136.97 64.8721Z" fill="#0A0A0C"/>
<path d="M137.075 70.2284C137.336 70.305 137.579 70.4349 137.787 70.6099C137.996 70.7849 138.165 71.0012 138.286 71.2451C138.407 71.4891 138.475 71.7553 138.488 72.0272C138.5 72.299 138.456 72.5704 138.358 72.8244C138.314 73.0742 138.218 73.312 138.076 73.5223C137.934 73.7326 137.749 73.9108 137.534 74.0454C137.319 74.1799 137.078 74.2679 136.827 74.3036C136.576 74.3392 136.32 74.3218 136.076 74.2524C135.803 74.2078 135.543 74.1054 135.312 73.9519C135.082 73.7984 134.888 73.5974 134.742 73.3625C134.596 73.1275 134.502 72.864 134.466 72.5897C134.431 72.3154 134.454 72.0367 134.535 71.7722C134.599 71.5031 134.715 71.2493 134.878 71.0256C135.041 70.8019 135.246 70.6127 135.482 70.4691C135.719 70.3255 135.981 70.2302 136.255 70.1889C136.528 70.1476 136.807 70.161 137.075 70.2284Z" fill="#F87DDF"/>
</svg>
