<svg width="308" height="34" viewBox="0 0 308 34" fill="none" xmlns="http://www.w3.org/2000/svg">
<rect x="10" y="10" width="48" height="14" rx="7" stroke="#EDEDED"/>
<rect x="12" y="12" width="44" height="10" rx="5" fill="#EDEDED"/>
<rect x="12" y="12" width="44" height="10" rx="5" fill="#9BE3FF"/>
<rect x="68" y="10" width="14" height="14" rx="7" stroke="#EDEDED"/>
<rect x="70" y="12" width="10" height="10" rx="5" fill="#EDEDED"/>
<rect x="70" y="12" width="10" height="10" rx="5" fill="#FF672E"/>
<rect x="92" y="10" width="62" height="14" rx="7" stroke="#EDEDED"/>
<rect x="94" y="12" width="58" height="10" rx="5" fill="#EDEDED"/>
<rect x="94" y="12" width="58" height="10" rx="5" fill="#9BE3FF"/>
<rect x="164" y="10" width="14" height="14" rx="7" stroke="#EDEDED"/>
<rect x="166" y="12" width="10" height="10" rx="5" fill="#EDEDED"/>
<rect x="166" y="12" width="10" height="10" rx="5" fill="#FF672E"/>
<rect x="188" y="10" width="14" height="14" rx="7" stroke="#EDEDED"/>
<rect x="190" y="12" width="10" height="10" rx="5" fill="#EDEDED"/>
<rect x="190" y="12" width="10" height="10" rx="5" fill="#FF672E"/>
<rect x="212" y="10" width="14" height="14" rx="7" stroke="#EDEDED"/>
<rect x="214" y="12" width="10" height="10" rx="5" fill="#EDEDED"/>
<rect x="214" y="12" width="10" height="10" rx="5" fill="#FF672E"/>
<rect x="236" y="10" width="62" height="14" rx="7" stroke="#EDEDED"/>
<rect x="238" y="12" width="58" height="10" rx="5" fill="#EDEDED"/>
<rect x="238" y="12" width="13" height="10" rx="5" fill="#9BE3FF"/>
</svg>
