<svg width="57" height="57" viewBox="0 0 57 57" fill="none" xmlns="http://www.w3.org/2000/svg">
<rect x="1" y="1" width="55" height="55" rx="27.5" fill="#F8F9FA"/>
<rect x="1" y="1" width="55" height="55" rx="27.5" stroke="#7B7B7E"/>
<path d="M16.5 39.6102C16.5775 39.4412 16.7053 39.3002 16.866 39.2067C17.0267 39.1131 17.2124 39.0715 17.3976 39.0876C18.3499 39.0434 19.2564 38.6659 19.9586 38.0211C20.6608 37.3762 21.1139 36.5051 21.2389 35.5599C21.5002 33.4764 21.7615 31.3934 22.0228 29.3107C22.0228 29.2872 22.0228 29.2637 22.0228 29.2075H21.7981C21.2206 29.2075 20.6418 29.2075 20.0643 29.2075C19.9676 29.2147 19.8705 29.2019 19.7791 29.1699C19.6876 29.1379 19.6037 29.0873 19.5327 29.0214C19.4617 28.9555 19.405 28.8756 19.3663 28.7868C19.3275 28.698 19.3075 28.6021 19.3075 28.5052C19.3075 28.4083 19.3275 28.3125 19.3663 28.2236C19.405 28.1348 19.4617 28.0549 19.5327 27.989C19.6037 27.9231 19.6876 27.8726 19.7791 27.8405C19.8705 27.8085 19.9676 27.7957 20.0643 27.803C20.6888 27.803 21.3146 27.803 21.9392 27.803H22.2109C22.2945 27.1301 22.3769 26.4729 22.4592 25.817C22.6591 24.2295 22.8302 22.6382 23.068 21.0559C23.2611 19.8951 23.8249 18.828 24.6752 18.0145C25.5255 17.2009 26.6164 16.6847 27.7847 16.5431C27.8367 16.5329 27.8878 16.5185 27.9375 16.5H28.6405C28.6718 16.5196 28.7006 16.5431 28.7332 16.5601C28.8794 16.6258 28.9991 16.739 29.0729 16.8813C29.1466 17.0236 29.1701 17.1867 29.1396 17.344C29.1042 17.5059 29.0132 17.6503 28.8823 17.752C28.7515 17.8537 28.5892 17.9063 28.4236 17.9006C27.3805 17.9052 26.3799 18.3146 25.6328 19.0425C24.9124 19.7406 24.4676 20.6747 24.3798 21.6739C24.1394 23.6808 23.8833 25.6863 23.6351 27.6919C23.6351 27.7154 23.6351 27.7389 23.6351 27.7964H23.8585C24.436 27.7964 25.0148 27.7964 25.5923 27.7964C25.6889 27.7892 25.786 27.802 25.8775 27.834C25.9689 27.866 26.0528 27.9166 26.1238 27.9825C26.1949 28.0484 26.2515 28.1283 26.2903 28.2171C26.329 28.3059 26.349 28.4018 26.349 28.4987C26.349 28.5956 26.329 28.6915 26.2903 28.7803C26.2515 28.8691 26.1949 28.949 26.1238 29.0149C26.0528 29.0808 25.9689 29.1314 25.8775 29.1634C25.786 29.1954 25.6889 29.2082 25.5923 29.201C24.9677 29.201 24.3419 29.201 23.7174 29.201H23.4508C23.3672 29.8738 23.2875 30.5297 23.2026 31.1856C22.987 32.8567 22.8381 34.5421 22.535 36.1975C22.3057 37.3083 21.7313 38.3182 20.8939 39.0831C20.0565 39.8481 18.9988 40.3289 17.8719 40.4569C17.8198 40.467 17.7687 40.4814 17.719 40.5H17.0161C16.7895 40.3935 16.607 40.2115 16.5 39.9852V39.6102Z" fill="#7B7B7E"/>
<path d="M40.5001 28.9682C40.4387 29.4307 40.3864 29.8945 40.3132 30.3544C40.0816 31.758 39.6523 33.1216 39.038 34.4047C38.9999 34.4893 38.9453 34.5655 38.8775 34.6289C38.8097 34.6922 38.73 34.7414 38.643 34.7737C38.556 34.8059 38.4634 34.8206 38.3707 34.8168C38.278 34.813 38.187 34.7907 38.1029 34.7514C38.0189 34.7121 37.9435 34.6565 37.8811 34.5878C37.8187 34.5191 37.7706 34.4387 37.7396 34.3513C37.7085 34.2638 37.6952 34.1711 37.7003 34.0784C37.7054 33.9858 37.7289 33.8951 37.7694 33.8116C38.2791 32.7229 38.6534 31.5759 38.8839 30.3962C39.3483 28.1773 39.0786 25.8675 38.1156 23.8151C38.0307 23.6401 37.9301 23.4715 37.8308 23.3043C37.7736 23.2252 37.7332 23.1352 37.712 23.0399C37.6908 22.9447 37.6892 22.8461 37.7074 22.7502C37.7257 22.6543 37.7633 22.5631 37.818 22.4823C37.8726 22.4014 37.9432 22.3326 38.0255 22.2799C38.1092 22.2291 38.2027 22.1961 38.2998 22.1831C38.397 22.17 38.4958 22.1772 38.59 22.2042C38.6842 22.2312 38.7719 22.2774 38.8474 22.3399C38.923 22.4024 38.9847 22.4799 39.0289 22.5674C39.5932 23.4956 39.9911 24.5152 40.2048 25.5803C40.3198 26.1277 40.372 26.6896 40.4543 27.2448C40.4635 27.3049 40.4818 27.365 40.4948 27.4251L40.5001 28.9682Z" fill="#7B7B7E"/>
<path d="M34.1737 29.7456L33.7817 30.3139C33.4028 30.8587 33.0292 31.4062 32.645 31.9471C32.5704 32.0637 32.461 32.154 32.3323 32.2051C32.2036 32.2562 32.0621 32.2656 31.9278 32.2319C31.7918 32.2071 31.6666 32.1411 31.5692 32.043C31.4718 31.9449 31.4068 31.8194 31.3829 31.6832C31.3633 31.5755 31.3675 31.4648 31.3953 31.359C31.423 31.2531 31.4737 31.1546 31.5436 31.0704C32.0924 30.2865 32.6333 29.4895 33.1873 28.7069C33.2397 28.6519 33.2689 28.5789 33.2689 28.503C33.2689 28.4271 33.2397 28.3542 33.1873 28.2992C32.6228 27.5035 32.0689 26.7 31.5175 25.8952C31.4431 25.802 31.3935 25.6915 31.3734 25.574C31.3533 25.4566 31.3633 25.3359 31.4024 25.2233C31.4416 25.1107 31.5086 25.0098 31.5972 24.9301C31.6859 24.8505 31.7933 24.7945 31.9095 24.7676C32.0556 24.737 32.2076 24.7529 32.3442 24.8132C32.4809 24.8734 32.5952 24.9749 32.6712 25.1034C33.118 25.7436 33.5596 26.3864 34.0052 27.0279C34.0535 27.0972 34.1045 27.1586 34.1672 27.2501C34.2286 27.1677 34.2795 27.1037 34.3266 27.0358C34.7799 26.3825 35.2307 25.7293 35.688 25.076C35.7743 24.9387 35.9062 24.8362 36.0606 24.7865C36.2149 24.7368 36.3818 24.7431 36.532 24.8042C36.6763 24.8572 36.7981 24.9578 36.8774 25.0894C36.9567 25.221 36.9889 25.3757 36.9684 25.528C36.938 25.6798 36.8761 25.8236 36.7868 25.95C36.2468 26.7436 35.7006 27.5327 35.1484 28.3175C35.1001 28.3664 35.0731 28.4324 35.0731 28.5011C35.0731 28.5698 35.1001 28.6358 35.1484 28.6847C35.7063 29.4686 36.2524 30.2747 36.8051 31.0678C36.8776 31.1552 36.9295 31.2577 36.9571 31.3678C36.9847 31.478 36.9872 31.5929 36.9645 31.7041C36.9344 31.8383 36.8655 31.9607 36.7663 32.0559C36.6671 32.1512 36.542 32.2151 36.4067 32.2398C36.2714 32.2645 36.1319 32.2488 36.0055 32.1946C35.879 32.1405 35.7714 32.0503 35.6958 31.9354C35.2399 31.2821 34.7891 30.6288 34.3357 29.9755C34.2887 29.9063 34.2364 29.8449 34.1698 29.7495" fill="#7B7B7E"/>
<path d="M29.9679 22.1719C30.0943 22.1752 30.2176 22.2125 30.3247 22.2797C30.4319 22.3469 30.519 22.4417 30.5771 22.554C30.6351 22.6664 30.662 22.7923 30.6548 22.9186C30.6476 23.0449 30.6067 23.1669 30.5362 23.272C30.0677 24.0476 29.7288 24.8945 29.5328 25.7793C29.0643 27.8465 29.1842 30.0037 29.8791 32.0063C30.075 32.6047 30.3442 33.1822 30.5624 33.7714C30.6268 33.9376 30.6496 34.117 30.629 34.294C30.6017 34.4374 30.5276 34.5678 30.4184 34.6647C30.3092 34.7616 30.171 34.8196 30.0254 34.8297C29.876 34.8487 29.7246 34.8168 29.5954 34.7394C29.4663 34.6619 29.3669 34.5432 29.3133 34.4025C28.9684 33.501 28.5973 32.606 28.3282 31.6809C27.9027 30.2152 27.7556 28.6828 27.8944 27.1629C28.0095 25.554 28.4903 23.9927 29.3003 22.5978C29.3631 22.4741 29.4582 22.3698 29.5755 22.2957C29.6928 22.2216 29.8279 22.1807 29.9666 22.1771" fill="#7B7B7E"/>
</svg>
