<svg width="57" height="57" viewBox="0 0 57 57" fill="none" xmlns="http://www.w3.org/2000/svg">
<rect x="1" y="1" width="55" height="55" rx="27.5" fill="#F8F9FA"/>
<rect x="1" y="1" width="55" height="55" rx="27.5" stroke="#7B7B7E"/>
<path d="M28.3748 40.5C28.311 40.4987 28.2475 40.4913 28.1851 40.4777C28.1148 40.4615 28.0471 40.4352 27.9843 40.3996L25.5188 39.1724C25.416 39.1257 25.3237 39.0588 25.2473 38.9757C25.1709 38.8925 25.112 38.7949 25.0742 38.6885C25.0364 38.5822 25.0203 38.4693 25.027 38.3566C25.0337 38.2439 25.063 38.1337 25.1132 38.0326C25.1634 37.9315 25.2334 37.8415 25.3191 37.768C25.4048 37.6945 25.5044 37.639 25.612 37.6049C25.7196 37.5707 25.833 37.5585 25.9454 37.5691C26.0578 37.5796 26.1669 37.6127 26.2662 37.6663L27.538 38.3022V36.5618C27.538 36.3399 27.6262 36.1271 27.7831 35.9702C27.94 35.8133 28.1529 35.7251 28.3748 35.7251C28.5967 35.7251 28.8095 35.8133 28.9664 35.9702C29.1233 36.1271 29.2115 36.3399 29.2115 36.5618V38.3022L30.4833 37.6663C30.6835 37.57 30.9134 37.5558 31.1239 37.6266C31.3344 37.6975 31.5089 37.8479 31.6101 38.0456C31.6605 38.1443 31.6906 38.252 31.6988 38.3624C31.707 38.4729 31.693 38.5839 31.6576 38.6889C31.6223 38.7938 31.5663 38.8907 31.493 38.9737C31.4197 39.0568 31.3306 39.1243 31.2308 39.1724L28.7652 40.3996C28.7003 40.4304 28.6332 40.4565 28.5644 40.4777C28.502 40.4906 28.4385 40.4981 28.3748 40.5ZM35.816 36.785C35.6272 36.7853 35.4439 36.7217 35.296 36.6044C35.1481 36.4872 35.0442 36.3232 35.0015 36.1394C34.9588 35.9555 34.9797 35.7626 35.0607 35.5921C35.1418 35.4216 35.2783 35.2837 35.4478 35.2008L37.4671 34.1967V31.6196C37.4671 31.3977 37.5553 31.1849 37.7122 31.028C37.8691 30.871 38.0819 30.7829 38.3039 30.7829C38.5258 30.7829 38.7386 30.871 38.8955 31.028C39.0524 31.1849 39.1406 31.3977 39.1406 31.6196V34.721C39.1396 34.8755 39.0965 35.0267 39.0159 35.1585C38.9353 35.2902 38.8203 35.3974 38.6832 35.4685L36.2065 36.7069C36.0806 36.7522 35.9497 36.7786 35.816 36.785ZM20.9335 36.785C20.8057 36.7832 20.6798 36.7527 20.5654 36.6957L18.0887 35.4574C17.9516 35.3862 17.8365 35.279 17.7559 35.1473C17.6753 35.0156 17.6322 34.8643 17.6313 34.7099V31.6084C17.6313 31.3865 17.7194 31.1737 17.8763 31.0168C18.0333 30.8599 18.2461 30.7717 18.468 30.7717C18.6899 30.7717 18.9027 30.8599 19.0596 31.0168C19.2166 31.1737 19.3047 31.3865 19.3047 31.6084V34.1855L21.324 35.1896C21.5216 35.291 21.6717 35.4656 21.7423 35.6761C21.813 35.8866 21.7986 36.1164 21.7022 36.3164C21.627 36.4558 21.5161 36.5726 21.3808 36.655C21.2455 36.7373 21.0919 36.7822 20.9335 36.785ZM28.3748 31.2068C28.1533 31.2054 27.9413 31.1167 27.7847 30.9601C27.6281 30.8035 27.5395 30.5916 27.538 30.3701V27.793L25.5188 26.7889C25.416 26.7422 25.3237 26.6753 25.2473 26.5922C25.1709 26.5091 25.112 26.4114 25.0742 26.3051C25.0364 26.1987 25.0203 26.0858 25.027 25.9731C25.0337 25.8604 25.063 25.7503 25.1132 25.6491C25.1634 25.548 25.2334 25.458 25.3191 25.3845C25.4048 25.3111 25.5044 25.2556 25.612 25.2214C25.7196 25.1872 25.833 25.175 25.9454 25.1856C26.0578 25.1961 26.1669 25.2292 26.2662 25.2828L28.3748 26.3315L30.4833 25.2828C30.683 25.1839 30.9139 25.1682 31.1252 25.2393C31.3365 25.3104 31.5109 25.4625 31.6101 25.6622C31.6608 25.7607 31.6912 25.8685 31.6995 25.979C31.7078 26.0896 31.6939 26.2006 31.6585 26.3057C31.6232 26.4108 31.5671 26.5077 31.4936 26.5907C31.4201 26.6737 31.3308 26.7411 31.2308 26.7889L29.2115 27.793V30.3701C29.21 30.5916 29.1214 30.8035 28.9648 30.9601C28.8082 31.1167 28.5962 31.2054 28.3748 31.2068ZM38.2927 26.2423C38.0712 26.2408 37.8593 26.1522 37.7027 25.9956C37.5461 25.839 37.4574 25.627 37.456 25.4056V23.6652L36.1842 24.3011C36.0848 24.3547 35.9757 24.3878 35.8633 24.3983C35.7509 24.4089 35.6375 24.3967 35.5299 24.3625C35.4224 24.3284 35.3228 24.2729 35.2371 24.1994C35.1514 24.1259 35.0813 24.0359 35.0311 23.9348C34.981 23.8337 34.9516 23.7235 34.9449 23.6108C34.9382 23.4981 34.9543 23.3852 34.9921 23.2789C35.03 23.1725 35.0888 23.0748 35.1652 22.9917C35.2416 22.9086 35.3339 22.8417 35.4367 22.795L36.4184 22.3041L35.4356 21.8132C35.2414 21.7108 35.0949 21.5365 35.0275 21.3275C34.9601 21.1185 34.977 20.8914 35.0748 20.6948C35.1725 20.4982 35.3433 20.3476 35.5505 20.2751C35.7578 20.2027 35.9852 20.2142 36.1842 20.3071L38.6497 21.5343C38.678 21.5449 38.7043 21.56 38.7278 21.579C38.7946 21.6175 38.8548 21.6665 38.9063 21.724L39.0067 21.8579C39.0515 21.9346 39.0853 22.0172 39.1071 22.1033C39.1194 22.1659 39.1269 22.2293 39.1294 22.293V25.3832C39.1318 25.4949 39.1119 25.606 39.0709 25.7099C39.0299 25.8138 38.9686 25.9085 38.8906 25.9884C38.8126 26.0684 38.7195 26.132 38.6166 26.1756C38.5138 26.2192 38.4044 26.2419 38.2927 26.2423ZM18.4568 26.2423C18.2354 26.2408 18.0234 26.1522 17.8668 25.9956C17.7102 25.839 17.6216 25.627 17.6201 25.4056V22.3153C17.6214 22.2515 17.6289 22.188 17.6424 22.1256C17.6642 22.0395 17.698 21.9569 17.7428 21.8802C17.7737 21.8273 17.8112 21.7785 17.8544 21.7351C17.9014 21.6882 17.9539 21.647 18.0106 21.6124C18.0329 21.6013 18.0664 21.579 18.0887 21.5678L20.5542 20.3406C20.754 20.2416 20.9848 20.226 21.1961 20.2971C21.4074 20.3682 21.5818 20.5203 21.681 20.7199C21.7317 20.8185 21.7621 20.9262 21.7704 21.0368C21.7787 21.1473 21.7648 21.2584 21.7294 21.3635C21.6941 21.4685 21.638 21.5654 21.5645 21.6484C21.4911 21.7314 21.4017 21.7989 21.3017 21.8467L20.3199 22.3376L21.3017 22.8285C21.4936 22.932 21.6378 23.1061 21.7039 23.314C21.7699 23.5219 21.7526 23.7473 21.6557 23.9427C21.5587 24.138 21.3896 24.2881 21.1841 24.3612C20.9787 24.4343 20.7528 24.4248 20.5542 24.3346L19.2824 23.6986V25.439C19.2821 25.5464 19.2604 25.6527 19.2185 25.7516C19.1765 25.8504 19.1153 25.9399 19.0382 26.0148C18.9612 26.0896 18.87 26.1483 18.77 26.1874C18.6699 26.2264 18.5642 26.2451 18.4568 26.2423ZM30.8515 19.4258C30.7236 19.424 30.5978 19.3935 30.4833 19.3365L28.3748 18.2879L26.2662 19.3365C26.1669 19.3902 26.0578 19.4232 25.9454 19.4338C25.833 19.4443 25.7196 19.4322 25.612 19.398C25.5044 19.3638 25.4048 19.3083 25.3191 19.2348C25.2334 19.1614 25.1634 19.0714 25.1132 18.9702C25.063 18.8691 25.0337 18.7589 25.027 18.6462C25.0203 18.5336 25.0364 18.4207 25.0742 18.3143C25.112 18.208 25.1709 18.1103 25.2473 18.0272C25.3237 17.944 25.416 17.8771 25.5188 17.8304L27.9955 16.5921C28.1107 16.5316 28.239 16.5 28.3692 16.5C28.4994 16.5 28.6276 16.5316 28.7429 16.5921L31.2196 17.8304C31.4174 17.9316 31.5677 18.1061 31.6386 18.3166C31.7095 18.5272 31.6952 18.7571 31.5989 18.9572C31.5321 19.0988 31.426 19.2182 31.2933 19.3013C31.1606 19.3843 31.0069 19.4275 30.8503 19.4258H30.8515Z" fill="#7B7B7E"/>
</svg>
