<svg width="57" height="57" viewBox="0 0 57 57" fill="none" xmlns="http://www.w3.org/2000/svg">
<rect x="1" y="1" width="55" height="55" rx="27.5" fill="#F8F9FA"/>
<rect x="1" y="1" width="55" height="55" rx="27.5" stroke="#7B7B7E"/>
<path d="M30.2095 32.0992H19.3724C18.8733 32.0978 18.3832 31.9668 17.95 31.719C17.5167 31.4711 17.1554 31.115 16.9013 30.6854C16.6472 30.2558 16.509 29.7676 16.5004 29.2686C16.4918 28.7696 16.613 28.2769 16.8522 27.8388L19.6485 22.7503L22.2647 17.9859C22.5138 17.5357 22.8789 17.1604 23.3221 16.8991C23.7653 16.6378 24.2704 16.5 24.7849 16.5C25.2994 16.5 25.8046 16.6378 26.2478 16.8991C26.691 17.1604 27.0561 17.5357 27.3052 17.9859L29.9334 22.7503L31.1936 25.0425L32.7297 27.8388C32.9689 28.2769 33.0901 28.7696 33.0815 29.2686C33.0729 29.7676 32.9347 30.2558 32.6806 30.6854C32.4265 31.115 32.0651 31.4711 31.6319 31.719C31.1987 31.9668 30.7086 32.0978 30.2095 32.0992Z" stroke="#7B7B7E" stroke-width="1.5" stroke-linecap="round" stroke-linejoin="round"/>
<path d="M40.4945 32.6992C40.4945 34.7681 39.6727 36.7522 38.2098 38.2152C36.7468 39.6781 34.7627 40.4999 32.6938 40.4999C30.6249 40.4999 28.6408 39.6781 27.1778 38.2152C25.7149 36.7522 24.8931 34.7681 24.8931 32.6992C24.8931 32.4952 24.9051 32.3032 24.9171 32.0991H30.2096C30.7087 32.0978 31.1988 31.9668 31.6321 31.7189C32.0653 31.4711 32.4266 31.1149 32.6807 30.6853C32.9348 30.2558 33.073 29.7676 33.0816 29.2685C33.0902 28.7695 32.969 28.2768 32.7298 27.8387L31.1937 25.0425C31.6878 24.9453 32.1902 24.8971 32.6938 24.8985C33.7182 24.8985 34.7326 25.1002 35.679 25.4923C36.6254 25.8843 37.4854 26.4589 38.2098 27.1833C38.9341 27.9076 39.5087 28.7676 39.9007 29.714C40.2928 30.6604 40.4945 31.6748 40.4945 32.6992Z" stroke="#7B7B7E" stroke-width="1.5" stroke-linecap="round" stroke-linejoin="round"/>
</svg>
