<svg width="1542" height="348" viewBox="0 0 1542 348" fill="none" xmlns="http://www.w3.org/2000/svg">
<path d="M164.462 248.102C162.687 248.586 161.03 248.004 159.376 247.577C150.439 245.249 142.513 240.735 134.697 236.004C130.11 233.227 127.595 234.372 126.95 239.633C126.914 239.919 126.96 240.377 126.807 240.463C122.074 243.106 124.538 248.093 123.214 251.85C122.319 254.387 123.799 256.796 125.766 258.674C128.737 261.508 131.685 264.363 135.078 267.627C132.024 267.629 129.541 267.597 127.06 267.649C126.082 267.672 125.11 267.794 124.157 268.015C122.655 268.361 121.355 269.057 121.108 270.786C120.852 272.584 122.144 273.477 123.421 274.2C125.597 275.341 127.938 276.133 130.358 276.549C133.326 277.163 136.323 277.634 139.312 278.169C139.28 278.371 139.311 278.645 139.208 278.713C130.751 284.346 122.961 291.214 113.517 295.071C91.9918 303.863 69.0896 293.845 60.6979 272.193C57.1517 263.038 54.2589 253.633 51.0809 244.342C51.0201 243.99 50.9999 243.633 51.0207 243.277C58.1949 243.533 65.3369 242.208 71.9429 239.393C79.5403 236.203 86.5564 231.77 92.7054 226.276C94.251 224.915 94.9853 224.988 95.9365 226.79C97.0309 228.873 98.2776 230.872 99.6666 232.77C100.643 234.098 100.232 234.714 99.0544 235.457C95.9119 237.439 92.8043 239.478 89.7093 241.536C88.9932 242.012 87.4717 242.284 88.4207 243.585C89.1474 244.58 90.0514 243.538 90.7067 243.114C99.333 237.529 107.91 231.872 116.541 226.298C134.463 214.726 152.236 202.929 169.859 190.906C171.59 189.823 172.869 188.146 173.459 186.187C176.546 176.351 179.779 166.563 182.986 156.764C183.465 155.297 183.764 153.483 185.96 153.841C188.214 154.208 188.094 155.956 188.084 157.71C188.055 163.793 188.078 169.876 188.154 175.96C188.163 176.763 187.839 177.906 188.953 178.239C189.844 178.507 190.305 177.593 190.828 177.047C194.683 173.003 198.462 168.885 202.394 164.917C202.993 164.361 203.444 163.663 203.705 162.887C203.967 162.111 204.031 161.282 203.893 160.474C203.422 156.474 203.055 152.467 202.666 148.46C202.602 147.803 202.24 146.959 202.909 146.54C203.674 146.06 204.421 146.66 205.057 147.1C207.293 148.649 207.859 150.983 208.022 153.518C208.406 159.49 208.81 165.463 209.234 171.436C209.297 172.337 208.866 173.808 210.286 173.732C211.672 173.66 211.158 172.229 211.103 171.34C210.736 165.462 210.397 159.58 209.879 153.714C209.658 151.2 210.934 151.539 212.214 152.352C214.685 153.923 215.383 156.509 215.49 159.248C215.68 164.247 215.774 169.251 215.905 174.254C215.888 174.744 215.904 175.235 215.955 175.723C216.086 176.502 215.644 177.796 217.041 177.673C218.083 177.58 217.841 176.524 217.822 175.753C217.718 171.533 217.618 167.314 217.521 163.095C217.504 162.326 217.577 161.561 217.612 160.676C219.657 161.193 220.341 162.658 220.836 164.299C221.939 168.187 222.141 172.276 221.427 176.253C221.199 177.705 220.769 179.125 220.558 180.577C220.434 181.432 219.631 182.789 221.129 182.997C222.526 183.19 222.204 181.658 222.444 180.809C222.722 179.869 222.909 178.905 223.001 177.929C223.299 174.26 225.868 172.303 228.536 170.424C228.914 170.098 229.386 169.905 229.883 169.872C230.38 169.839 230.874 169.969 231.291 170.243C232.311 170.94 232.032 171.967 231.738 172.915C230.559 176.362 228.838 179.598 226.638 182.498C215.138 198.668 202.591 214.022 190.172 229.474C187.714 232.534 185.157 235.523 182.837 238.685C181.727 240.198 180.801 240.203 179.226 239.488C171.632 236.042 163.982 232.72 156.348 229.363C153.083 227.928 150.965 228.316 149.646 230.556C148.407 232.656 149.063 234.739 151.643 236.859C155.282 239.848 158.941 242.815 162.563 245.824C163.279 246.419 164.315 246.773 164.464 248.103" fill="#F0F5FF"/>
<path d="M218.514 196.668C223.899 203.125 229.171 209.42 234.417 215.736C240.86 223.504 247.271 231.297 253.711 239.068C266.557 254.568 261.508 276.916 243.197 285.187C238.688 287.205 233.708 287.927 228.813 287.271C197.946 283.428 167.084 279.554 136.227 275.65C132.423 275.26 128.693 274.333 125.147 272.898C124.251 272.512 123.048 272.101 123.179 270.992C123.307 269.914 124.497 269.649 125.505 269.609C130.885 269.39 136.238 269.14 141.226 271.919C144.162 273.517 147.34 274.622 150.633 275.188C151.392 275.328 152.428 275.578 152.697 274.663C153.002 273.627 151.989 273.487 151.205 273.344C144.101 272.067 137.648 268.385 132.922 262.914C131.105 260.868 128.95 259.128 127.005 257.192C126.136 256.422 125.512 255.413 125.21 254.291C124.907 253.168 124.939 251.982 125.303 250.878C126.509 250.984 127.068 251.991 127.805 252.646C134.427 258.527 141.221 264.167 149.508 267.585C150.678 268.068 152.613 269.579 153.241 267.836C153.815 266.241 151.352 266.377 150.233 265.883C141.29 261.933 133.961 255.753 126.928 249.152C126.339 248.62 125.917 247.927 125.715 247.158C125.513 246.389 125.54 245.577 125.791 244.823C126.515 242.283 128.001 241.87 129.897 243.677C136.104 249.599 142.775 254.888 150.466 258.769C151.337 259.22 152.231 259.625 153.146 259.98C153.739 260.204 154.536 260.671 154.868 259.675C155.157 258.815 154.45 258.477 153.802 258.189C151.015 256.973 148.33 255.536 145.771 253.892C140.202 250.215 134.999 246.009 130.233 241.333C129.121 240.256 128.07 239.077 129.25 237.527C130.474 235.923 131.874 236.443 133.375 237.398C140.108 241.813 147.317 245.452 154.863 248.248C157.804 249.339 160.877 250.034 164.001 250.312C165.258 250.41 166.694 250.448 167.199 248.885C167.631 247.545 166.741 246.688 165.787 245.912C161.445 242.39 157.107 238.862 152.772 235.329C151.495 234.297 150.219 233.215 151.382 231.415C152.439 229.779 153.89 230.366 155.297 230.99C162.47 234.166 169.688 237.247 176.812 240.528C179.824 241.923 183.073 242.731 186.386 242.909C198.583 243.645 210.774 244.565 222.971 245.411C223.36 245.439 223.754 245.411 224.144 245.44C224.925 245.498 225.86 245.719 225.864 244.516C225.867 243.565 225 243.595 224.336 243.551C221.898 243.383 219.457 243.113 217.021 243.143C215.183 243.166 214.54 242.606 214.318 240.693C213.089 230.155 211.696 219.638 210.316 209.12C210.229 208.695 210.236 208.256 210.336 207.834C210.435 207.413 210.626 207.018 210.894 206.678C213.408 203.434 215.872 200.15 218.517 196.668" fill="#F0F5FF"/>
<path d="M64.8838 239.832C60.7316 241.028 56.4123 241.537 52.0961 241.339C51.5295 241.397 50.9604 241.254 50.4874 240.936C50.0143 240.618 49.667 240.144 49.5056 239.596C39.9503 216.485 48.8044 191.37 70.6659 179.912C72.2286 179.097 73.8406 178.381 75.4925 177.768C78.7709 176.544 81.5732 175.827 85.1263 178.432C90.5794 182.419 96.9849 180.984 102.896 178.779C108.607 176.648 113.409 173.152 116.594 167.763C118.629 164.324 119.463 160.631 118.252 156.752C117.642 154.795 118.716 153.613 119.841 152.7C120.95 151.8 121.645 153.373 122.358 153.968C126.575 157.483 130.691 161.12 134.889 164.658C135.383 165.041 135.792 165.522 136.092 166.071C136.391 166.62 136.573 167.225 136.628 167.848C138.147 180.323 139.732 192.791 141.382 205.25C141.562 205.991 141.485 206.772 141.163 207.464C140.842 208.156 140.296 208.717 139.614 209.056C127.844 216.609 116.12 224.236 104.443 231.937C102.809 233.012 101.984 233.136 100.85 231.224C97.0487 224.82 93.0486 218.533 89.056 212.248C88.5641 211.473 88.2273 209.708 86.8436 210.614C85.8019 211.295 86.9418 212.355 87.4112 213.133C89.0798 215.902 90.7194 218.692 92.5336 221.368C93.3603 222.587 93.3943 223.303 92.2237 224.298C84.0857 231.217 75.275 236.919 64.8838 239.832Z" fill="#F0F5FF"/>
<path d="M99.7427 177.935C96.0386 178.812 92.7456 179.139 89.4286 178.308C85.5785 177.341 82.9998 175.348 81.7584 171.169C78.2335 159.307 74.2638 147.572 70.5413 135.765C69.8771 133.658 69.0598 132.708 66.6078 133.453C63.4368 134.416 60.1176 134.927 56.8523 135.583C52.5923 136.438 49.2426 134.453 48.5146 130.701C47.7808 126.892 50.3808 123.702 54.7488 123.016C57.6528 122.561 60.5622 122.126 63.4502 121.579C69.5045 120.429 72.7168 117.026 73.4434 110.964C73.5254 110.198 73.8463 109.477 74.3604 108.904C74.8546 108.313 75.5599 107.528 75.4933 106.901C75.0784 103.018 77.1428 100.591 79.789 98.2019C80.7312 97.347 81.0502 96.9088 82.2495 97.6268C88.4006 101.304 94.6219 104.86 100.78 108.523C102.984 109.819 104.977 111.445 106.689 113.346C111.829 119.101 110.387 126.525 103.498 129.929C98.5554 132.37 93.3013 132.458 87.976 132.075C87.1582 132.017 86.0417 131.419 85.7493 132.665C85.4733 133.844 86.709 133.955 87.4546 134.31C93.6485 137.276 99.8109 140.31 106.067 143.135C108.144 143.99 109.865 145.533 110.944 147.508C112.169 149.74 113.554 151.891 114.968 154.011C117.594 157.948 117.476 162.011 115.349 166.004C111.899 172.481 106.051 175.875 99.7447 177.933M88.5979 108.362C88.2058 106.791 87.1055 105.347 85.5749 106.06C84.5533 106.555 83.4291 106.801 82.2943 106.777C81.1595 106.753 80.0463 106.46 79.0459 105.922C78.8161 105.826 78.5591 105.817 78.3233 105.897C78.0875 105.978 77.8891 106.141 77.7654 106.358C77.5039 106.755 77.7449 107.073 78.0106 107.374C79.1227 108.628 83.5016 109.337 84.8149 108.351C86.0286 107.441 86.5311 107.756 86.6917 109.144C86.7777 109.885 85.985 111.263 87.4905 111.079C88.853 110.91 88.5674 109.462 88.5979 108.362ZM57.8746 127.327C56.1488 127.684 54.5182 128.404 53.09 129.438C52.6253 129.777 52.1404 130.275 52.5547 130.894C52.9507 131.487 53.5853 131.375 54.1091 131.017C56.8805 129.136 60.226 128.299 63.5547 128.652C64.1963 128.704 64.7734 128.673 64.9203 127.941C65.1246 126.927 64.2828 126.84 63.6472 126.771C61.7053 126.539 59.7365 126.728 57.8746 127.327ZM87.3015 116.984C88.8755 116.403 90.2096 115.309 91.0905 113.878C91.4094 113.327 91.565 112.749 90.989 112.317C90.356 111.841 89.9087 112.309 89.5462 112.79C87.7824 115.142 85.7641 116.133 83.1126 114.089C82.6243 113.712 82.0604 113.494 81.6568 114.222C81.2966 114.871 81.6807 115.301 82.1426 115.717C82.8411 116.324 83.6737 116.755 84.5713 116.975C85.469 117.195 86.4059 117.198 87.3045 116.982M80.3117 124.363C81.6872 123.645 82.3665 122.618 81.9198 121.038C81.8709 120.697 81.7439 120.372 81.5488 120.089C81.3537 119.805 81.0958 119.571 80.7953 119.404C80.4948 119.237 80.16 119.143 79.8169 119.127C79.4738 119.112 79.1319 119.176 78.818 119.316C78.455 119.378 78.111 119.522 77.8121 119.738C77.5133 119.953 77.2674 120.234 77.0934 120.56C76.9193 120.885 76.8215 121.246 76.8076 121.615C76.7937 121.984 76.8639 122.351 77.0129 122.689C77.5061 124.276 78.8686 124.473 80.3117 124.363ZM77.6224 114.877C78.3237 114.614 78.7668 114.159 78.6223 113.36C78.6099 113.165 78.5522 112.976 78.4537 112.808C78.3553 112.64 78.219 112.498 78.0556 112.392C77.8923 112.286 77.7066 112.221 77.5134 112.2C77.3201 112.18 77.1248 112.205 76.9431 112.274C76.7751 112.304 76.6146 112.367 76.4712 112.459C76.3277 112.552 76.204 112.672 76.1074 112.813C76.0107 112.954 75.9429 113.113 75.9081 113.281C75.8732 113.448 75.8719 113.621 75.9042 113.789C76.0718 114.672 76.7377 115.004 77.622 114.875M85.2271 101.973C84.8699 101.359 84.4489 100.843 83.6395 100.983C83.4444 100.994 83.2546 101.051 83.085 101.148C82.9154 101.245 82.7705 101.381 82.6618 101.544C82.5531 101.707 82.4835 101.892 82.4585 102.087C82.4334 102.281 82.4536 102.479 82.5174 102.664C82.5437 102.834 82.6043 102.996 82.6955 103.142C82.7867 103.287 82.9067 103.412 83.0479 103.51C83.1891 103.607 83.3487 103.674 83.5168 103.707C83.6848 103.74 83.8579 103.739 84.0253 103.702C84.9463 103.573 85.1796 102.804 85.2271 101.973Z" fill="#F0F5FF"/>
<path d="M165.035 247.926C165.051 247.992 165.094 248.066 165.077 248.113C165.059 248.16 164.965 248.259 164.919 248.251C164.63 248.201 164.596 248.061 164.827 247.88C164.866 247.854 164.966 247.908 165.035 247.926Z" fill="#F0F5FF"/>
<path d="M187.198 91.142C184.878 91.7518 182.429 91.6475 180.168 90.8427C178.605 90.2721 177.063 89.6481 175.502 89.07C172.559 87.9796 172.478 88.0418 172.698 91.0829C172.877 92.8959 172.605 94.725 171.907 96.4067C171.209 98.0884 170.107 99.5704 168.699 100.72C167.29 101.87 165.619 102.652 163.836 102.997C162.052 103.341 160.211 103.237 158.476 102.694C156.717 102.209 155.114 101.276 153.822 99.9842C152.53 98.6927 151.593 97.0875 151.104 95.3253C150.172 92.235 150.126 92.2188 147.614 94.4747C144.901 96.9128 142.227 99.4228 138.214 99.2085C136.949 99.1808 135.692 98.9949 134.473 98.655C130.164 97.2868 129.504 95.9674 130.894 91.6874C134.984 79.1015 139.112 66.5257 143.164 53.9328C143.751 52.1303 144.111 51.2179 146.47 52.1085C153.233 54.6615 159.786 53.715 165.717 49.5933C167.481 48.3681 168.062 48.7054 169.125 50.3911C176.327 61.8153 183.659 73.157 190.954 84.5234C192.915 87.58 192.822 88.1276 189.764 89.9565C188.935 90.4049 188.079 90.8009 187.201 91.1422" fill="#F0F5FF"/>
<path d="M116.949 153.039C120.618 147.89 125.937 144.158 132.019 142.465C133.61 142.026 133.305 140.996 133.175 139.956C131.506 126.705 129.847 113.453 128.12 100.209C127.681 97.5124 127.879 94.7499 128.7 92.1445C136.16 69.6948 143.489 47.2007 150.882 24.7296C151.204 23.7526 151.132 22.2639 152.343 22.0529C153.81 21.798 154.071 23.4509 154.65 24.3517C167.532 44.3806 180.304 64.4854 193.265 84.458C195.403 87.7522 195.449 91.3178 195.914 94.8603C198 110.732 199.98 126.617 201.946 142.501C202.084 143.616 202.245 144.427 203.556 144.438C203.749 144.44 203.94 144.506 204.135 144.522C207.787 144.744 207.82 149.585 211.489 150.112C215.283 150.654 216.34 153.974 217.144 157.225C217.283 157.783 217.311 158.412 218.009 158.64C222.685 160.168 222.812 164.373 223.557 168.19C223.702 169.268 223.789 170.354 223.817 171.441C225.065 170.465 226.364 169.558 227.708 168.722C229.327 167.831 231.072 167.56 232.679 168.843C234.244 170.092 234.111 171.764 233.613 173.427C232.408 177.44 230.092 180.878 227.78 184.287C225.779 187.319 223.613 190.238 221.291 193.03C219.892 194.669 220.084 195.618 221.381 197.17C232.758 210.77 244.08 224.416 255.346 238.108C268.644 254.332 263.578 277.413 244.757 286.522C239.859 288.856 234.411 289.784 229.017 289.203C227.161 289.097 225.314 288.859 223.491 288.491C220.651 287.806 220.264 288.873 220.697 291.435C221.843 298.218 221.74 298.118 214.86 298.952C195.613 301.291 176.375 303.705 157.147 306.195C154.756 306.506 153.893 306.136 153.643 303.54C152.938 296.212 151.86 288.921 151.01 281.606C150.823 279.995 150.23 279.391 148.549 279.072C146.902 278.699 145.195 278.693 143.546 279.056C141.898 279.419 140.35 280.141 139.011 281.172C132.092 286.117 125.151 291.171 117.683 295.178C95.1007 307.293 68.1025 296.937 58.7923 272.423C53.7376 259.136 48.9837 245.675 45.2225 231.939C38.6853 208.086 53.723 181.867 77.4815 175.209C80.9412 174.239 80.8529 174.268 79.7129 170.735C76.2395 159.997 72.7839 149.251 69.4503 138.468C68.6672 135.939 67.7862 134.703 64.8373 135.772C62.2874 136.699 59.495 136.949 56.8103 137.51C52.3118 138.445 48.5848 136.436 47.0284 132.103C46.7159 131.194 46.133 130.404 45.3584 129.837C41.922 127.15 40.6712 123.606 41.9421 119.396C42.3248 118.126 42.1239 117.628 41.0624 116.842C35.0882 112.429 35.6381 104.499 42.1587 100.883C43.453 100.165 43.8428 99.6324 43.4279 98.0597C41.8836 92.1988 45.3138 87.204 51.3836 86.4486C52.0283 86.4304 52.6552 86.2331 53.1945 85.8786C53.7338 85.5241 54.1643 85.0263 54.4379 84.4408C57.5459 79.0365 64.4626 78.1627 68.9847 82.5565C69.3809 82.9681 69.8596 83.2907 70.3892 83.5029C70.9189 83.7151 71.4874 83.8122 72.0571 83.7876C77.5125 83.8755 81.2904 87.5416 81.3921 93.031C81.3503 93.6505 81.5005 94.268 81.8221 94.7989C82.1436 95.3298 82.6209 95.7481 83.1886 95.9966C88.7383 99.1438 94.2508 102.357 99.7611 105.571C102.949 107.32 105.829 109.583 108.283 112.271C113.758 118.567 112.708 126.449 105.625 130.876C103.936 131.932 103.758 132.489 104.838 134.158C108.781 140.243 112.524 146.451 116.355 152.61C116.45 152.762 116.667 152.838 116.956 153.039M173.056 98.5596C170.666 102.175 167.486 104.51 163.062 104.995C158.648 105.48 155.034 103.744 151.598 100.624L163.746 193.067C166.35 190.147 170.215 189.756 171.388 186.158C174.608 176.281 177.828 166.403 181.048 156.525C181.417 155.418 181.513 154.237 181.327 153.085C180.304 145.994 179.398 138.888 178.39 131.795C176.832 120.831 175.225 109.873 173.639 98.9138C174.038 98.5751 173.795 98.2751 173.584 97.9725L173.048 98.5617M164.462 248.103C164.313 246.772 163.277 246.418 162.561 245.824C158.938 242.815 155.28 239.849 151.641 236.86C149.06 234.74 148.407 232.656 149.643 230.556C150.963 228.316 153.082 227.928 156.347 229.363C163.981 232.72 171.63 236.042 179.224 239.488C180.799 240.203 181.728 240.197 182.835 238.685C185.154 235.523 187.711 232.535 190.17 229.475C202.589 214.022 215.137 198.668 226.636 182.499C228.835 179.598 230.557 176.363 231.735 172.915C232.029 171.967 232.308 170.941 231.288 170.243C230.872 169.97 230.378 169.84 229.881 169.872C229.384 169.905 228.911 170.099 228.534 170.424C225.866 172.305 223.294 174.262 222.999 177.929C222.909 178.906 222.725 179.872 222.449 180.814C222.21 181.663 222.531 183.195 221.134 183.002C219.636 182.795 220.44 181.437 220.564 180.582C220.775 179.129 221.205 177.71 221.432 176.258C222.146 172.281 221.944 168.192 220.84 164.304C220.346 162.663 219.666 161.197 217.617 160.682C217.581 161.566 217.509 162.334 217.525 163.101C217.613 167.318 217.714 171.537 217.826 175.759C217.845 176.527 218.087 177.586 217.045 177.679C215.649 177.802 216.091 176.508 215.959 175.728C215.908 175.24 215.892 174.75 215.909 174.26C215.771 169.259 215.681 164.254 215.494 159.253C215.39 156.515 214.687 153.926 212.217 152.358C210.938 151.545 209.661 151.205 209.883 153.72C210.399 159.585 210.738 165.467 211.107 171.346C211.163 172.234 211.676 173.665 210.29 173.737C208.869 173.811 209.3 172.339 209.237 171.441C208.817 165.47 208.413 159.497 208.026 153.524C207.861 150.989 207.296 148.655 205.061 147.106C204.429 146.664 203.677 146.066 202.913 146.545C202.244 146.964 202.606 147.809 202.669 148.466C203.056 152.473 203.428 156.482 203.897 160.48C204.035 161.287 203.971 162.117 203.709 162.892C203.447 163.668 202.997 164.366 202.398 164.923C198.466 168.89 194.688 173.012 190.831 177.053C190.31 177.601 189.85 178.514 188.956 178.245C187.838 177.91 188.165 176.764 188.157 175.966C188.089 169.883 188.065 163.799 188.087 157.715C188.096 155.962 188.217 154.213 185.963 153.847C183.769 153.49 183.469 155.303 182.99 156.77C179.784 166.572 176.551 176.356 173.462 186.192C172.873 188.152 171.593 189.829 169.862 190.912C152.229 202.922 134.457 214.719 116.546 226.303C107.914 231.877 99.337 237.537 90.71 243.119C90.0523 243.544 89.1507 244.586 88.4248 243.59C87.4764 242.288 88.9963 242.017 89.7134 241.541C92.8079 239.485 95.9154 237.446 99.0587 235.463C100.235 234.717 100.649 234.104 99.6709 232.776C98.2814 230.877 97.0341 228.878 95.9394 226.794C94.9882 224.992 94.2556 224.925 92.7082 226.28C86.5603 231.774 79.5452 236.206 71.949 239.396C65.343 242.211 58.2009 243.537 51.0268 243.281C51.0063 243.637 51.0265 243.994 51.087 244.345C54.264 253.636 57.1556 263.042 60.7036 272.195C69.0952 293.846 91.9993 303.868 113.522 295.073C122.967 291.214 130.757 284.346 139.214 278.714C139.316 278.646 139.283 278.372 139.318 278.171C136.328 277.636 133.332 277.164 130.364 276.551C127.944 276.135 125.603 275.342 123.426 274.202C122.149 273.478 120.857 272.586 121.113 270.788C121.359 269.058 122.66 268.362 124.161 268.017C125.114 267.796 126.086 267.674 127.064 267.652C129.545 267.6 132.03 267.631 135.083 267.629C131.691 264.365 128.742 261.51 125.771 258.676C123.803 256.798 122.323 254.389 123.219 251.851C124.543 248.095 122.079 243.108 126.812 240.465C126.965 240.379 126.923 239.919 126.955 239.635C127.605 234.377 130.115 233.232 134.703 236.006C142.519 240.737 150.444 245.253 159.382 247.578C161.04 248.007 162.693 248.591 164.468 248.103M218.515 196.67C215.87 200.152 213.406 203.435 210.891 206.68C210.623 207.02 210.433 207.415 210.333 207.837C210.233 208.258 210.227 208.697 210.313 209.122C211.693 219.64 213.086 230.157 214.315 240.695C214.539 242.612 215.181 243.167 217.018 243.145C219.455 243.115 221.895 243.382 224.333 243.554C224.998 243.599 225.865 243.572 225.862 244.518C225.858 245.723 224.924 245.5 224.141 245.442C223.751 245.413 223.358 245.44 222.968 245.414C210.774 244.563 198.586 243.646 186.383 242.911C183.071 242.733 179.822 241.925 176.809 240.531C169.684 237.25 162.468 234.168 155.295 230.992C153.886 230.368 152.435 229.783 151.38 231.417C150.217 233.217 151.492 234.295 152.77 235.331C157.116 238.852 161.444 242.392 165.786 245.917C166.74 246.693 167.629 247.547 167.198 248.891C166.694 250.456 165.257 250.415 163.999 250.317C160.875 250.039 157.802 249.344 154.861 248.253C147.315 245.457 140.107 241.818 133.373 237.403C131.875 236.447 130.473 235.928 129.248 237.532C128.069 239.079 129.121 240.258 130.231 241.338C134.998 246.013 140.202 250.217 145.771 253.893C148.33 255.537 151.016 256.974 153.803 258.19C154.451 258.478 155.157 258.816 154.87 259.676C154.536 260.672 153.74 260.205 153.147 259.982C152.233 259.626 151.338 259.222 150.466 258.77C142.772 254.89 136.105 249.6 129.9 243.676C128.006 241.869 126.517 242.283 125.793 244.823C125.542 245.577 125.515 246.389 125.717 247.158C125.919 247.927 126.341 248.62 126.93 249.152C133.962 255.754 141.293 261.933 150.235 265.883C151.353 266.377 153.816 266.242 153.243 267.836C152.617 269.579 150.68 268.068 149.51 267.585C141.223 264.167 134.429 258.526 127.807 252.646C127.07 251.991 126.511 250.987 125.304 250.878C124.941 251.981 124.908 253.168 125.211 254.291C125.513 255.413 126.138 256.422 127.006 257.192C128.951 259.128 131.106 260.868 132.923 262.914C137.65 268.385 144.103 272.065 151.206 273.342C151.992 273.488 153.005 273.632 152.698 274.66C152.429 275.575 151.393 275.324 150.634 275.185C147.341 274.619 144.164 273.515 141.227 271.917C136.239 269.136 130.885 269.386 125.506 269.606C124.498 269.647 123.308 269.912 123.181 270.989C123.049 272.098 124.252 272.507 125.148 272.895C128.694 274.331 132.425 275.257 136.229 275.648C167.085 279.553 197.946 283.427 228.809 287.27C233.705 287.926 238.685 287.204 243.194 285.186C261.504 276.914 266.554 254.566 253.708 239.067C247.268 231.296 240.857 223.502 234.413 215.735C229.171 209.417 223.9 203.123 218.51 196.667M64.883 239.834C75.2758 236.921 84.0867 231.219 92.2235 224.295C93.3908 223.302 93.361 222.585 92.5333 221.366C90.7192 218.693 89.0797 215.901 87.4104 213.131C86.9449 212.353 85.8042 211.293 86.8433 210.612C88.2297 209.706 88.564 211.472 89.0557 212.246C93.052 218.531 97.0487 224.818 100.85 231.222C101.984 233.135 102.809 233.011 104.443 231.935C116.127 224.246 127.851 216.62 139.614 209.056C140.296 208.717 140.843 208.156 141.164 207.464C141.486 206.772 141.563 205.991 141.383 205.25C139.737 192.791 138.152 180.324 136.63 167.848C136.575 167.225 136.392 166.619 136.093 166.07C135.794 165.521 135.384 165.04 134.891 164.658C130.692 161.12 126.576 157.483 122.36 153.968C121.647 153.373 120.951 151.8 119.843 152.7C118.716 153.614 117.643 154.795 118.253 156.752C119.462 160.63 118.63 164.324 116.596 167.763C113.409 173.152 108.609 176.648 102.898 178.779C96.9873 180.985 90.5773 182.42 85.128 178.431C81.5718 175.827 78.7719 176.543 75.4943 177.767C73.8424 178.38 72.2304 179.096 70.6677 179.911C48.8078 191.371 39.9537 216.484 49.5081 239.595C49.6694 240.143 50.0167 240.617 50.4898 240.935C50.9629 241.253 51.532 241.396 52.0986 241.338C56.4136 241.537 60.7318 241.029 64.883 239.834ZM99.7446 177.941C106.05 175.879 111.897 172.485 115.348 166.012C117.474 162.02 117.594 157.959 114.968 154.02C113.553 151.9 112.169 149.749 110.943 147.516C109.865 145.541 108.143 143.998 106.066 143.143C99.8092 140.319 93.646 137.281 87.4537 134.318C86.7073 133.96 85.4722 133.851 85.749 132.672C86.0408 131.427 87.1579 132.024 87.9751 132.083C93.3002 132.465 98.5552 132.377 103.497 129.937C110.391 126.532 111.828 119.107 106.688 113.354C104.976 111.453 102.984 109.826 100.78 108.531C94.6205 104.86 88.4004 101.302 82.2495 97.6253C81.0514 96.9086 80.7326 97.351 79.7898 98.2001C77.1427 100.589 75.0794 103.02 75.4931 106.898C75.5599 107.526 74.8535 108.311 74.3602 108.901C73.8457 109.474 73.5248 110.196 73.4434 110.962C72.7168 117.028 69.5051 120.43 63.4502 121.58C60.5634 122.129 57.6544 122.562 54.749 123.019C50.3808 123.704 47.78 126.894 48.5147 130.703C49.2389 134.457 52.5915 136.441 56.8499 135.585C60.1142 134.929 63.4296 134.42 66.6053 133.455C69.0572 132.71 69.8739 133.661 70.5379 135.767C74.2619 147.576 78.2295 159.306 81.7552 171.172C82.9964 175.35 85.5753 177.344 89.4262 178.31C92.7415 179.139 96.0354 178.814 99.7404 177.938M187.195 91.1436C188.073 90.8023 188.93 90.4063 189.759 89.9579C192.816 88.129 192.909 87.5822 190.948 84.5251C183.655 73.159 176.324 61.8169 169.121 50.3928C168.057 48.7015 167.477 48.3699 165.713 49.595C159.782 53.716 153.229 54.6632 146.466 52.11C144.107 51.2197 143.747 52.1313 143.169 53.9314C139.117 66.5294 134.989 79.1009 130.899 91.6868C129.509 95.9668 130.169 97.2862 134.478 98.6544C135.697 98.9945 136.954 99.1805 138.219 99.2082C142.231 99.4198 144.905 96.9116 147.618 94.4743C150.13 92.2176 150.176 92.2346 151.108 95.3249C151.598 97.0871 152.534 98.6922 153.826 99.9836C155.118 101.275 156.722 102.209 158.48 102.694C160.215 103.237 162.056 103.341 163.84 102.996C165.624 102.652 167.294 101.87 168.703 100.72C170.111 99.57 171.214 98.088 171.911 96.4063C172.609 94.7246 172.881 92.8955 172.702 91.0825C172.48 88.0429 172.558 87.98 175.506 89.0697C177.066 89.6479 178.609 90.271 180.172 90.8415C182.433 91.6468 184.882 91.7514 187.202 91.1417M143.393 206.51C149.527 202.337 155.151 198.46 160.843 194.686C161.257 194.441 161.576 194.063 161.748 193.613C161.921 193.164 161.938 192.669 161.796 192.208C161.13 187.348 160.475 182.486 159.832 177.622C157.181 157.485 154.533 137.347 151.889 117.209C150.97 110.219 150.045 103.229 149.04 95.608C143.278 101.783 136.986 102.774 129.844 98.6158L143.393 206.51ZM193.335 89.5646C187.248 95.005 181.102 93.7742 174.603 90.7473C175.71 98.7596 176.737 106.218 177.773 113.676C179.49 126.03 181.208 138.385 182.927 150.739C183.044 151.584 182.823 152.371 184.334 152.18C188.402 151.665 189.905 153.09 189.948 157.168C190.012 162.934 190.033 168.698 190.072 175.068C193.67 171.247 196.785 167.755 200.118 164.485C200.837 163.852 201.378 163.041 201.689 162.134C202 161.226 202.068 160.252 201.888 159.31C200.438 147.62 199.2 135.904 197.775 124.21C196.388 112.83 194.864 101.466 193.334 89.564M152.589 279.678C153.557 287.407 154.482 294.886 155.446 302.359C155.574 303.347 155.408 304.547 157.228 304.288C162.849 303.481 168.495 302.842 174.131 302.145C175.275 302.004 176.214 301.821 175.984 300.225C175.18 294.686 174.43 289.139 173.735 283.584C173.732 283.193 173.576 282.818 173.301 282.54C173.026 282.262 172.653 282.104 172.262 282.099C165.781 281.294 159.299 280.503 152.59 279.68M208.516 209.729C204.232 215.053 200.32 219.946 196.365 224.805C196.083 225.205 195.894 225.663 195.812 226.147C195.731 226.63 195.759 227.125 195.895 227.596C196.487 231.775 197.206 235.94 197.659 240.134C197.816 241.586 198.437 241.928 199.65 242.006C203.16 242.232 206.687 242.357 210.172 242.79C212.341 243.058 212.763 242.446 212.479 240.365C211.108 230.347 209.872 220.31 208.518 209.739M197.902 286.752C198.06 285.534 197.309 285.237 196.157 285.103C189.861 284.362 183.571 283.575 177.287 282.741C175.999 282.571 175.451 282.748 175.659 284.187C176.431 289.523 177.228 294.856 177.836 300.212C178.018 301.853 178.807 301.477 179.798 301.353C185.809 300.602 191.825 299.85 197.843 299.185C199.115 299.044 199.47 298.676 199.267 297.36C198.727 293.874 198.355 290.362 197.902 286.752ZM199.685 285.554C200.173 289.621 200.671 293.494 201.091 297.377C201.259 298.93 202.283 298.629 203.227 298.508C206.617 298.072 210.004 297.618 213.389 297.146C219.584 296.274 219.535 296.269 218.645 289.881C218.461 288.554 218.263 287.814 216.69 287.648C211.094 287.056 205.517 286.288 199.683 285.555M183.582 240.759C187.506 241.053 190.892 241.315 194.28 241.552C195.025 241.605 195.976 241.823 195.799 240.521C195.249 236.468 194.676 232.418 194.026 227.745L183.582 240.759ZM165.034 247.926C164.963 247.91 164.862 247.855 164.826 247.884C164.594 248.062 164.627 248.203 164.917 248.253C164.962 248.26 165.05 248.176 165.075 248.115C165.1 248.054 165.048 247.99 165.034 247.926Z" fill="#0A0A0C"/>
<path d="M88.5977 108.366C88.5663 109.466 88.8511 110.915 87.4911 111.082C85.9849 111.268 86.7785 109.89 86.6922 109.148C86.531 107.761 86.0307 107.444 84.8154 108.355C83.5003 109.341 79.1221 108.633 78.01 107.38C77.7435 107.079 77.5027 106.762 77.7648 106.364C77.8886 106.147 78.0871 105.983 78.323 105.903C78.559 105.822 78.8161 105.831 79.0461 105.928C80.0465 106.466 81.1597 106.759 82.2945 106.783C83.4293 106.807 84.5535 106.561 85.575 106.065C87.0993 105.355 88.2068 106.796 88.5981 108.368" fill="#0A0A0C"/>
<path d="M57.8739 127.331C59.7368 126.733 61.7066 126.545 63.6491 126.779C64.2863 126.847 65.1273 126.934 64.9222 127.949C64.774 128.676 64.1978 128.711 63.5574 128.659C60.2287 128.306 56.8832 129.144 54.1118 131.025C53.5877 131.382 52.9516 131.494 52.5574 130.902C52.142 130.278 52.6285 129.781 53.0909 129.442C54.5183 128.407 56.1485 127.688 57.8739 127.331Z" fill="#0A0A0C"/>
<path d="M87.3029 116.987C86.4042 117.202 85.4671 117.2 84.5693 116.98C83.6715 116.76 82.8388 116.328 82.1402 115.721C81.6855 115.304 81.2974 114.875 81.6544 114.226C82.0594 113.498 82.6217 113.715 83.1102 114.093C85.7618 116.141 87.7813 115.148 89.5438 112.795C89.9059 112.312 90.3532 111.844 90.9866 112.321C91.5624 112.753 91.4068 113.331 91.0881 113.882C90.2068 115.313 88.8727 116.407 87.2989 116.988" fill="#0A0A0C"/>
<path d="M77.6203 114.879C76.7395 115.005 76.0739 114.673 75.9053 113.79C75.873 113.622 75.8743 113.449 75.9091 113.282C75.944 113.114 76.0117 112.955 76.1084 112.814C76.205 112.673 76.3287 112.553 76.4721 112.461C76.6156 112.368 76.776 112.305 76.944 112.275C77.1257 112.206 77.321 112.181 77.5142 112.201C77.7074 112.222 77.8931 112.288 78.0564 112.393C78.2197 112.499 78.3561 112.642 78.4545 112.81C78.5529 112.978 78.6106 113.166 78.623 113.361C78.7675 114.16 78.3237 114.616 77.6203 114.879Z" fill="#0A0A0C"/>
<path d="M85.2252 101.975C85.1776 102.806 84.9438 103.576 84.0235 103.708C83.8556 103.745 83.6819 103.747 83.5132 103.714C83.3444 103.681 83.1842 103.614 83.0424 103.516C82.9006 103.419 82.7803 103.293 82.6889 103.147C82.5974 103.001 82.5369 102.838 82.5109 102.667C82.4468 102.482 82.4266 102.284 82.4518 102.089C82.477 101.894 82.5469 101.708 82.656 101.545C82.7652 101.382 82.9106 101.246 83.0808 101.149C83.251 101.052 83.4414 100.996 83.6369 100.985C84.4458 100.843 84.868 101.361 85.2252 101.975Z" fill="#0A0A0C"/>
<path d="M80.3086 124.366C78.8663 124.476 77.5049 124.282 77.0069 122.693C76.8577 122.355 76.7874 121.987 76.8015 121.618C76.8156 121.249 76.9136 120.887 77.088 120.562C77.2625 120.236 77.5088 119.955 77.8082 119.739C78.1076 119.524 78.4521 119.38 78.8155 119.318C79.1295 119.179 79.4714 119.115 79.8143 119.131C80.1573 119.146 80.492 119.241 80.7923 119.408C81.0927 119.575 81.3504 119.809 81.5454 120.093C81.7405 120.376 81.8674 120.701 81.9165 121.042C82.3639 122.621 81.6839 123.648 80.3086 124.366Z" fill="#F87DDF"/>
<path d="M1269.39 300.392C1237.3 294.713 1223.7 264.786 1237.95 239.97C1242.11 232.847 1246.99 226.171 1252.52 220.047C1261.7 209.707 1271.02 199.497 1280.24 189.198C1281.27 188.053 1282.08 187.105 1283.87 187.753C1299.26 193.348 1312.87 201.323 1321.49 215.944C1325.91 223.442 1325.85 223.479 1320.2 229.669C1317.83 232.266 1315.26 234.708 1313.11 237.48C1311.48 239.581 1310.11 239.512 1307.94 238.414C1302.85 235.85 1297.63 233.551 1292.44 231.208C1291.56 230.813 1290.4 229.422 1289.63 230.817C1288.63 232.63 1290.78 232.649 1291.63 233.045C1307.1 240.317 1322.6 247.525 1338.14 254.667C1340.68 255.781 1342.84 257.629 1344.34 259.975C1346.51 263.337 1348.92 266.551 1351.25 269.805C1351.72 270.454 1352.1 271.421 1353.21 271.038C1354.15 270.711 1353.9 269.865 1353.84 269.175C1353.35 263.728 1355.79 259.371 1358.82 255.139C1362.92 249.418 1366.83 243.562 1372.4 239.095C1373.74 237.835 1375.44 237.03 1377.26 236.797C1379.78 236.654 1381.51 238.877 1381.19 241.777C1380.8 244.676 1379.81 247.462 1378.27 249.95C1376.58 252.631 1375.66 255.731 1375.63 258.903C1375.72 268.792 1382.67 274.356 1392.27 272.154C1396.33 271.394 1400.22 269.866 1403.71 267.65C1407.38 265.129 1408.4 262.618 1407.4 258.293C1406.88 256.05 1406.19 253.849 1405.62 251.616C1405.16 249.835 1405.37 248.224 1407.01 247.089C1407.72 246.608 1408.57 246.364 1409.43 246.393C1410.3 246.422 1411.13 246.722 1411.81 247.25C1414.45 249.034 1416.47 251.596 1417.58 254.58C1420.71 262.018 1421.52 270.226 1419.9 278.13C1418.52 285.335 1414.09 289.396 1406.64 290.715C1372.72 296.639 1338.41 300.035 1303.99 300.875C1291.27 301.219 1278.53 302.217 1269.38 300.396" fill="#F7F8F9"/>
<path d="M1472.26 150.253C1478.34 144.136 1486.77 142.632 1493.41 147.414C1503.99 155.039 1511.57 164.839 1512.33 178.641C1512.73 186.034 1510.11 192.722 1507.76 199.469C1500.98 218.949 1494.22 238.438 1487.26 257.852C1481.98 272.599 1474.72 286.558 1465.67 299.344C1460.28 306.969 1452.72 310.138 1443.43 308.215C1434.19 306.302 1428.96 300.427 1426.29 291.416C1423.09 280.633 1422.32 270.259 1427.55 259.861C1429.12 256.737 1429.36 253.095 1429.57 249.552C1430 242.04 1427.49 239.503 1420.2 240.289C1420.27 237.374 1421.39 235.738 1424.43 234.584C1438.7 229.174 1448.57 219.174 1453.99 204.85C1454.42 203.727 1454.88 202.619 1455.41 201.301C1457.52 202.718 1456.21 204.209 1455.72 205.39C1451.26 215.879 1446.72 226.328 1442.2 236.792C1442.08 236.999 1441.97 237.219 1441.89 237.447C1441.71 238.298 1440.62 239.356 1441.92 239.956C1443.21 240.555 1443.42 239.244 1443.8 238.373C1445.71 233.915 1447.62 229.462 1449.55 225.011C1452.53 218.111 1455.52 211.215 1458.56 204.194C1461.84 206.29 1464.95 208.401 1468.65 209.325C1469.41 209.516 1470.38 210.219 1470.83 209.059C1471.31 207.845 1470.06 207.713 1469.37 207.468C1465 205.97 1461.01 203.53 1457.68 200.322C1456.24 198.943 1456.13 197.603 1456.43 195.78C1458.35 185.185 1456.71 174.253 1451.77 164.686C1451.3 163.922 1451.08 163.031 1451.14 162.136C1451.2 161.241 1451.53 160.386 1452.09 159.689C1453.35 157.71 1454.99 156.002 1456.92 154.668C1458.85 153.334 1461.03 152.4 1463.32 151.921C1465.62 151.442 1467.98 151.428 1470.29 151.879C1472.59 152.331 1474.77 153.239 1476.72 154.55C1477.74 155.125 1478.54 156.018 1479.01 157.091C1479.47 158.165 1479.57 159.361 1479.3 160.498C1479.09 161.712 1478.48 162.82 1477.56 163.64C1476.64 164.459 1475.47 164.941 1474.24 165.006C1469.78 165.496 1465.32 165.997 1460.87 166.507C1459.96 166.613 1458.5 166.425 1458.59 167.683C1458.71 169.247 1460.24 168.536 1461.22 168.6C1461.58 168.595 1461.94 168.539 1462.29 168.435C1465.35 167.78 1467.36 167.754 1466.78 172.159C1466.25 176.246 1469.07 179.187 1472.32 181.341C1473.73 182.25 1474.86 183.531 1475.59 185.042C1476.84 187.563 1478.9 189.599 1481.43 190.831C1483.96 192.064 1486.83 192.425 1489.59 191.859C1493.81 190.914 1496.44 187.45 1495.99 183.436C1495.69 181.563 1494.72 179.862 1493.27 178.642C1491.82 177.422 1489.97 176.765 1488.08 176.791C1487.22 176.776 1486.06 176.693 1485.89 177.62C1485.61 179.153 1487.08 178.756 1487.91 178.926C1492.49 179.872 1494.41 181.871 1493.82 185.169C1493.23 188.468 1490.18 190.309 1485.95 189.881C1483.46 189.6 1481.14 188.479 1479.37 186.703C1477.61 184.927 1476.5 182.602 1476.23 180.111C1475.91 177.742 1476.43 175.334 1477.69 173.305C1478.96 171.277 1480.89 169.754 1483.16 169C1486.16 167.967 1489.35 167.631 1492.49 168.018C1493.45 168.107 1494.84 168.485 1495 167.348C1495.2 165.828 1493.59 166.013 1492.58 165.88C1484.08 164.762 1477.23 168.093 1474.81 174.62C1474.33 176.248 1473.96 177.909 1473.72 179.588C1472.58 179.006 1471.57 178.198 1470.76 177.212C1469.95 176.227 1469.35 175.085 1468.99 173.858C1467.79 169.784 1469.17 167.668 1473.37 167.304C1477.28 166.969 1480.13 165.323 1481.24 161.462C1481.41 160.753 1481.79 160.116 1482.34 159.644C1482.9 159.173 1483.59 158.893 1484.31 158.846C1486.23 158.568 1488.16 158.452 1490.08 158.241C1490.78 158.164 1491.75 158.248 1491.83 157.335C1491.95 156.059 1490.79 156.231 1490.02 156.185C1487.33 156.024 1484.62 157.219 1482.16 156.983C1480.01 156.781 1479.46 153.058 1476.9 152.19C1475.42 151.687 1474 150.988 1472.25 150.248" fill="#F7F8F9"/>
<path d="M1313.14 240.56C1320.64 232.361 1327.99 224.322 1335.34 216.289C1338.05 213.338 1340.76 210.401 1343.47 207.451C1344.06 206.804 1344.72 205.949 1343.94 205.233C1343.06 204.429 1342.42 205.448 1341.88 206.033C1336.95 211.364 1332.04 216.719 1326.97 222.235C1318.9 202.578 1302.99 192.466 1283.65 185.384C1288.47 180.073 1292.95 174.945 1297.64 170.022C1302.52 165.099 1307.99 160.813 1313.95 157.268C1314.77 156.673 1315.74 156.324 1316.75 156.261C1317.76 156.198 1318.77 156.424 1319.66 156.913C1326.47 160.089 1333.36 163.111 1340.25 166.109C1341.12 166.488 1342.5 167.549 1343.11 166.243C1343.72 164.936 1342.11 164.62 1341.18 164.205C1334.14 161.071 1327.08 157.957 1319.42 154.567C1325.65 151.176 1331.75 149.446 1337.93 147.923C1338.63 147.751 1339.35 147.64 1340.07 147.505C1346.32 146.326 1346.32 146.326 1349.39 151.826C1349.68 152.355 1349.98 152.886 1350.27 153.417C1350.64 154.088 1351.13 154.752 1351.96 154.332C1352.83 153.892 1352.49 153.064 1352.16 152.431C1351.18 150.521 1350.14 148.641 1348.93 146.4C1357.15 145.715 1365.42 146.262 1373.48 148.022C1373.7 149.381 1372.59 149.748 1371.95 150.367C1350.81 170.856 1350.48 202.732 1371.34 223.546C1373.1 225.294 1372.95 226.916 1372.9 229.003C1372.81 233.7 1371.51 237.348 1367.67 240.64C1362.33 245.217 1358.6 251.342 1354.9 257.325C1353.83 259.057 1352.94 259.396 1351.15 258.547C1338.99 252.791 1326.8 247.105 1314.62 241.39C1314.21 241.197 1313.83 240.954 1313.14 240.56Z" fill="#F7F8F9"/>
<path d="M1385.27 140.474C1389.68 130.104 1393.98 119.684 1398.57 109.393C1400.02 106.148 1400.02 104.224 1396.34 102.725C1393.26 101.32 1390.29 99.6848 1387.45 97.8337C1383.67 95.5797 1382.51 91.6368 1384.49 88.2162C1386.57 84.6207 1390.61 83.6656 1394.54 85.9509C1398.06 87.8329 1401.47 89.927 1404.74 92.2218C1409.28 95.6556 1413.45 95.147 1417.75 92.0884L1418.18 92.6747C1417.59 93.7006 1416.98 94.7167 1416.41 95.7534C1415.96 96.5652 1415.85 97.5196 1416.76 97.9321C1417.64 98.3246 1417.91 97.3636 1418.19 96.7321C1418.52 95.8925 1419.04 95.1467 1419.73 94.5614C1420.41 93.9761 1421.23 93.5694 1422.11 93.3778C1422.98 93.1827 1424.41 93.2602 1424.07 91.9098C1423.78 90.7862 1422.47 91.1418 1421.56 91.2781C1420.86 91.4275 1420.17 91.6278 1419.5 91.8773L1418.99 91.101C1420.56 88.7881 1421.7 86.211 1422.36 83.4932C1422.88 83.6873 1423.37 83.9358 1423.83 84.2346C1427.2 87.1281 1430.83 87.9891 1434.83 85.5872C1435.56 85.1547 1436.12 84.8884 1436.5 85.8741C1436.8 86.6556 1437.18 87.4934 1435.78 87.6623C1435.3 87.7452 1434.85 87.93 1434.45 88.2043C1433.88 88.5606 1432.99 88.7836 1433.29 89.7409C1433.59 90.6982 1434.37 90.6161 1435.05 90.2374C1437.32 88.968 1437.97 90.2746 1438.53 92.1911C1440.65 99.5221 1443.71 106.61 1444.9 114.171C1446.47 124.162 1438.37 130.473 1428.92 126.774C1427.15 126 1425.46 125.041 1423.89 123.911C1421.31 122.09 1418.93 120.006 1416.79 117.694C1416.22 117.118 1415.65 116.1 1414.73 116.575C1413.51 117.204 1414.26 118.259 1414.61 119.116C1416.81 124.636 1419.03 130.152 1421.25 135.665C1421.65 136.647 1422.01 137.641 1422.6 139.173C1413.58 136.64 1404.98 135.809 1396.33 137.807C1392.7 138.644 1389.15 139.879 1385.56 140.934L1385.27 140.475M1431.18 96.4026C1433.67 96.91 1433.7 96.9384 1432.4 98.6764C1431.93 99.314 1430.85 99.8003 1431.97 100.64C1432.81 101.271 1433.56 100.618 1434.2 100.06C1436.1 98.4041 1436 95.4461 1433.72 94.7275C1432.75 94.5043 1431.85 94.0378 1431.11 93.3718C1430.37 92.7058 1429.81 91.8622 1429.49 90.9203C1429.45 90.7727 1429.39 90.6343 1429.3 90.5151C1429.2 90.3958 1429.09 90.2989 1428.95 90.2315C1428.82 90.164 1428.67 90.1277 1428.52 90.1252C1428.37 90.1227 1428.22 90.1541 1428.08 90.2171C1427.76 90.3635 1427.51 90.6243 1427.38 90.9474C1427.03 92.0888 1429.9 96.144 1431.19 96.4043M1392.92 91.6276C1392.2 91.5737 1391.12 91.4327 1390.04 91.4309C1389.37 91.4304 1388.42 91.2729 1388.3 92.2481C1388.13 93.5122 1389.17 93.4248 1390.01 93.4651C1393.4 93.6531 1396.65 94.8784 1399.32 96.975C1399.99 97.4761 1400.69 98.2683 1401.39 97.1732C1401.87 96.4086 1401.2 95.8789 1400.63 95.4009C1398.38 93.5741 1395.74 92.2825 1392.92 91.6235M1429.29 105.738C1429.89 105.784 1430.5 105.795 1431.1 105.771C1432.25 105.667 1433.99 105.883 1433.84 104.264C1433.69 102.574 1432.05 103.609 1431.14 103.664C1428.56 103.818 1426.98 102.728 1426.31 100.287C1426.09 99.4887 1426.18 98.3372 1424.9 98.7836C1423.89 99.1398 1424.17 100.143 1424.34 100.996C1424.89 103.731 1426.78 105.043 1429.29 105.738ZM1418.33 100.327C1417.95 100.231 1417.55 100.212 1417.16 100.271C1416.77 100.331 1416.4 100.467 1416.06 100.672C1415.72 100.877 1415.43 101.147 1415.2 101.467C1414.96 101.786 1414.8 102.148 1414.71 102.532C1414.59 102.91 1414.56 103.308 1414.61 103.699C1414.66 104.09 1414.79 104.466 1415 104.802C1415.21 105.137 1415.49 105.424 1415.82 105.643C1416.14 105.863 1416.52 106.009 1416.91 106.073C1417.25 106.173 1417.62 106.198 1417.98 106.147C1418.34 106.096 1418.68 105.97 1418.99 105.778C1419.3 105.586 1419.56 105.331 1419.76 105.031C1419.97 104.73 1420.1 104.391 1420.17 104.034C1420.31 103.671 1420.37 103.283 1420.35 102.895C1420.33 102.507 1420.24 102.126 1420.06 101.778C1419.89 101.43 1419.65 101.121 1419.35 100.871C1419.05 100.621 1418.71 100.435 1418.33 100.326" fill="#F7F8F9"/>
<path d="M1493.99 144.821C1489.82 143.313 1485.97 142.123 1481.93 142.839C1479.49 143.272 1480.32 141.813 1480.54 140.761C1482.16 133.029 1483.81 125.306 1485.46 117.581C1486.11 114.491 1486.76 111.399 1487.43 108.311C1487.93 106.017 1488.77 103.983 1491.68 104.413C1494.33 104.804 1494.7 106.77 1494.65 109.038C1494.4 120.799 1494.21 132.555 1493.99 144.82" fill="#F7F8F9"/>
<path d="M1423 266.419C1422.18 260.686 1420.4 255.134 1417.72 249.998C1416.71 248.145 1417.79 245.514 1419.54 243.846C1420.98 242.471 1422.75 241.538 1424.81 242.4C1427.21 243.404 1427.51 245.593 1427.54 247.839C1427.63 254.373 1425.28 260.352 1423 266.412" fill="#F7F8F9"/>
<path d="M1417.75 92.0863L1418.99 91.0981L1419.5 91.8734L1418.18 92.6685L1417.75 92.0863Z" fill="#F7F8F9"/>
<path d="M1385.57 140.932C1385.38 141.053 1385.05 141.305 1385.03 141.283C1384.69 140.902 1384.89 140.654 1385.28 140.476L1385.57 140.932Z" fill="#F7F8F9"/>
<path d="M1314.3 154.66C1308.74 152.168 1303.88 149.999 1299.03 147.814C1298.11 147.403 1296.49 147.264 1297.27 145.743C1297.85 144.6 1299.03 145.513 1299.82 145.857C1304.49 147.894 1309.12 150.004 1313.76 152.099C1315.32 152.802 1316.77 153.4 1318.58 152.478C1326.99 148.309 1336.04 145.609 1345.36 144.493C1342.47 139.206 1339.7 134.124 1336.91 129.048C1334.34 124.364 1331.73 119.703 1329.21 114.991C1328.77 114.16 1327.44 113.041 1328.87 112.193C1330.41 111.28 1330.57 113.092 1331.01 113.877C1336.14 123.106 1341.28 132.337 1346.25 141.655C1347.34 143.689 1348.49 144.26 1350.79 144.101C1358.44 143.552 1366.12 144.216 1373.55 146.067C1377.48 147.055 1379.96 144.807 1381.83 142.308C1383.57 139.965 1384.29 136.854 1385.46 134.07C1384.24 133.487 1383.42 134.21 1382.55 134.427C1372.4 136.938 1363.64 134.525 1357.06 126.368C1350.67 118.439 1350.09 109.528 1354.53 100.409C1355.39 98.6462 1355.48 97.6915 1354.12 96.0671C1347.61 88.2379 1346.36 79.3809 1350.68 70.2216C1354.81 61.4789 1362.12 56.9493 1371.83 56.6264C1373.52 56.5711 1374.47 56.5046 1374.68 54.4521C1375.79 43.6785 1381.55 36.3328 1391.93 33.3722C1402.48 30.3619 1411.24 33.8279 1418 42.4125C1418.21 42.5902 1418.44 42.7363 1418.69 42.8461C1425.56 34.7759 1434.06 31.2451 1444.61 34.0325C1450.66 35.6705 1455.82 39.6262 1458.97 45.0419C1462.12 50.4576 1463.01 56.8968 1461.44 62.9632C1461.05 64.4398 1460.74 65.5967 1461.97 66.9225C1474 79.9483 1468.16 103.926 1446.33 105.801C1445.94 105.861 1445.56 105.943 1445.18 106.049C1446.1 109.46 1447.29 112.793 1447.28 116.357C1447.28 125.174 1440.79 131.097 1432.11 129.684C1429.08 129.19 1429.12 130.39 1428.41 132.622C1426.44 138.793 1428.15 142.372 1434.18 145.118C1439.72 147.642 1443.87 152.394 1447.34 157.429C1449.03 159.894 1449.74 159.411 1451.26 157.34C1452.97 154.886 1455.26 152.885 1457.91 151.509C1460.57 150.134 1463.52 149.426 1466.51 149.446C1468.91 149.427 1470.35 148.021 1472.23 147.293C1478.59 144.837 1478.81 139.301 1479.92 134.076C1481.79 125.282 1483.66 116.488 1485.53 107.694C1486.39 103.7 1488.37 101.91 1491.5 102.191C1495.1 102.515 1496.77 104.685 1496.7 109.097C1496.53 120.374 1496.36 131.651 1496.07 142.925C1495.98 143.985 1496.14 145.051 1496.55 146.035C1496.96 147.018 1497.59 147.89 1498.4 148.576C1504.88 154.538 1510.5 161.073 1513.04 169.88C1516.06 180.339 1513.38 190.002 1509.93 199.717C1503.11 218.928 1496.45 238.196 1489.64 257.412C1484.22 272.752 1476.74 287.283 1467.4 300.603C1461.75 308.663 1453.78 312.119 1443.98 310.471C1433.43 308.696 1426.92 302.34 1424.3 292.013C1423.41 288.522 1422.73 284.98 1421.75 280.507C1418.39 289.049 1412.3 292.027 1404.5 293.343C1364.32 299.969 1323.66 303.337 1282.93 303.416C1272.91 303.479 1263.01 302.3 1253.78 298.09C1232.73 288.489 1224.28 263.498 1234.63 241.932C1239.14 232.533 1245.6 224.531 1252.48 216.84C1265.82 201.927 1279.18 187.043 1292.58 172.187C1298.81 165.188 1306.14 159.265 1314.3 154.66ZM1418.99 91.099L1417.75 92.0871C1413.45 95.1456 1409.27 95.6531 1404.74 92.2204C1401.47 89.9274 1398.06 87.8348 1394.54 85.9541C1390.61 83.6691 1386.57 84.626 1384.49 88.2194C1382.51 91.6399 1383.67 95.5859 1387.45 97.8366C1390.29 99.6872 1393.26 101.322 1396.35 102.727C1400.02 104.222 1400.02 106.151 1398.57 109.395C1393.98 119.685 1389.69 130.106 1385.28 140.479C1384.89 140.656 1384.69 140.904 1385.03 141.279C1385.05 141.305 1385.38 141.056 1385.57 140.934C1389.15 139.88 1392.7 138.647 1396.34 137.807C1404.99 135.81 1413.59 136.644 1422.6 139.174C1422.01 137.643 1421.65 136.65 1421.25 135.666C1419.04 130.149 1416.83 124.63 1414.61 119.111C1414.27 118.254 1413.52 117.199 1414.73 116.57C1415.65 116.094 1416.23 117.113 1416.79 117.688C1418.94 120 1421.32 122.084 1423.89 123.907C1425.46 125.038 1427.15 125.999 1428.93 126.774C1438.38 130.473 1446.48 124.162 1444.9 114.171C1443.71 106.604 1440.65 99.5201 1438.53 92.191C1437.97 90.2745 1437.32 88.9679 1435.05 90.2363C1434.38 90.6152 1433.59 90.7097 1433.29 89.7408C1432.98 88.7719 1433.88 88.5597 1434.45 88.2031C1434.85 87.929 1435.31 87.7441 1435.79 87.6611C1437.18 87.4923 1436.8 86.6535 1436.5 85.873C1436.12 84.8832 1435.56 85.1493 1434.84 85.581C1430.83 87.9828 1427.21 87.1229 1423.82 84.226C1423.36 83.9271 1422.87 83.6785 1422.36 83.4844C1421.7 86.202 1420.56 88.7791 1418.99 91.0924M1269.39 300.392C1278.53 302.214 1291.27 301.216 1304 300.871C1338.42 300.032 1372.73 296.636 1406.64 290.712C1414.09 289.395 1418.53 285.331 1419.9 278.126C1421.52 270.222 1420.71 262.013 1417.59 254.576C1416.47 251.591 1414.45 249.03 1411.81 247.247C1411.13 246.719 1410.3 246.419 1409.44 246.39C1408.57 246.361 1407.73 246.604 1407.01 247.086C1405.37 248.222 1405.16 249.833 1405.62 251.613C1406.2 253.842 1406.88 256.047 1407.4 258.29C1408.4 262.614 1407.38 265.127 1403.71 267.648C1400.22 269.864 1396.33 271.394 1392.27 272.155C1382.67 274.356 1375.72 268.792 1375.62 258.903C1375.66 255.731 1376.58 252.632 1378.27 249.951C1379.81 247.462 1380.8 244.677 1381.18 241.779C1381.51 238.877 1379.78 236.654 1377.25 236.798C1375.43 237.031 1373.74 237.835 1372.4 239.095C1366.83 243.562 1362.92 249.418 1358.82 255.139C1355.79 259.37 1353.35 263.729 1353.84 269.176C1353.9 269.864 1354.15 270.71 1353.21 271.038C1352.1 271.422 1351.72 270.454 1351.25 269.805C1348.92 266.551 1346.51 263.335 1344.34 259.976C1342.84 257.629 1340.68 255.781 1338.13 254.668C1322.59 247.548 1307.09 240.34 1291.63 233.045C1290.79 232.651 1288.63 232.631 1289.63 230.817C1290.4 229.422 1291.57 230.813 1292.44 231.208C1297.63 233.55 1302.85 235.85 1307.94 238.414C1310.12 239.512 1311.49 239.581 1313.11 237.479C1315.25 234.707 1317.83 232.266 1320.2 229.668C1325.85 223.48 1325.9 223.44 1321.49 215.943C1312.88 201.326 1299.26 193.352 1283.87 187.752C1282.08 187.105 1281.27 188.052 1280.24 189.197C1271.02 199.498 1261.7 209.704 1252.52 220.046C1247 226.17 1242.11 232.846 1237.95 239.969C1223.7 264.784 1237.3 294.708 1269.39 300.39M1472.26 150.253C1474.01 150.993 1475.42 151.691 1476.9 152.194C1479.46 153.061 1480.01 156.786 1482.16 156.988C1484.63 157.219 1487.33 156.025 1490.02 156.189C1490.8 156.236 1491.95 156.063 1491.84 157.339C1491.75 158.252 1490.78 158.169 1490.09 158.245C1488.16 158.457 1486.23 158.572 1484.31 158.851C1483.59 158.898 1482.9 159.178 1482.35 159.649C1481.79 160.12 1481.41 160.758 1481.25 161.466C1480.13 165.325 1477.28 166.971 1473.37 167.309C1469.17 167.669 1467.8 169.789 1468.99 173.863C1469.35 175.09 1469.95 176.231 1470.76 177.217C1471.58 178.202 1472.58 179.011 1473.72 179.593C1473.97 177.913 1474.33 176.252 1474.81 174.623C1477.23 168.096 1484.07 164.764 1492.57 165.889C1493.58 166.022 1495.19 165.836 1494.99 167.356C1494.84 168.494 1493.44 168.116 1492.48 168.026C1489.34 167.64 1486.16 167.975 1483.17 169.006C1480.9 169.76 1478.96 171.283 1477.7 173.311C1476.43 175.34 1475.91 177.748 1476.23 180.117C1476.5 182.608 1477.61 184.933 1479.38 186.71C1481.14 188.486 1483.46 189.607 1485.95 189.887C1490.18 190.315 1493.23 188.488 1493.83 185.175C1494.41 181.878 1492.5 179.878 1487.91 178.933C1487.09 178.758 1485.61 179.161 1485.9 177.627C1486.07 176.697 1487.23 176.783 1488.08 176.797C1489.98 176.771 1491.82 177.429 1493.27 178.649C1494.72 179.869 1495.69 181.571 1495.99 183.443C1496.45 187.458 1493.82 190.921 1489.6 191.866C1486.84 192.432 1483.97 192.071 1481.43 190.838C1478.9 189.606 1476.85 187.57 1475.59 185.049C1474.87 183.538 1473.74 182.258 1472.33 181.349C1469.07 179.194 1466.25 176.252 1466.79 172.166C1467.36 167.761 1465.36 167.786 1462.3 168.443C1461.95 168.546 1461.58 168.601 1461.22 168.607C1460.24 168.543 1458.72 169.257 1458.6 167.689C1458.5 166.43 1459.96 166.619 1460.87 166.513C1465.33 165.997 1469.78 165.497 1474.24 165.012C1475.43 164.91 1476.55 164.437 1477.45 163.659C1478.35 162.882 1478.99 161.839 1479.26 160.681C1479.54 159.523 1479.44 158.307 1478.98 157.208C1478.53 156.108 1477.74 155.181 1476.72 154.557C1474.78 153.246 1472.59 152.338 1470.29 151.886C1467.99 151.435 1465.62 151.449 1463.32 151.928C1461.03 152.407 1458.85 153.341 1456.92 154.675C1455 156.01 1453.35 157.717 1452.1 159.696C1451.53 160.393 1451.2 161.248 1451.14 162.142C1451.08 163.037 1451.3 163.928 1451.77 164.692C1456.71 174.259 1458.35 185.191 1456.43 195.786C1456.13 197.61 1456.25 198.946 1457.68 200.328C1461.01 203.536 1465 205.976 1469.37 207.474C1470.06 207.715 1471.31 207.851 1470.84 209.065C1470.38 210.223 1469.41 209.522 1468.65 209.331C1464.96 208.406 1461.85 206.297 1458.56 204.2C1455.52 211.22 1452.54 218.117 1449.55 225.016C1447.63 229.468 1445.71 233.921 1443.8 238.378C1443.43 239.249 1443.21 240.558 1441.92 239.961C1440.63 239.364 1441.72 238.307 1441.89 237.452C1441.98 237.224 1442.08 237.005 1442.21 236.798C1446.72 226.338 1451.27 215.888 1455.72 205.399C1456.22 204.217 1457.53 202.726 1455.4 201.309C1454.88 202.626 1454.41 203.734 1453.99 204.859C1448.57 219.182 1438.7 229.178 1424.43 234.594C1421.39 235.749 1420.27 237.384 1420.2 240.299C1427.49 239.514 1430 242.051 1429.56 249.563C1429.36 253.108 1429.11 256.749 1427.55 259.872C1422.32 270.271 1423.09 280.645 1426.28 291.427C1428.96 300.439 1434.19 306.317 1443.43 308.227C1452.72 310.151 1460.28 306.977 1465.67 299.357C1474.72 286.569 1481.98 272.608 1487.25 257.859C1494.22 238.444 1500.97 218.955 1507.75 199.475C1510.1 192.727 1512.72 186.035 1512.32 178.646C1511.57 164.848 1503.99 155.046 1493.4 147.42C1486.77 142.638 1478.33 144.144 1472.25 150.259M1454.05 197.321C1459.58 170.524 1442.65 145.357 1415.28 139.666C1390.26 134.465 1364.43 151.774 1359.04 177.352C1357.75 183.633 1357.71 190.108 1358.93 196.405C1360.14 202.701 1362.59 208.696 1366.12 214.046C1369.66 219.395 1374.22 223.994 1379.53 227.578C1384.85 231.162 1390.83 233.661 1397.11 234.932C1422.87 240.211 1448.73 223.13 1454.05 197.32M1313.14 240.561C1313.83 240.955 1314.21 241.202 1314.62 241.392C1326.8 247.105 1338.99 252.791 1351.15 258.547C1352.94 259.396 1353.83 259.058 1354.9 257.326C1358.6 251.347 1362.34 245.219 1367.67 240.64C1371.51 237.349 1372.81 233.699 1372.9 229.004C1372.95 226.917 1373.1 225.295 1371.34 223.547C1350.48 202.736 1350.81 170.854 1371.95 150.368C1372.59 149.752 1373.7 149.382 1373.48 148.023C1365.43 146.264 1357.15 145.718 1348.94 146.404C1350.14 148.643 1351.18 150.524 1352.16 152.434C1352.49 153.068 1352.83 153.894 1351.97 154.335C1351.13 154.755 1350.65 154.091 1350.28 153.42C1349.98 152.889 1349.69 152.358 1349.39 151.828C1346.32 146.331 1346.32 146.33 1340.07 147.508C1339.36 147.643 1338.64 147.752 1337.93 147.926C1331.75 149.449 1325.65 151.179 1319.43 154.569C1327.09 157.96 1334.14 161.073 1341.18 164.207C1342.11 164.62 1343.72 164.929 1343.11 166.245C1342.5 167.56 1341.13 166.49 1340.25 166.111C1333.36 163.113 1326.47 160.09 1319.66 156.915C1318.77 156.426 1317.76 156.2 1316.75 156.263C1315.74 156.326 1314.77 156.675 1313.95 157.27C1307.99 160.814 1302.52 165.098 1297.64 170.018C1292.95 174.943 1288.47 180.072 1283.65 185.382C1302.99 192.464 1318.9 202.576 1326.97 222.233C1332.05 216.713 1336.96 211.363 1341.89 206.031C1342.43 205.447 1343.06 204.427 1343.94 205.232C1344.72 205.945 1344.06 206.802 1343.47 207.449C1340.77 210.4 1338.05 213.338 1335.35 216.288C1327.99 224.321 1320.64 232.358 1313.14 240.56M1390.64 262.989C1393.84 263.671 1397.04 264.367 1400.25 265.033C1404.16 265.841 1406.28 263.838 1405.53 259.821C1404.94 256.622 1403.89 253.508 1403.26 250.311C1403.03 249.094 1402.29 249.107 1401.52 248.94C1395.82 247.717 1390.13 246.507 1384.43 245.312C1383.77 245.173 1382.89 244.718 1382.56 245.724C1381.27 249.744 1378.32 253.061 1377.76 257.429C1377.48 259.641 1378.21 260.477 1380.31 260.836C1383.77 261.43 1387.2 262.263 1390.64 262.995M1493.99 144.821C1494.21 132.556 1494.41 120.797 1494.65 109.039C1494.7 106.769 1494.33 104.805 1491.68 104.414C1488.77 103.983 1487.93 106.017 1487.43 108.313C1486.76 111.4 1486.12 114.493 1485.46 117.583C1483.82 125.308 1482.16 133.031 1480.55 140.762C1480.32 141.812 1479.49 143.273 1481.94 142.84C1485.98 142.125 1489.82 143.313 1493.99 144.822M1418.78 236.538C1407.24 238.974 1396.32 238.276 1385.86 233.42C1383.97 232.542 1383.29 233.999 1382.19 234.794C1380.75 235.829 1381.85 236.639 1382.4 237.472C1383.15 238.445 1383.5 239.671 1383.37 240.894C1382.94 243.016 1384.15 243.262 1385.69 243.574C1390.44 244.534 1395.2 245.497 1399.91 246.614C1402.11 247.135 1403.88 247.332 1405.77 245.48C1407.69 243.606 1410.21 244.062 1412.55 245.215C1413.57 245.717 1414.22 246.954 1415.7 246.788C1416.7 243.458 1417.7 240.142 1418.78 236.537M1423 266.42C1425.28 260.354 1427.63 254.38 1427.54 247.847C1427.51 245.6 1427.22 243.409 1424.82 242.406C1422.76 241.539 1420.99 242.477 1419.55 243.852C1417.79 245.521 1416.71 248.151 1417.73 250.004C1420.4 255.138 1422.19 260.689 1423 266.42ZM1378.32 262.491C1381.4 271.563 1392.33 273.622 1399.27 266.946L1378.32 262.491Z" fill="#0A0A0C"/>
<path d="M1418.17 170.824C1421.02 170.195 1423.7 169.812 1426.46 170.923C1432.72 173.446 1435.3 180.366 1431.84 186.19C1425.52 196.802 1419.1 207.351 1412.66 217.889C1412.12 218.783 1411.68 220.781 1410.19 219.743C1408.86 218.816 1410.45 217.617 1411.01 216.689C1417.23 206.307 1423.54 195.983 1429.76 185.597C1432.74 180.604 1431.02 175.242 1425.9 172.847C1424.66 172.332 1423.32 172.149 1421.99 172.315C1419.45 172.48 1417.56 173.148 1418.05 176.408C1418.3 178.213 1418.28 180.047 1417.99 181.847C1417.58 184.444 1415.82 185.649 1413.24 185.025C1410.64 184.396 1409.61 182.476 1410.61 180.027C1411.33 178.098 1412.44 176.335 1413.86 174.843C1416.07 172.693 1415.96 170.229 1415.98 167.541C1416 164.511 1414.37 163.069 1411.77 162.489C1410.58 162.119 1409.31 162.206 1408.18 162.734C1407.06 163.262 1406.18 164.191 1405.71 165.339C1404.5 168.019 1402.86 170.657 1404.93 173.858C1405.78 175.174 1405.75 177.121 1405.92 178.801C1406.02 179.533 1405.88 180.279 1405.53 180.927C1405.17 181.575 1404.62 182.09 1403.94 182.398C1403.3 182.762 1402.57 182.918 1401.83 182.842C1401.1 182.766 1400.41 182.464 1399.86 181.976C1399.23 181.497 1398.76 180.826 1398.54 180.063C1398.32 179.3 1398.35 178.485 1398.63 177.741C1398.99 176.331 1399.52 174.968 1400.2 173.679C1401.85 170.883 1400.2 169.676 1397.99 168.8C1394.86 167.56 1391.79 167.659 1389.04 169.814C1387.62 170.872 1386.54 172.325 1385.94 173.991C1385.33 175.658 1385.23 177.465 1385.65 179.188C1387.63 190.272 1389.58 201.363 1391.51 212.46C1391.63 213.175 1391.76 213.892 1391.88 214.61C1391.91 214.726 1391.92 214.847 1391.9 214.967C1391.89 215.086 1391.85 215.202 1391.79 215.306C1391.72 215.409 1391.64 215.5 1391.55 215.571C1391.45 215.642 1391.34 215.692 1391.22 215.719C1391.08 215.775 1390.93 215.798 1390.77 215.788C1390.62 215.778 1390.48 215.734 1390.34 215.659C1390.21 215.585 1390.1 215.482 1390.01 215.358C1389.92 215.234 1389.86 215.092 1389.84 214.942C1389.69 214.355 1389.59 213.755 1389.49 213.157C1387.56 202.063 1385.71 190.962 1383.69 179.894C1382.78 174.991 1383.94 170.921 1387.97 168C1391.9 165.16 1396.16 165.162 1400.26 167.682C1402.77 169.224 1402.7 167.144 1403.21 165.841C1405.1 161.068 1408.23 159.349 1412.89 160.651C1416.16 161.561 1418.17 163.492 1417.99 167.167C1417.99 168.387 1418.05 169.606 1418.17 170.82M1415.61 175.791C1414.57 177.407 1413.53 178.859 1412.67 180.411C1412.51 180.639 1412.41 180.902 1412.38 181.178C1412.34 181.454 1412.38 181.734 1412.48 181.993C1412.58 182.252 1412.74 182.482 1412.95 182.663C1413.16 182.845 1413.42 182.972 1413.69 183.033C1413.95 183.133 1414.23 183.166 1414.5 183.129C1414.78 183.092 1415.04 182.986 1415.27 182.82C1415.49 182.655 1415.67 182.435 1415.78 182.183C1415.9 181.93 1415.95 181.651 1415.93 181.374C1415.98 179.588 1416.37 177.757 1415.61 175.792M1402.66 173.21C1401.71 175.658 1401.04 177.087 1400.62 178.589C1400.53 178.82 1400.5 179.068 1400.53 179.312C1400.57 179.556 1400.65 179.789 1400.79 179.992C1400.93 180.194 1401.12 180.361 1401.34 180.476C1401.55 180.592 1401.79 180.654 1402.04 180.657C1402.28 180.701 1402.53 180.687 1402.77 180.616C1403 180.545 1403.22 180.42 1403.4 180.25C1403.57 180.08 1403.71 179.87 1403.79 179.638C1403.87 179.406 1403.9 179.158 1403.86 178.914C1403.66 177.284 1403.2 175.687 1402.66 173.216" fill="#0A0A0C"/>
<path d="M1431.19 96.404C1429.9 96.1416 1427.03 92.0873 1427.37 90.9456C1427.51 90.621 1427.76 90.3591 1428.08 90.2127C1428.22 90.1499 1428.37 90.1188 1428.52 90.1216C1428.67 90.1244 1428.82 90.1611 1428.95 90.229C1429.09 90.2968 1429.21 90.3942 1429.3 90.5138C1429.39 90.6334 1429.45 90.7722 1429.49 90.92C1429.81 91.8619 1430.37 92.7055 1431.11 93.3715C1431.85 94.0375 1432.75 94.504 1433.72 94.7272C1436 95.4414 1436.1 98.4044 1434.2 100.06C1433.56 100.62 1432.81 101.268 1431.97 100.64C1430.85 99.8005 1431.93 99.3159 1432.4 98.6778C1433.71 96.9357 1433.67 96.9073 1431.19 96.404Z" fill="#0A0A0C"/>
<path d="M1392.92 91.6275C1395.74 92.2866 1398.38 93.5782 1400.63 95.4049C1401.2 95.882 1401.88 96.4121 1401.39 97.1773C1400.69 98.2724 1399.99 97.4801 1399.32 96.9791C1396.65 94.8815 1393.4 93.6551 1390.01 93.4661C1389.17 93.4248 1388.14 93.5112 1388.3 92.2481C1388.42 91.2729 1389.37 91.4301 1390.04 91.4309C1391.12 91.4327 1392.2 91.5737 1392.92 91.6275Z" fill="#0A0A0C"/>
<path d="M1429.29 105.742C1426.78 105.048 1424.89 103.732 1424.34 101C1424.17 100.148 1423.89 99.145 1424.9 98.7878C1426.17 98.3405 1426.09 99.4947 1426.31 100.292C1426.98 102.733 1428.56 103.823 1431.14 103.668C1432.05 103.614 1433.69 102.581 1433.84 104.268C1433.99 105.888 1432.25 105.672 1431.1 105.775C1430.5 105.799 1429.89 105.788 1429.29 105.742Z" fill="#0A0A0C"/>
<path d="M1418.18 92.6747L1419.49 91.8797C1420.17 91.6301 1420.85 91.4299 1421.56 91.2804C1422.47 91.152 1423.78 90.7864 1424.06 91.9132C1424.4 93.2638 1422.97 93.1852 1422.11 93.3814C1421.23 93.5731 1420.41 93.9791 1419.73 94.5631C1419.04 95.1471 1418.52 95.8911 1418.19 96.7287C1417.91 97.3593 1417.64 98.3219 1416.76 97.9287C1415.85 97.519 1415.95 96.5658 1416.4 95.7528C1416.98 94.7162 1417.59 93.7006 1418.18 92.6747Z" fill="#0A0A0C"/>
<path d="M1418.33 100.327C1418.71 100.436 1419.05 100.622 1419.35 100.872C1419.65 101.122 1419.89 101.431 1420.06 101.779C1420.24 102.128 1420.33 102.508 1420.35 102.896C1420.37 103.285 1420.31 103.672 1420.17 104.035C1420.1 104.392 1419.97 104.732 1419.76 105.032C1419.56 105.333 1419.3 105.587 1418.99 105.78C1418.68 105.972 1418.34 106.097 1417.98 106.148C1417.62 106.199 1417.26 106.174 1416.91 106.075C1416.52 106.012 1416.15 105.865 1415.82 105.646C1415.49 105.427 1415.21 105.14 1415 104.804C1414.79 104.468 1414.66 104.092 1414.61 103.7C1414.56 103.308 1414.59 102.91 1414.71 102.532C1414.8 102.148 1414.96 101.785 1415.2 101.466C1415.43 101.146 1415.72 100.876 1416.06 100.671C1416.4 100.465 1416.77 100.329 1417.16 100.27C1417.55 100.211 1417.95 100.23 1418.33 100.327Z" fill="#F87DDF"/>
</svg>
