<svg width="64" height="64" viewBox="0 0 64 64" fill="none" xmlns="http://www.w3.org/2000/svg">
<path d="M64 32C64 14.3269 49.6731 0 32 0C14.3269 0 0 14.3269 0 32C0 49.6731 14.3269 64 32 64C49.6731 64 64 49.6731 64 32Z" fill="#F0F5FF"/>
<path d="M33.6639 35.4898H23.1562C22.6723 35.4885 22.197 35.3615 21.777 35.1211C21.3569 34.8808 21.0065 34.5355 20.7602 34.119C20.5138 33.7025 20.3798 33.2291 20.3715 32.7452C20.3632 32.2614 20.4807 31.7837 20.7126 31.3589L23.4239 26.4251L25.9606 21.8055C26.2021 21.3689 26.5561 21.0051 26.9859 20.7517C27.4156 20.4984 27.9054 20.3647 28.4042 20.3647C28.9031 20.3647 29.3928 20.4984 29.8226 20.7517C30.2523 21.0051 30.6063 21.3689 30.8479 21.8055L33.3962 26.4251L34.618 28.6476L36.1075 31.3589C36.3394 31.7837 36.4569 32.2614 36.4486 32.7452C36.4402 33.2291 36.3063 33.7025 36.0599 34.119C35.8135 34.5355 35.4631 34.8808 35.0431 35.1211C34.6231 35.3615 34.1478 35.4885 33.6639 35.4898Z" stroke="#0A0A0C" stroke-width="1.5" stroke-linecap="round" stroke-linejoin="round"/>
<path d="M43.6361 36.0717C43.6361 38.0777 42.8392 40.0016 41.4207 41.42C40.0023 42.8385 38.0784 43.6354 36.0724 43.6354C34.0664 43.6354 32.1426 42.8385 30.7241 41.42C29.3057 40.0016 28.5088 38.0777 28.5088 36.0717C28.5088 35.8739 28.5204 35.6877 28.5321 35.4899H33.6637C34.1476 35.4886 34.6229 35.3615 35.0429 35.1212C35.463 34.8809 35.8134 34.5356 36.0598 34.1191C36.3061 33.7026 36.4401 33.2292 36.4484 32.7453C36.4567 32.2615 36.3392 31.7837 36.1073 31.359L34.6179 28.6477C35.097 28.5535 35.5842 28.5067 36.0724 28.5081C37.0657 28.5081 38.0492 28.7037 38.9669 29.0838C39.8846 29.4639 40.7184 30.0211 41.4207 30.7234C42.1231 31.4258 42.6802 32.2596 43.0603 33.1772C43.4404 34.0949 43.6361 35.0785 43.6361 36.0717Z" stroke="#0A0A0C" stroke-width="1.5" stroke-linecap="round" stroke-linejoin="round"/>
</svg>
