<svg width="64" height="64" viewBox="0 0 64 64" fill="none" xmlns="http://www.w3.org/2000/svg">
<path d="M64 32C64 14.3269 49.6731 0 32 0C14.3269 0 0 14.3269 0 32C0 49.6731 14.3269 64 32 64C49.6731 64 64 49.6731 64 32Z" fill="#F0F5FF"/>
<path d="M31.9937 44.9091C31.9264 44.9075 31.8594 44.8995 31.7937 44.8851C31.718 44.8678 31.6452 44.8395 31.5777 44.8011L28.9257 43.4811C28.8193 43.4286 28.7243 43.3556 28.6461 43.2664C28.568 43.1772 28.5081 43.0734 28.4701 42.961C28.432 42.8487 28.4164 42.7299 28.4242 42.6116C28.4321 42.4932 28.4631 42.3775 28.5157 42.2711C28.5682 42.1648 28.6412 42.0698 28.7304 41.9916C28.8196 41.9134 28.9234 41.8536 29.0358 41.8155C29.1481 41.7775 29.2669 41.7619 29.3852 41.7697C29.5036 41.7775 29.6193 41.8086 29.7257 41.8611L31.0937 42.5451V40.6731C31.0937 40.4344 31.1885 40.2055 31.3573 40.0367C31.5261 39.8679 31.755 39.7731 31.9937 39.7731C32.2324 39.7731 32.4613 39.8679 32.6301 40.0367C32.7988 40.2055 32.8937 40.4344 32.8937 40.6731V42.5451L34.2667 41.8561C34.482 41.7524 34.7293 41.737 34.9558 41.8132C35.1823 41.8895 35.3699 42.0513 35.4787 42.2641C35.5327 42.3709 35.5649 42.4873 35.5734 42.6066C35.5819 42.726 35.5665 42.8458 35.5281 42.9591C35.4898 43.0724 35.4292 43.177 35.35 43.2666C35.2707 43.3562 35.1744 43.4292 35.0667 43.4811L32.4147 44.8011C32.3448 44.8343 32.2726 44.8624 32.1987 44.8851C32.1312 44.8991 32.0626 44.9071 31.9937 44.9091ZM39.9937 40.9091C39.7929 40.9064 39.5988 40.8367 39.4423 40.7109C39.2857 40.5852 39.1757 40.4108 39.1297 40.2153C39.0838 40.0199 39.1044 39.8147 39.1885 39.6324C39.2726 39.4501 39.4152 39.3011 39.5937 39.2091L41.7657 38.1291V35.3561C41.7657 35.1174 41.8605 34.8885 42.0293 34.7197C42.1981 34.5509 42.427 34.4561 42.6657 34.4561C42.9044 34.4561 43.1333 34.5509 43.3021 34.7197C43.4708 34.8885 43.5657 35.1174 43.5657 35.3561V38.6921C43.5639 38.8576 43.5172 39.0194 43.4306 39.1603C43.3439 39.3013 43.2205 39.4159 43.0737 39.4921L40.4097 40.8241C40.2777 40.8737 40.1393 40.9036 39.9987 40.9131L39.9937 40.9091ZM23.9857 40.9091C23.8465 40.9066 23.7097 40.8724 23.5857 40.8091L20.9297 39.4851C20.7828 39.4089 20.6594 39.2943 20.5728 39.1533C20.4861 39.0124 20.4394 38.8506 20.4377 38.6851V35.3451C20.4377 35.2269 20.4609 35.1099 20.5062 35.0007C20.5514 34.8915 20.6177 34.7923 20.7013 34.7087C20.7848 34.6252 20.8841 34.5589 20.9932 34.5136C21.1024 34.4684 21.2195 34.4451 21.3377 34.4451C21.4559 34.4451 21.5729 34.4684 21.6821 34.5136C21.7913 34.5589 21.8905 34.6252 21.9741 34.7087C22.0576 34.7923 22.1239 34.8915 22.1692 35.0007C22.2144 35.1099 22.2377 35.2269 22.2377 35.3451V38.1171L24.4097 39.1971C24.6225 39.3059 24.7843 39.4935 24.8605 39.72C24.9368 39.9465 24.9214 40.1938 24.8177 40.4091C24.7363 40.5586 24.6169 40.684 24.4715 40.7725C24.3261 40.861 24.1598 40.9095 23.9897 40.9131L23.9857 40.9091ZM31.9857 34.9091C31.7475 34.9073 31.5197 34.8119 31.3513 34.6435C31.1829 34.4751 31.0875 34.2473 31.0857 34.0091V31.2411L28.9217 30.1561C28.7068 30.05 28.543 29.863 28.4661 29.636C28.3892 29.4091 28.4056 29.161 28.5117 28.9461C28.6178 28.7313 28.8048 28.5674 29.0317 28.4905C29.2587 28.4136 29.5068 28.43 29.7217 28.5361L31.9897 29.6641L34.2667 28.5411C34.3729 28.4878 34.4887 28.456 34.6073 28.4476C34.7259 28.4393 34.845 28.4545 34.9577 28.4924C35.0704 28.5304 35.1745 28.5903 35.2639 28.6686C35.3533 28.747 35.4263 28.8424 35.4787 28.9491C35.5323 29.0552 35.5643 29.1708 35.5726 29.2894C35.5809 29.408 35.5654 29.527 35.527 29.6394C35.4886 29.7519 35.4281 29.8556 35.349 29.9443C35.27 30.033 35.174 30.1051 35.0667 30.1561L32.8947 31.2361V34.0081C32.8941 34.2473 32.7992 34.4766 32.6304 34.6461C32.4617 34.8156 32.2328 34.9115 31.9937 34.9131L31.9857 34.9091ZM42.6667 29.5731C42.4285 29.5713 42.2007 29.4759 42.0323 29.3075C41.8639 29.1391 41.7685 28.9113 41.7667 28.6731V26.8011L40.3987 27.4851C40.2923 27.5377 40.1766 27.5687 40.0582 27.5765C39.9399 27.5844 39.8211 27.5688 39.7087 27.5307C39.5964 27.4927 39.4926 27.4328 39.4034 27.3547C39.3142 27.2765 39.2412 27.1815 39.1887 27.0751C39.1361 26.9688 39.1051 26.8531 39.0972 26.7347C39.0894 26.6163 39.105 26.4976 39.1431 26.3852C39.1811 26.2729 39.241 26.1691 39.3191 26.0799C39.3973 25.9906 39.4923 25.9177 39.5987 25.8651L40.6547 25.3371L39.5987 24.8091C39.3838 24.703 39.22 24.516 39.1431 24.289C39.0662 24.0621 39.0826 23.814 39.1887 23.5991C39.2948 23.3843 39.4818 23.2204 39.7087 23.1435C39.9357 23.0666 40.1838 23.083 40.3987 23.1891L43.0507 24.5091C43.0811 24.5205 43.1094 24.5367 43.1347 24.5571C43.2065 24.5986 43.2713 24.6513 43.3267 24.7131L43.4307 24.8561C43.4789 24.9386 43.5152 25.0275 43.5387 25.1201C43.5517 25.1861 43.5597 25.253 43.5627 25.3201V28.6441C43.5665 28.7644 43.5463 28.8842 43.503 28.9965C43.4598 29.1088 43.3945 29.2113 43.3109 29.2979C43.2274 29.3845 43.1273 29.4535 43.0167 29.5008C42.906 29.5481 42.787 29.5727 42.6667 29.5731ZM21.3307 29.5731C21.0925 29.5713 20.8647 29.4759 20.6963 29.3075C20.5279 29.1391 20.4325 28.9113 20.4307 28.6731V25.3491C20.4323 25.2818 20.4403 25.2149 20.4547 25.1491C20.4781 25.0565 20.5145 24.9676 20.5627 24.8851C20.5958 24.8282 20.6362 24.7758 20.6827 24.7291C20.7333 24.6787 20.7897 24.6343 20.8507 24.5971C20.8747 24.5851 20.9107 24.5611 20.9347 24.5491L23.5867 23.2291C23.6929 23.1758 23.8087 23.144 23.9273 23.1356C24.0459 23.1273 24.165 23.1425 24.2777 23.1804C24.3904 23.2184 24.4945 23.2783 24.5839 23.3566C24.6733 23.435 24.7463 23.5304 24.7987 23.6371C24.8533 23.7431 24.8861 23.8591 24.895 23.978C24.904 24.0969 24.8891 24.2164 24.851 24.3294C24.813 24.4425 24.7526 24.5467 24.6735 24.636C24.5945 24.7252 24.4983 24.7977 24.3907 24.8491L23.3347 25.3771L24.3907 25.9051C24.6055 26.0112 24.7694 26.1983 24.8463 26.4252C24.9232 26.6521 24.9068 26.9003 24.8007 27.1151C24.6946 27.33 24.5075 27.4938 24.2806 27.5707C24.0537 27.6476 23.8055 27.6312 23.5907 27.5251L22.2137 26.8371V28.7091C22.2134 28.8246 22.1901 28.9388 22.1451 29.0451C22.1001 29.1514 22.0343 29.2476 21.9516 29.3281C21.8688 29.4086 21.7709 29.4717 21.6634 29.5138C21.5559 29.5559 21.4411 29.5761 21.3257 29.5731H21.3307ZM34.6587 22.2411C34.5195 22.2386 34.3827 22.2044 34.2587 22.1411L31.9937 21.0171L29.7257 22.1451C29.6193 22.1977 29.5036 22.2287 29.3852 22.2365C29.2669 22.2444 29.1481 22.2288 29.0358 22.1907C28.8088 22.1138 28.6218 21.95 28.5157 21.7351C28.4096 21.5203 28.3932 21.2721 28.4701 21.0452C28.547 20.8183 28.7108 20.6312 28.9257 20.5251L31.5897 19.1931C31.7132 19.1288 31.8504 19.0952 31.9897 19.0952C32.1289 19.0952 32.2661 19.1288 32.3897 19.1931L35.0537 20.5251C35.2674 20.633 35.4303 20.8203 35.5075 21.0469C35.5847 21.2734 35.57 21.5212 35.4667 21.7371C35.3945 21.8898 35.28 22.0185 35.1367 22.1079C34.9935 22.1972 34.8275 22.2435 34.6587 22.2411Z" fill="#0A0A0C"/>
</svg>
