<svg width="64" height="64" viewBox="0 0 64 64" fill="none" xmlns="http://www.w3.org/2000/svg">
<path d="M64 32C64 14.3269 49.6731 0 32 0C14.3269 0 0 14.3269 0 32C0 49.6731 14.3269 64 32 64C49.6731 64 64 49.6731 64 32Z" fill="#F0F5FF"/>
<mask id="mask0_154_1798" style="mask-type:luminance" maskUnits="userSpaceOnUse" x="20" y="20" width="23" height="24">
<path d="M43 20.5H20V43.5H43V20.5Z" fill="white"/>
</mask>
<g mask="url(#mask0_154_1798)">
<path d="M20.7061 41.8671C20.7764 41.7116 20.8932 41.5818 21.0404 41.4954C21.1876 41.4091 21.358 41.3706 21.5281 41.3851C22.4002 41.3448 23.2303 40.9992 23.8734 40.4088C24.5165 39.8183 24.9316 39.0206 25.0461 38.1551C25.2834 36.2471 25.5224 34.3394 25.7631 32.4321C25.7631 32.4111 25.7631 32.3891 25.7631 32.3381H25.5581C25.0291 32.3381 24.4991 32.3381 23.9701 32.3381C23.8826 32.343 23.7951 32.33 23.7128 32.2999C23.6306 32.2697 23.5553 32.2232 23.4917 32.163C23.428 32.1028 23.3773 32.0303 23.3427 31.9498C23.308 31.8694 23.2902 31.7827 23.2902 31.6951C23.2902 31.6075 23.308 31.5208 23.3427 31.4404C23.3773 31.3599 23.428 31.2874 23.4917 31.2272C23.5553 31.167 23.6306 31.1205 23.7128 31.0903C23.7951 31.0602 23.8826 31.0472 23.9701 31.0521C24.5421 31.0521 25.1151 31.0521 25.6871 31.0521H25.9361C26.0131 30.4351 26.0871 29.8341 26.1631 29.2341C26.3471 27.7801 26.5031 26.3221 26.7211 24.8741C26.8981 23.8114 27.4146 22.8346 28.1932 22.09C28.9717 21.3453 29.9705 20.8728 31.0401 20.7431C31.0877 20.7339 31.1345 20.7209 31.1801 20.7041H31.8241C31.8521 20.7221 31.8801 20.7431 31.9091 20.7581C32.044 20.8184 32.1544 20.9228 32.2221 21.0543C32.2897 21.1857 32.3105 21.3363 32.2811 21.4811C32.2488 21.6295 32.1655 21.7619 32.0456 21.8551C31.9257 21.9483 31.7768 21.9964 31.6251 21.9911C30.6697 21.9952 29.7532 22.3703 29.0691 23.0371C28.4104 23.6755 28.0033 24.5294 27.9221 25.4431C27.7061 27.2811 27.4681 29.1171 27.2401 30.9541C27.2401 30.9751 27.2401 30.9971 27.2401 31.0541H27.4401C27.9691 31.0541 28.4991 31.0541 29.0281 31.0541C29.1155 31.0492 29.203 31.0622 29.2853 31.0923C29.3676 31.1225 29.4428 31.169 29.5064 31.2292C29.5701 31.2894 29.6208 31.3619 29.6554 31.4424C29.6901 31.5228 29.7079 31.6095 29.7079 31.6971C29.7079 31.7847 29.6901 31.8714 29.6554 31.9518C29.6208 32.0323 29.5701 32.1048 29.5064 32.165C29.4428 32.2252 29.3676 32.2717 29.2853 32.3019C29.203 32.332 29.1155 32.345 29.0281 32.3401C28.4561 32.3401 27.8831 32.3401 27.3111 32.3401H27.0711C26.9941 32.9561 26.9211 33.5571 26.8441 34.1581C26.6441 35.6891 26.5101 37.2311 26.2321 38.7471C26.0221 39.764 25.4963 40.6887 24.7297 41.389C23.963 42.0894 22.9948 42.5297 21.9631 42.6471C21.9154 42.6566 21.8685 42.6699 21.8231 42.6871H21.1781C20.9701 42.5883 20.8031 42.4199 20.7061 42.2111V41.8671Z" fill="#0A0A0C"/>
<path d="M42.685 32.1232C42.628 32.5462 42.585 32.9712 42.514 33.3932C42.3018 34.6774 41.9089 35.9251 41.347 37.0992C41.3139 37.1795 41.2649 37.2522 41.2029 37.313C41.1409 37.3738 41.0673 37.4214 40.9864 37.453C40.9055 37.4845 40.819 37.4993 40.7323 37.4964C40.6455 37.4936 40.5602 37.4731 40.4815 37.4364C40.4029 37.3996 40.3325 37.3473 40.2746 37.2826C40.2168 37.2178 40.1727 37.142 40.1449 37.0597C40.1172 36.9775 40.1065 36.8904 40.1133 36.8039C40.1202 36.7173 40.1446 36.6331 40.185 36.5562C40.6519 35.5592 40.9948 34.5087 41.206 33.4282C41.6321 31.3965 41.3864 29.2812 40.506 27.4012C40.429 27.2402 40.336 27.0872 40.245 26.9332C40.1925 26.8608 40.1553 26.7783 40.1358 26.691C40.1163 26.6037 40.1148 26.5132 40.1314 26.4253C40.1481 26.3374 40.1826 26.2538 40.2327 26.1797C40.2828 26.1055 40.3476 26.0424 40.423 25.9942C40.4997 25.9476 40.5852 25.9174 40.6742 25.9055C40.7632 25.8935 40.8537 25.9001 40.94 25.9248C41.0263 25.9495 41.1065 25.9918 41.1757 26.049C41.2449 26.1062 41.3015 26.1771 41.342 26.2572C41.8601 27.1069 42.226 28.0406 42.423 29.0162C42.529 29.5162 42.576 30.0322 42.651 30.5402C42.659 30.5962 42.676 30.6502 42.688 30.7052L42.685 32.1232Z" fill="#0A0A0C"/>
<path d="M36.8913 32.834C36.7623 33.019 36.6443 33.187 36.5273 33.355C36.1803 33.855 35.8383 34.355 35.4873 34.855C35.4189 34.9619 35.3188 35.0446 35.2009 35.0915C35.083 35.1383 34.9533 35.1469 34.8303 35.116C34.7058 35.0937 34.5912 35.0338 34.5019 34.9444C34.4125 34.8551 34.3526 34.7404 34.3303 34.616C34.3122 34.5172 34.3161 34.4157 34.3417 34.3185C34.3673 34.2214 34.4139 34.1311 34.4783 34.054C34.9783 33.333 35.4783 32.607 35.9843 31.889C36.0323 31.8388 36.059 31.772 36.059 31.7025C36.059 31.633 36.0323 31.5663 35.9843 31.516C35.4673 30.787 34.9603 30.052 34.4553 29.316C34.387 29.2304 34.3417 29.1288 34.3234 29.0208C34.3052 28.9128 34.3148 28.802 34.3512 28.6987C34.3876 28.5954 34.4496 28.5031 34.5315 28.4304C34.6134 28.3577 34.7124 28.307 34.8193 28.283C34.9535 28.2544 35.0934 28.2688 35.219 28.324C35.3446 28.3793 35.4497 28.4727 35.5193 28.591C35.9283 29.177 36.3333 29.766 36.7403 30.353C36.7843 30.416 36.8313 30.477 36.8893 30.553C36.9453 30.478 36.9893 30.418 37.0363 30.353C37.4513 29.753 37.8643 29.153 38.2823 28.553C38.3613 28.4275 38.4819 28.3338 38.6231 28.2883C38.7642 28.2428 38.9168 28.2484 39.0543 28.304C39.1864 28.3526 39.298 28.4447 39.3707 28.5652C39.4434 28.6858 39.4729 28.8275 39.4543 28.967C39.4266 29.1062 39.37 29.238 39.2883 29.354C38.7936 30.0807 38.2936 30.8034 37.7883 31.522C37.7452 31.5675 37.7211 31.6278 37.7211 31.6905C37.7211 31.7532 37.7452 31.8135 37.7883 31.859C38.2993 32.583 38.7993 33.315 39.3053 34.042C39.3714 34.1223 39.4188 34.2162 39.444 34.317C39.4693 34.4179 39.4718 34.5231 39.4513 34.625C39.4233 34.7475 39.3601 34.8591 39.2693 34.946C39.1785 35.0329 39.0643 35.0912 38.9407 35.1138C38.8171 35.1364 38.6896 35.1222 38.5739 35.073C38.4583 35.0238 38.3597 34.9417 38.2903 34.837C37.8733 34.237 37.4593 33.637 37.0443 33.037C37.0003 32.974 36.9543 32.913 36.8933 32.831" fill="#0A0A0C"/>
<path d="M33.039 25.8982C33.1548 25.9013 33.2677 25.9355 33.3658 25.9971C33.464 26.0587 33.5438 26.1455 33.597 26.2484C33.6502 26.3514 33.6748 26.4667 33.6683 26.5824C33.6618 26.6981 33.6244 26.8099 33.56 26.9062C33.1304 27.6177 32.82 28.3946 32.641 29.2062C32.2124 31.0985 32.3222 33.0731 32.958 34.9062C33.138 35.4542 33.384 35.9802 33.583 36.5222C33.6417 36.6729 33.6629 36.8355 33.645 36.9962C33.6201 37.1277 33.5523 37.2472 33.4522 37.336C33.3522 37.4249 33.2255 37.478 33.092 37.4872C32.9552 37.5042 32.8167 37.4749 32.6987 37.4038C32.5806 37.3327 32.4899 37.224 32.441 37.0952C32.125 36.2702 31.785 35.4492 31.541 34.6032C31.1504 33.261 31.0147 31.8574 31.141 30.4652C31.2465 28.992 31.687 27.5623 32.429 26.2852C32.4864 26.1719 32.5734 26.0761 32.6808 26.0082C32.7882 25.9403 32.9119 25.9016 33.039 25.8982Z" fill="#0A0A0C"/>
</g>
</svg>
