<svg width="15" height="15" viewBox="0 0 15 15" fill="none" xmlns="http://www.w3.org/2000/svg">
<path d="M7.87615 14.629H7.70715C7.25253 14.5504 6.84356 14.305 6.56015 13.941C6.13315 13.504 5.69615 13.076 5.26015 12.651C5.14061 12.5338 5.00611 12.4329 4.86015 12.351C4.76727 12.2928 4.6622 12.2569 4.55314 12.246C4.44408 12.2352 4.33399 12.2497 4.23146 12.2884C4.12893 12.3271 4.03674 12.389 3.9621 12.4693C3.88745 12.5495 3.83237 12.6459 3.80115 12.751C3.7537 12.9011 3.72351 13.0561 3.71115 13.213C3.67707 13.5333 3.53455 13.8324 3.30721 14.0607C3.07987 14.2889 2.78135 14.4326 2.46115 14.468C2.17687 14.4851 1.89313 14.4264 1.63904 14.2978C1.38494 14.1691 1.16962 13.9753 1.01515 13.736C0.898602 13.5865 0.813902 13.4146 0.766264 13.2311C0.718625 13.0476 0.709057 12.8563 0.738147 12.669C0.793023 12.3632 0.94685 12.084 1.17596 11.8742C1.40506 11.6644 1.69676 11.5358 2.00615 11.508C2.17678 11.4931 2.34482 11.4565 2.50615 11.399C2.60073 11.3675 2.6872 11.3155 2.75937 11.2468C2.83154 11.178 2.88763 11.0942 2.92365 11.0012C2.95966 10.9083 2.97471 10.8085 2.96771 10.7091C2.9607 10.6096 2.93183 10.513 2.88315 10.426C2.79757 10.2662 2.68796 10.1205 2.55815 9.99399C2.05415 9.47599 1.53015 8.97699 1.02615 8.45799C0.874722 8.30801 0.754419 8.12959 0.672147 7.93299C0.577735 7.69982 0.558596 7.44297 0.617411 7.19839C0.676225 6.9538 0.810049 6.73374 1.00015 6.56899C1.51815 6.05099 2.04315 5.53899 2.56215 5.02199C2.65286 4.93459 2.73553 4.8392 2.80915 4.73699C2.89488 4.63212 2.95073 4.50606 2.97083 4.37211C2.99092 4.23815 2.97451 4.10125 2.92332 3.97584C2.87214 3.85043 2.78807 3.74115 2.67998 3.65952C2.57189 3.57788 2.44378 3.52692 2.30915 3.51199C2.18115 3.48599 2.04915 3.47699 1.91915 3.45599C1.73677 3.43389 1.5607 3.37531 1.40144 3.28375C1.24217 3.19218 1.10297 3.06949 0.992113 2.92299C0.88126 2.77649 0.801026 2.60918 0.756192 2.43102C0.711358 2.25286 0.702841 2.06751 0.731147 1.88599C0.77256 1.60727 0.886844 1.34443 1.06244 1.12406C1.23804 0.903686 1.46872 0.733594 1.73115 0.630987C2.02351 0.490834 2.35631 0.459658 2.66962 0.543073C2.98293 0.626488 3.25617 0.819014 3.44015 1.08599C3.61942 1.35941 3.72294 1.67549 3.74015 2.00199C3.74371 2.11347 3.77158 2.22283 3.8218 2.32242C3.87203 2.42201 3.94339 2.50943 4.03092 2.57857C4.11844 2.64771 4.22001 2.69691 4.32852 2.72272C4.43703 2.74852 4.54987 2.75032 4.65915 2.72799C4.88514 2.66763 5.08873 2.54291 5.24515 2.36899C5.77315 1.84299 6.29415 1.31399 6.83215 0.802987C6.98445 0.65236 7.16533 0.533701 7.36415 0.453987C7.59991 0.362987 7.85782 0.346013 8.10348 0.405328C8.34914 0.464644 8.57088 0.597431 8.73915 0.785987C9.25815 1.29599 9.77315 1.81099 10.2931 2.32099C10.3846 2.41432 10.4851 2.4984 10.5931 2.57199C10.6948 2.65124 10.8151 2.70301 10.9425 2.72231C11.0699 2.74161 11.2002 2.72779 11.3207 2.68218C11.4413 2.63658 11.548 2.56072 11.6308 2.46191C11.7135 2.3631 11.7694 2.24466 11.7931 2.11799C11.8331 1.96599 11.8401 1.80599 11.8721 1.65199C11.8987 1.47446 11.9602 1.30396 12.053 1.1503C12.1458 0.996648 12.2681 0.862882 12.4128 0.75672C12.5576 0.650557 12.7219 0.574098 12.8963 0.531751C13.0707 0.489404 13.2518 0.482007 13.4291 0.509987C13.7134 0.550056 13.982 0.664461 14.2078 0.841635C14.4336 1.01881 14.6086 1.25247 14.7151 1.51899C14.8504 1.80622 14.8782 2.13239 14.7936 2.43839C14.7091 2.74438 14.5177 3.00996 14.2541 3.18699C13.9719 3.36563 13.6487 3.46892 13.3151 3.48699C13.1747 3.48955 13.0378 3.53157 12.92 3.60824C12.8023 3.68492 12.7085 3.79317 12.6494 3.92061C12.5902 4.04806 12.5681 4.18957 12.5856 4.32898C12.6031 4.46838 12.6594 4.60007 12.7481 4.70899C12.8212 4.81133 12.9036 4.90673 12.9941 4.99399C13.4631 5.46199 13.9301 5.93299 14.4081 6.39399C14.7087 6.64046 14.9173 6.98119 15.0001 7.36099V7.63999C14.9466 7.9529 14.7946 8.24054 14.5661 8.46099C14.0331 8.98299 13.5071 9.51399 12.9661 10.033C12.8432 10.1541 12.7022 10.2553 12.5481 10.333C12.464 10.3774 12.3716 10.4042 12.2767 10.4118C12.1818 10.4193 12.0864 10.4074 11.9963 10.3768C11.9061 10.3462 11.8232 10.2975 11.7525 10.2338C11.6818 10.17 11.6249 10.0925 11.5851 10.006C11.5151 9.84015 11.4696 9.66497 11.4501 9.48599C11.4296 9.21415 11.3327 8.95365 11.1704 8.73459C11.0081 8.51552 10.7872 8.34683 10.5331 8.24799C10.295 8.17673 10.0437 8.16119 9.79862 8.20256C9.55353 8.24393 9.32124 8.34111 9.1197 8.48659C8.91817 8.63206 8.75278 8.82193 8.63634 9.04152C8.51989 9.26111 8.4555 9.50454 8.44815 9.75299C8.45354 10.0919 8.58168 10.4173 8.80879 10.6689C9.03591 10.9204 9.34658 11.0811 9.68315 11.121C9.86454 11.1375 10.0436 11.1737 10.2171 11.229C10.3191 11.2604 10.4127 11.3145 10.4907 11.3872C10.5688 11.46 10.6293 11.5495 10.6678 11.649C10.7063 11.7485 10.7218 11.8555 10.713 11.9618C10.7042 12.0682 10.6714 12.1711 10.6171 12.263C10.5443 12.3981 10.452 12.5218 10.3431 12.63C9.82015 13.156 9.29115 13.675 8.76315 14.197C8.58139 14.3875 8.34832 14.5212 8.09215 14.582L7.87615 14.628" fill="#F8F7F7"/>
</svg>
