<svg width="57" height="56" viewBox="0 0 57 56" fill="none" xmlns="http://www.w3.org/2000/svg">
<rect x="1" y="0.5" width="55" height="55" rx="20" fill="white"/>
<rect x="1" y="0.5" width="55" height="55" rx="20" stroke="#C4C4C4"/>
<path d="M38.9375 29.0625C38.9375 35.1 34.0375 40 28 40C21.9625 40 17.0625 35.1 17.0625 29.0625C17.0625 23.025 21.9625 18.125 28 18.125C34.0375 18.125 38.9375 23.025 38.9375 29.0625Z" stroke="#C4C4C4" stroke-width="2" stroke-linecap="round" stroke-linejoin="round"/>
<mask id="mask0_213_5682" style="mask-type:alpha" maskUnits="userSpaceOnUse" x="19" y="20" width="18" height="19">
<path d="M35.794 24.6001C35.0056 23.2339 33.8662 22.0945 32.5 21.3061C31.177 20.5393 29.6398 20.1001 28 20.1001V29.1001L23.5 21.3061C22.1338 22.0945 20.9944 23.2339 20.206 24.6001C19.4392 25.9231 19 27.4603 19 29.1001C19 30.7399 19.4392 32.2771 20.206 33.6001C20.9944 34.9663 22.1338 36.1057 23.5 36.8941C24.823 37.6609 26.3602 38.1001 28 38.1001C29.6398 38.1001 31.177 37.6609 32.5 36.8941C33.8662 36.1057 35.0056 34.9663 35.794 33.6001C36.5608 32.2771 37 30.7399 37 29.1001C37 27.4603 36.5608 25.9231 35.794 24.6001Z" fill="#D9D9D9"/>
</mask>
<g mask="url(#mask0_213_5682)">
<path d="M32.4552 21.27L27.9552 29.0642L27.9551 20.0644C29.4843 20.0619 31.0351 20.4501 32.4552 21.27Z" fill="#9BE3FF"/>
<path d="M32.4552 21.27L27.9552 29.0642L27.9551 20.0644C29.4843 20.0619 31.0351 20.4501 32.4552 21.27Z" fill="#9BE3FF"/>
<path d="M32.4552 21.27L27.9552 29.0642L27.9551 20.0644C29.4843 20.0619 31.0351 20.4501 32.4552 21.27Z" fill="#9BE3FF"/>
<path d="M32.4552 21.27L27.9552 29.0642L27.9551 20.0644C29.4843 20.0619 31.0351 20.4501 32.4552 21.27Z" fill="#9BE3FF"/>
<path d="M32.4552 21.27L27.9552 29.0642L27.9551 20.0644C29.4843 20.0619 31.0351 20.4501 32.4552 21.27Z" fill="#9BE3FF"/>
<path d="M32.4552 21.27L27.9552 29.0642L27.9551 20.0644C29.4843 20.0619 31.0351 20.4501 32.4552 21.27Z" fill="#9BE3FF"/>
<path d="M32.4552 21.27L27.9552 29.0642L27.9551 20.0644C29.4843 20.0619 31.0351 20.4501 32.4552 21.27Z" fill="#9BE3FF"/>
<path d="M32.4552 21.27L27.9552 29.0642L27.9551 20.0644C29.4843 20.0619 31.0351 20.4501 32.4552 21.27Z" fill="#9BE3FF"/>
<path d="M32.4552 21.27L27.9552 29.0642L27.9551 20.0644C29.4843 20.0619 31.0351 20.4501 32.4552 21.27Z" fill="#9BE3FF"/>
<path d="M32.4552 21.27L27.9552 29.0642L27.9551 20.0644C29.4843 20.0619 31.0351 20.4501 32.4552 21.27Z" fill="#9BE3FF"/>
<path d="M32.4552 21.27L27.9552 29.0642L27.9551 20.0644C29.4843 20.0619 31.0351 20.4501 32.4552 21.27Z" fill="#9BE3FF"/>
<path d="M32.4552 21.27L27.9552 29.0642L27.9551 20.0644C29.4843 20.0619 31.0351 20.4501 32.4552 21.27Z" fill="#9BE3FF"/>
</g>
<path d="M24.25 15H31.75" stroke="#C4C4C4" stroke-width="2" stroke-miterlimit="10" stroke-linecap="round" stroke-linejoin="round"/>
</svg>
